<?xml version="1.0" encoding="utf-8"?>
<!-- Generator: Adobe Illustrator 22.0.1, SVG Export Plug-In . SVG Version: 6.00 Build 0)  -->
<svg version="1.1" id="Слой_1" xmlns="http://www.w3.org/2000/svg" xmlns:xlink="http://www.w3.org/1999/xlink" x="0px" y="0px"
	 viewBox="0 0 1906 945" style="enable-background:new 0 0 1906 945;" xml:space="preserve">
<style type="text/css">
	.st0{fill:#0063D7;}
	.st1{fill:#FFE600;}
</style>
<path class="st0" d="M432.5,372.5c-0.8-12.3-8.1-110.3-10.4-139.5c-0.8-10.2-6.2-39.9-17.6-98.2c-0.7-3.3-3.4-17.5-6.1-31.6l-5-25.5
	l-14-31.6c-7.7-17.4-15.6-34.9-17.5-38.9L358.4,0l-2.2,4.8c-1.2,2.6-9,20.1-17.4,38.8c-13.3,29.9-15.4,35.2-16.9,42.8
	c-2.7,13.8-17.7,91.4-22,113.4c-4.2,21.3-4.2,21.8-9.6,93.4c-1.7,22.4-3.6,47.8-4.3,56.6c-2.6,33.7-4.4,100.2-3.1,116.7
	c2.9,36.3,15.9,75.1,37.7,112.4c3.2,5.5,6.6,11.3,7.6,13.1l1.8,3.1l-1.9,2.4h59.6c-27.3-35.7-46.3-72-54.5-104.6
	c-4.7-18.7-4.9-20.8-4.7-60.1c0.2-39.3,1-59.1,3.7-92.1c0.9-11.4,2.3-28.3,3-37.6c6.4-81.5,6.4-82,10.8-107.7
	c4.8-28.3,9.7-56.7,11.4-65.7l1.1-6.1l0.7,3.9c0.4,2.1,4.2,24.3,8.5,49.3l7.8,45.4l4.3,55.8c2.4,30.7,5.1,65.3,6,77
	c2.1,26.7,3.8,99.4,2.6,112.4c-2.1,22.3-8,42.4-19.3,65.8c-2.7,5.5-4.8,10.5-4.8,11c0,2,6.3,13.6,12.4,22.6c5.4,8,14.3,19.9,15,19.9
	c0.4,0,6.1-9.9,12.5-21.7c15.5-28.5,25.4-58.1,29.1-86.8c1.1-8.7,1.2-17.2,0.8-51.2C433.6,404.6,433,380,432.5,372.5z M325.5,125.4
	l4.6-23.3l0.3,9.1c0.1,5-0.1,12.8-0.6,17.3c-1.2,10.7-5,25.7-9.6,37.4c-2,5.1-3.8,9.2-3.9,9.1C315.9,174.7,317,168.9,325.5,125.4z
	 M317.3,242.9c0.2,0.2,1.9,11.5,3.7,25.3c3.6,26.4,4,32.1,2.5,36.5c-0.9,2.7-2.5,3.7-2.5,1.6c0-0.6-1.8-13.3-4-28.3l-4-27.2l2-4.2
	C316.1,244.4,317.1,242.7,317.3,242.9z M317.8,478.6c0.3-0.9,0.5-1.5,0.7-1.5c0.4,0,0.8,2.3,2.1,9.2l1.5,8.2l-3.6,9.1
	c-2,5-3.8,9.2-4,9.4c-0.6,0.6-7.3-4.4-7.3-5.4C307.2,507,313.7,489,317.8,478.6z M311.5,442.1c0-0.6,1.3-4.3,2.8-8.2l2.8-7.2l0.3,5
	c0.2,2.7,0,8.2-0.3,12.1c-0.3,3.9-0.9,7.1-1.2,7.1C315.2,451,311.5,443.6,311.5,442.1z M310.7,214.8c2-4.6,2-4.7,2.6-2.1
	c0.3,1.4,0.6,4.3,0.6,6.5c0,2.5-0.7,5.3-2,7.8l-2,3.9l-0.6-5.7C308.8,220.3,309,218.8,310.7,214.8z M294,466.3
	c-0.4-0.6-0.7-5.8-0.7-11.6l0-10.6l9.9-27.8l9.9-27.8l-1.3-7.9c-0.7-4.3-3.6-23.4-6.4-42.5l-5.1-34.6l1.3-17.3
	c0.7-9.5,1.5-17.9,1.8-18.6c0.7-1.8,1,0.3,8.8,53.2l6.8,46.7l-0.6,19.9l-0.6,19.9l-11.6,30C299.3,455.5,294.4,466.9,294,466.3z
	 M298.7,498l-1-4.5c-1-4.5-1.6-7-1.5-9.5c0.1-3.7,1.6-7.5,5.4-17.4c3.3-8.6,6.1-15.6,6.4-15.6c0.2,0,1.3,2,2.4,4.5
	c1.1,2.5,1.9,4.9,1.9,5.4c0,0.9-10.1,28.6-12.4,34L298.7,498z M369.8,591.8c0.3,0.5-0.6,0.5-2.4-0.1c-2.5-0.8-3.1-1.6-4.8-6.2
	c-1-2.9-1.9-5.7-1.9-6.1C360.8,578.8,367.2,587.6,369.8,591.8z M355.3,578.4c0.1,0.1-0.6,2.7-1.6,5.8c-1,3.1-1.9,5.6-2,5.7
	c-0.1,0.1-1.6,0.8-3.4,1.6c-2.5,1.1-3.1,1.1-2.5,0.2C347.7,588.5,355.1,578.2,355.3,578.4z M343.3,549.1l4.8,8.5l4.8,8.5l-3.7-0.6
	c-5.1-0.9-11.4-3.4-16.1-6.6c-10.2-7-23.1-24-26.5-35.1c-0.2-0.7-0.4-1.2-0.2-1.4c0.5-0.5,4,2.2,19.5,13.8L343.3,549.1z
	 M328.8,515.6c2.2,6.1,3.9,11.2,3.8,11.3c-0.2,0.2-3.2-1.9-6.8-4.6l-6.5-4.9l2.7-6.4l2.7-6.4L328.8,515.6z M331.4,216.7
	c-0.4,3.1-1.4,14.1-2.2,24.6c-0.8,10.5-1.6,19.6-1.9,20.3c-0.5,1.3-4.5-24.1-4.5-29c0-2.2,8.5-22.5,9.2-21.8
	C332.1,211,331.8,213.6,331.4,216.7z M330.2,187.4c-10.2,22.5-10.4,22.8-11,20.4c-1.7-6.1-0.9-9.8,5.4-23.3
	c3.4-7.3,7.1-15.6,8.4-18.4c2.1-4.5,2.4-4.9,2.9-3c0.3,1.1,0.6,3.9,0.7,6.2C336.5,172.6,335.4,175.9,330.2,187.4z M343.4,114.4
	c-0.6-1.2-3.5-33.6-3.4-38.8c0-1.2,0-2.1,0.2-2.1c0.4-0.1,1.5,3.2,5.7,14.1c2.4,6.4,4.4,12.1,4.4,12.8
	C350.4,102.9,344,115.6,343.4,114.4z M377.2,83.5c-1.9,23.4-2.9,32.7-3.5,32.4c-0.3-0.2-2.1-3.7-3.9-7.7l-3.3-7.3l4.1-10.2
	c2.3-5.6,4.7-11.9,5.5-13.9c0.8-2,1.5-3.5,1.6-3.4C377.9,73.5,377.6,78,377.2,83.5z M403.4,215.8l0.8-5.6l2,3.9c1.1,2.1,2,5.2,2,6.9
	c0,1.7-0.3,4.5-0.6,6.3l-0.6,3.3l-2.2-4.6C402.8,221.8,402.7,220.9,403.4,215.8z M404.2,250.7l-3.2,22.1
	c-1.8,12.2-3.6,24.9-4.1,28.4c-0.5,3.4-1.2,6.3-1.5,6.3c-1.1,0-2.6-4.8-2.7-8.7c-0.1-4,0.3-7.1,4.5-36.7c1.4-10,2.6-18.5,2.6-19
	c0-0.5,1,1,2.3,3.3L404.2,250.7z M404.7,492.4c3,8.1,5.4,15,5.4,15.4c0,0.9-6.8,5.8-7.2,5.3c-0.2-0.2-1.9-4.4-3.9-9.3l-3.6-8.9
	l1.6-8.6c0.9-4.7,1.8-8.6,2-8.6S401.7,484.4,404.7,492.4z M399.7,436.3l0-10.8l3.2,8.5l3.2,8.5l-2.1,4.2c-1.2,2.3-2.4,4.2-2.7,4.2
	C400.2,451,399.7,447,399.7,436.3z M387.2,104.4c0.1,0.1,2.8,13.5,6,29.7c3.1,16.2,6.2,32,6.9,35.2c0.6,3.2,1,5.8,0.9,5.8
	c-0.5,0-4.5-9.3-7.2-16.5c-3.9-10.5-6-20.6-7.1-32.8C385.9,116.8,386.2,103.5,387.2,104.4z M382,161.5c0.1,0.1,4,8.4,8.7,18.4
	c8.6,18.6,9,19.9,7.4,27.2c-0.6,2.8-1,2.1-9-15.3c-5.3-11.5-8.4-19.3-8.4-21.2C380.7,167.4,381.6,161.1,382,161.5z M387.7,240.3
	c-1.1-13.3-2.2-25.6-2.4-27.6c-0.3-2.8,0.5-1.5,4.4,6.8c2.6,5.7,4.8,11.4,4.8,12.7c0,3.6-3.4,28.6-4.2,30.5
	C390,263.7,388.8,253.7,387.7,240.3z M384.4,526.6c2.3-7.4,8-21,8.5-20.5c0.4,0.4,1.6,3.1,2.8,6.1l2.2,5.4l-7,5.3
	C386.1,526.5,384,527.7,384.4,526.6z M409.3,527.2c-1.5,3-4.3,8-6.3,11.1c-3.7,5.7-16.9,19.9-18.5,19.9c-0.5,0-2.3-2.6-4.2-5.7
	c-3.2-5.4-3.2-5.7-1.7-6.8c0.9-0.6,8.6-6.4,17.2-12.8c8.6-6.4,15.7-11.5,15.9-11.4C411.8,521.6,410.8,524.2,409.3,527.2z
	 M420.4,488.9c-0.6,3.6-1.3,7.1-1.7,7.7c-0.6,1-14-33.5-13.9-35.9c0-0.6,1-3.1,2.3-5.6l2.3-4.4l2.5,6.4c1.4,3.5,4.1,10.6,6.1,15.8
	l3.6,9.4L420.4,488.9z M423.8,453.4c-0.1,6.9-0.1,11.1-1,11.3c-1.3,0.3-4.3-7.9-12.1-28.1l-11.8-31l-0.5-18.6l-0.5-18.6l6.1-41.1
	c3.3-22.6,6.7-45.4,7.5-50.8c0.8-5.4,1.6-9.6,1.7-9.4c0.2,0.2,0.9,6.7,1.6,14.5c0.7,7.8,1.3,17.1,1.4,20.7c0,3.9-2.4,22.4-6,46.5
	l-6.1,40l9.9,27.7l9.9,27.7L423.8,453.4z"/>
<path d="M645.2,412v-46.2H680v5.6h-28.3v13.2h14.4c5.5,0,9.7,1.1,12.5,3.4c2.9,2.3,4.3,5.6,4.3,10c0,4.5-1.6,7.9-4.7,10.4
	c-3.1,2.4-7.5,3.6-13.3,3.6H645.2z M651.7,406.8h13c3.8,0,6.7-0.7,8.6-2.2c2-1.5,3-3.6,3-6.5c0-5.5-3.9-8.3-11.6-8.3h-13V406.8z
	 M690.1,412.5c-0.7,0-1.3,0-2-0.1c-0.7-0.1-1.4-0.2-2.2-0.4l0.5-5.9c0.7,0.2,1.4,0.3,2.1,0.3c1.9,0,3.5-0.8,4.6-2.3
	c1.1-1.5,2-3.9,2.5-7c0.6-3.1,0.9-7.1,1.1-11.8l0.7-19.5H730V412h-6.5v-42.2l1.6,1.7h-23.4l1.5-1.8l-0.5,15.3
	c-0.1,4.6-0.4,8.6-0.9,12c-0.5,3.4-1.2,6.3-2.2,8.6c-1,2.3-2.2,4-3.8,5.1C694.3,412,692.4,412.5,690.1,412.5z M738,412l20.9-46.2
	h6.5l21,46.2h-6.9l-18.7-42.5h2.6L744.8,412H738z M746.9,400.5l1.8-5.3h26l1.9,5.3H746.9z M794.4,412v-46.2h30.3l-0.1,5.7h-25.3
	l1.6-1.6L801,412H794.4z M847.5,412.5c-3.5,0-6.8-0.6-9.8-1.8c-3-1.2-5.6-2.8-7.8-4.9c-2.2-2.2-3.9-4.7-5.1-7.5s-1.8-6-1.8-9.4
	s0.6-6.5,1.8-9.4s2.9-5.3,5.1-7.5c2.2-2.2,4.8-3.8,7.8-5c3-1.2,6.3-1.8,9.8-1.8c3.5,0,6.8,0.6,9.7,1.8c3,1.1,5.6,2.8,7.8,4.9
	c2.2,2.1,4,4.6,5.1,7.5c1.2,2.9,1.8,6,1.8,9.4s-0.6,6.6-1.8,9.4c-1.2,2.9-2.9,5.4-5.1,7.5c-2.2,2.1-4.8,3.8-7.8,4.9
	C854.3,412,851,412.5,847.5,412.5z M847.5,406.7c2.6,0,4.9-0.4,7.1-1.3c2.2-0.9,4.1-2.1,5.7-3.7c1.6-1.6,2.9-3.5,3.8-5.7
	c0.9-2.2,1.4-4.5,1.4-7.1s-0.5-4.9-1.4-7.1c-0.9-2.2-2.1-4-3.8-5.6c-1.6-1.6-3.5-2.9-5.7-3.8c-2.2-0.9-4.5-1.3-7.1-1.3
	c-2.6,0-5,0.4-7.2,1.3c-2.2,0.9-4,2.1-5.7,3.8c-1.6,1.6-2.9,3.5-3.8,5.6c-0.9,2.2-1.3,4.5-1.3,7.1s0.4,4.9,1.3,7.1
	c0.9,2.2,2.2,4,3.8,5.7c1.6,1.6,3.5,2.8,5.7,3.7C842.5,406.2,844.9,406.7,847.5,406.7z M912,408.9v-37.3h-20.3l-0.3,9.7
	c-0.1,3.3-0.4,6.4-0.7,9.4c-0.3,3-0.7,5.7-1.2,8.1c-0.5,2.4-1.3,4.3-2.2,5.9c-0.9,1.5-2.1,2.5-3.6,2.8l-7.1-1.2
	c1.7,0.1,3.1-0.4,4.2-1.7c1.1-1.3,2-3.1,2.6-5.5c0.7-2.4,1.1-5.1,1.5-8.2c0.3-3.2,0.5-6.6,0.7-10.2l0.5-14.8h32.5v43.1H912z
	 M875,422.1l0.1-15.8h50.3v15.8h-6.1V412h-38l-0.1,10.1H875z M934.4,412v-46.2h6.5V412H934.4z M955.3,412v-46.2h6.5v35.6l27.3-35.6
	h6.1V412h-6.5v-35.6L961.4,412H955.3z M975.2,362.6c-3.6,0-6.4-0.8-8.4-2.4c-1.9-1.6-2.9-3.8-3-6.7h4.7c0,1.7,0.7,3.1,1.8,4
	c1.2,0.9,2.8,1.4,4.8,1.4c2,0,3.6-0.5,4.8-1.4c1.2-1,1.9-2.3,1.9-4h4.6c0,2.9-1.1,5.1-3,6.7C981.5,361.8,978.8,362.6,975.2,362.6z
	 M1042.8,365.8h6.6V412h-6.6V365.8z M1016.3,412h-6.6v-46.2h6.6V412z M1043.4,391.4h-27.8v-5.7h27.8V391.4z M1063.8,412v-46.2h6.5
	v35.6l27.3-35.6h6.1V412h-6.5v-35.6l-27.4,35.6H1063.8z M1118.1,412v-46.2h6.5v35.6l27.3-35.6h6.1V412h-6.5v-35.6l-27.4,35.6H1118.1
	z M1138,362.6c-3.6,0-6.4-0.8-8.4-2.4c-1.9-1.6-2.9-3.8-3-6.7h4.7c0,1.7,0.7,3.1,1.8,4c1.2,0.9,2.8,1.4,4.8,1.4c2,0,3.6-0.5,4.8-1.4
	c1.2-1,1.9-2.3,1.9-4h4.6c-0.1,2.9-1.1,5.1-3,6.7C1144.3,361.8,1141.5,362.6,1138,362.6z M1212.7,408.9c-5.6,0-10.4-0.8-14.4-2.3
	c-4-1.6-7.1-3.9-9.2-6.9c-2.1-3-3.2-6.6-3.2-10.9s1.1-7.9,3.2-10.9c2.1-3,5.2-5.3,9.2-6.9c4-1.6,8.8-2.4,14.4-2.4c0.1,0,0.2,0,0.5,0
	c0.3,0,0.5,0,0.7,0c0.3,0,0.4,0,0.5,0c5.6,0,10.4,0.8,14.4,2.4c4,1.6,7.1,3.9,9.2,6.9c2.1,3,3.2,6.6,3.2,10.9
	c0,4.2-1.1,7.9-3.2,10.9c-2.1,3-5.1,5.3-9,6.9c-3.9,1.5-8.7,2.3-14.3,2.3c-0.1,0-0.3,0-0.6,0c-0.3,0-0.5,0-0.8,0
	S1212.8,408.9,1212.7,408.9z M1213.4,403.8c0.1,0,0.2,0,0.3,0s0.2,0,0.2,0c4.5,0,8.3-0.6,11.3-1.7c3.1-1.1,5.4-2.8,7-5
	c1.6-2.2,2.4-5,2.4-8.2c0-3.2-0.8-5.9-2.4-8.1c-1.6-2.2-4-3.9-7.1-5c-3-1.1-6.8-1.7-11.2-1.7c0,0-0.2,0-0.3,0c-0.1,0-0.2,0-0.3,0
	c-4.5,0-8.4,0.6-11.5,1.7c-3.1,1.1-5.5,2.7-7.1,4.9c-1.6,2.2-2.4,4.9-2.4,8.2c0,3.3,0.8,6,2.5,8.2c1.7,2.2,4.1,3.9,7.2,5
	C1205.2,403.2,1209,403.8,1213.4,403.8z M1210.5,413.7v-49.6h6.1v49.6H1210.5z M1272,412.5c-3.5,0-6.8-0.6-9.8-1.8
	c-3-1.2-5.6-2.8-7.8-4.9c-2.2-2.2-3.9-4.7-5.2-7.5s-1.8-6-1.8-9.4s0.6-6.5,1.8-9.4s2.9-5.3,5.2-7.5c2.2-2.2,4.8-3.8,7.8-5
	c3-1.2,6.3-1.8,9.8-1.8c3.5,0,6.8,0.6,9.7,1.8c3,1.1,5.6,2.8,7.8,4.9c2.3,2.1,4,4.6,5.2,7.5c1.2,2.9,1.8,6,1.8,9.4s-0.6,6.6-1.8,9.4
	c-1.2,2.9-2.9,5.4-5.2,7.5c-2.2,2.1-4.8,3.8-7.8,4.9C1278.8,412,1275.6,412.5,1272,412.5z M1272,406.7c2.5,0,4.9-0.4,7.1-1.3
	c2.2-0.9,4.1-2.1,5.7-3.7c1.6-1.6,2.9-3.5,3.8-5.7c0.9-2.2,1.4-4.5,1.4-7.1s-0.5-4.9-1.4-7.1c-0.9-2.2-2.1-4-3.8-5.6
	c-1.6-1.6-3.5-2.9-5.7-3.8c-2.2-0.9-4.5-1.3-7.1-1.3c-2.6,0-5,0.4-7.2,1.3c-2.2,0.9-4,2.1-5.7,3.8c-1.6,1.6-2.9,3.5-3.8,5.6
	c-0.9,2.2-1.3,4.5-1.3,7.1s0.4,4.9,1.3,7.1c0.9,2.2,2.2,4,3.8,5.7c1.6,1.6,3.5,2.8,5.7,3.7C1267,406.2,1269.4,406.7,1272,406.7z
	 M1340.3,365.8h6.6V412h-6.6V365.8z M1313.8,412h-6.6v-46.2h6.6V412z M1340.9,391.4h-27.8v-5.7h27.8V391.4z M1391.4,408.9v-37.3
	h-20.3l-0.3,9.7c-0.1,3.3-0.3,6.4-0.7,9.4c-0.3,3-0.7,5.7-1.2,8.1c-0.5,2.4-1.3,4.3-2.2,5.9c-0.9,1.5-2.1,2.5-3.6,2.8l-7.1-1.2
	c1.7,0.1,3.1-0.4,4.2-1.7c1.2-1.3,2-3.1,2.6-5.5c0.7-2.4,1.2-5.1,1.4-8.2c0.3-3.2,0.5-6.6,0.7-10.2l0.5-14.8h32.5v43.1H1391.4z
	 M1354.4,422.1l0.1-15.8h50.3v15.8h-6.1V412h-38l-0.1,10.1H1354.4z"/>
<path d="M688.2,543.5c-7.3,0-14-1.2-20.3-3.5c-6.2-2.4-11.5-5.8-16.1-10.2c-4.6-4.4-8.1-9.5-10.7-15.4c-2.5-5.9-3.8-12.4-3.8-19.5
	s1.3-13.6,3.8-19.5c2.6-5.9,6.2-11.1,10.7-15.4c4.7-4.4,10.1-7.7,16.2-10.1c6.2-2.4,12.9-3.6,20.3-3.6c8.1,0,15.5,1.4,22,4.3
	c6.6,2.8,12.2,6.9,16.7,12.4l-14,12.9c-3.2-3.7-6.8-6.4-10.7-8.2c-3.9-1.9-8.2-2.8-12.9-2.8c-4.4,0-8.4,0.7-12.1,2.1
	c-3.7,1.4-6.8,3.5-9.5,6.2c-2.7,2.7-4.8,5.9-6.3,9.5c-1.4,3.7-2.1,7.7-2.1,12.2c0,4.5,0.7,8.5,2.1,12.2c1.5,3.7,3.6,6.8,6.3,9.5
	c2.7,2.7,5.9,4.7,9.5,6.2c3.7,1.4,7.7,2.1,12.1,2.1c4.7,0,9-0.9,12.9-2.7c3.9-1.9,7.5-4.7,10.7-8.5l14,12.9
	c-4.5,5.5-10,9.6-16.7,12.5C703.8,542.1,696.4,543.5,688.2,543.5z M741.2,541.9v-94h21.6v61.2l44.8-61.2h20.4v94h-21.5v-61.1
	l-44.9,61.1H741.2z M915.9,447.9h21.8v94h-21.8V447.9z M873.2,541.9h-21.8v-94h21.8V541.9z M917.5,503.3h-45.9v-18.4h45.9V503.3z
	 M981.5,541.9v-81.2l5,5h-34.9v-17.7h81.5v17.7h-34.9l4.8-5v81.2H981.5z M1066.7,485.7h45.3v16.9h-45.3V485.7z M1068.3,524.4h51.2
	v17.5h-72.8v-94h71v17.5h-49.4V524.4z M1128.6,533.6l6.7-15.6c4,2.4,8.3,4.3,12.9,5.6c4.7,1.3,9.2,2,13.6,2.1
	c4.5,0.1,8.5-0.4,12.1-1.3c3.7-1,6.6-2.5,8.7-4.4c2.2-2,3.4-4.5,3.4-7.5c0-3.6-1.5-6.2-4.4-7.9c-3-1.8-6.9-2.7-11.8-2.7h-23v-16.4
	h21.3c4.4,0,7.8-0.9,10.2-2.7c2.5-1.8,3.8-4.3,3.8-7.4c0-2.7-0.9-4.8-2.7-6.4c-1.8-1.7-4.3-3-7.4-3.8c-3-0.8-6.5-1.2-10.3-1.1
	c-3.8,0.1-7.8,0.7-12,1.9s-8.1,2.8-11.8,4.8l-6.6-16.8c6.1-3.1,12.5-5.3,19.2-6.4c6.8-1.3,13.3-1.6,19.6-0.9
	c6.4,0.5,12.1,2,17.2,4.3c5.1,2.2,9.2,5.2,12.2,8.9c3,3.7,4.6,8,4.6,13c0,4.5-1.2,8.5-3.5,12c-2.3,3.5-5.6,6.2-9.8,8.1
	c-4.1,1.9-8.9,2.8-14.2,2.8l0.5-4.8c6.3,0,11.7,1.1,16.3,3.2c4.7,2.1,8.2,5,10.7,8.7c2.6,3.7,3.9,7.9,3.9,12.8
	c0,4.5-1.2,8.5-3.6,12.1c-2.3,3.5-5.5,6.4-9.7,8.9c-4.1,2.4-8.8,4.2-14.1,5.4c-5.3,1.2-10.9,1.7-16.9,1.5c-5.9-0.2-11.9-1-17.9-2.6
	C1139.8,539.2,1134.1,536.8,1128.6,533.6z M1266.4,524.2c5.2,1.5,9.5,2,13,1.3c3.6-0.7,6.8-3.2,9.5-7.5l4.6-6.8l2-2.3l31.2-61h21.3
	l-40,74.4c-3.6,6.7-7.8,11.9-12.8,15.4c-4.8,3.6-10.2,5.6-16,6c-5.8,0.5-11.9-0.5-18.1-3.1L1266.4,524.2z M1295.2,527l-42.4-79.1
	h23.2l31.2,63.1L1295.2,527z M1419.3,541.9l-29.3-45.3l17.6-10.6l36.4,55.9H1419.3z M1358.2,541.9v-94h21.6v94H1358.2z M1373.5,504
	v-18.1h32.8V504H1373.5z M1409.6,497.3l-20-2.4l30.5-47h23L1409.6,497.3z M1454.2,541.9v-94h40.7c8.4,0,15.7,1.4,21.8,4.2
	c6.1,2.7,10.8,6.6,14.1,11.7c3.3,5.1,5,11.2,5,18.3c0,7-1.7,13-5,18.1c-3.3,5.1-8,9-14.1,11.8c-6.1,2.7-13.3,4-21.8,4h-28.6l9.7-9.8
	v35.7H1454.2z M1475.9,508.6l-9.7-10.3h27.4c6.7,0,11.7-1.4,15-4.3c3.3-2.9,5-6.8,5-12c0-5.2-1.7-9.2-5-12.1
	c-3.3-2.9-8.3-4.3-15-4.3h-27.4l9.7-10.3V508.6z M1534.7,541.9l41.9-94h21.5l42,94h-22.8l-34.4-83h8.6l-34.5,83H1534.7z
	 M1555.6,521.7l5.8-16.5h48.3l5.9,16.5H1555.6z M1652,541.9v-94h21.8v94H1652z M1676.5,439.6c-2.5,0-4.7-0.9-6.6-2.6
	c-1.8-1.7-2.7-3.9-2.7-6.7s0.9-5,2.7-6.7c1.9-1.7,4.1-2.6,6.6-2.6c2.6,0,4.8,0.9,6.6,2.6c1.9,1.7,2.8,3.9,2.8,6.7s-0.9,5-2.8,6.7
	C1681.3,438.7,1679.1,439.6,1676.5,439.6z M1649.3,439.6c-2.6,0-4.8-0.9-6.7-2.6c-1.8-1.7-2.7-3.9-2.7-6.7s0.9-5,2.7-6.7
	c1.9-1.7,4.1-2.6,6.7-2.6c2.6,0,4.8,0.9,6.6,2.6c1.8,1.7,2.7,3.9,2.7,6.7s-0.9,5-2.7,6.7C1654.1,438.7,1651.9,439.6,1649.3,439.6z
	 M1761.1,447.9h21.8v94h-21.8V447.9z M1718.4,541.9h-21.8v-94h21.8V541.9z M1762.7,503.3h-45.9v-18.4h45.9V503.3z M1806.4,541.9v-94
	h21.6v61.2l44.8-61.2h20.4v94h-21.5v-61.1l-44.9,61.1H1806.4z"/>
<path class="st1" d="M35.7,597.6c-6,2.9-12.3,5.7-18.9,8.6C9.4,609.3,2.3,612.4,1,613c-2.3,1-1.4,1.3,13,4.4
	c55.4,11.9,113.3,29.4,163.7,49.6c24.3,9.7,57.1,24.5,57.1,25.7c0,0.6-16.3,14.4-26.2,22.3c-10.9,8.6-39.5,30-40.3,30
	c-0.3,0-0.6-17-0.6-37.8v-37.8l-6.9-2.8c-3.8-1.5-13.9-4.9-22.5-7.5l-15.6-4.7l-0.2,44c-0.1,24.2-0.1,63.8,0,88l0.2,44l10.4-6.3
	c5.7-3.4,13.5-8.1,17.3-10.4c16.8-10,58.7-39.1,75.7-52.7c3.1-2.5,9.3-7.4,13.8-10.9c9.5-7.5,30.8-25.4,36-30.4l3.6-3.4l4.6,2.6
	c17.1,9.5,43.7,27.9,57.5,39.9c12.6,10.9,26.9,30.7,32.6,45.2c7.3,18.5,6.2,36.4-3.4,55.4c-3.4,6.6-11.7,18.9-12.5,18.4
	c-1.3-0.8-9-13-12.2-19.4c-11.9-23.7-10.2-46.9,5-70.7c1.6-2.5,2.9-5,2.9-5.4c0-3.1-29.7-29.4-33.1-29.3c-1.1,0-5.9,6.5-10.8,14.6
	c-18.1,29.7-22.3,62.9-11.8,94.2c8,24,22.8,45.7,48.2,70.9l12.5,12.4l14.2-14.6c29.4-30.2,43.7-54,49.8-83.3c2.1-10,2.1-29.7,0-40
	c-7.8-39.1-35.1-73.7-91.8-116.6c-7.1-5.4-13.3-10.1-13.8-10.5c-0.5-0.4,2.8-4.4,7.8-9.6c9.1-9.3,14.1-14.8,26.3-28.2l7.3-8.1
	l3.5,4.2c1.9,2.3,11.3,12.1,20.8,21.8c9.5,9.7,17.3,17.9,17.3,18.3c0,0.4-5.1,4.8-11.2,9.7c-6.2,4.9-13.9,11.4-17.1,14.4l-5.9,5.5
	l12.8,13c7.1,7.2,14.2,14.7,15.8,16.7l3,3.7l15.1-10c12.5-8.3,19.9-12.8,24.4-14.9c0.3-0.2,3.2,2.2,6.5,5.3
	c26.8,25.1,79.5,64.7,117.9,88.4c8.3,5.1,17.5,10.8,20.3,12.6c2.9,1.8,7,4.3,9.3,5.6l4.1,2.3l0.1-68.6c0.1-73.9-0.1-107.4-0.4-107.7
	c-0.4-0.4-31.4,9.4-38.2,12.1l-6.9,2.8l-0.4,38.8l-0.4,38.8l-7.8-5.4c-20.1-13.9-42-31.2-52.6-41.4l-7.7-7.4l6.4-3
	c3.5-1.7,8.5-4,11.1-5.1c2.6-1.2,7.7-3.4,11.2-5.1c9.2-4.2,35.1-14.7,51.9-20.9c41.5-15.5,89.5-29.5,135.8-39.7
	c8.8-1.9,17.3-3.8,18.8-4.2c2.7-0.6,2-1-10.4-6.2c-8-3.4-16-7-23.9-10.9H549.5l0,3.5l-8.4,3c-27.1,9.5-61.8,26-92.2,43.9l-9.4,5.5
	l-9.2-8.6c-11.9-11.1-16.1-15.6-27-28.2c-5.4-6.3-10.5-12.7-15.4-19h-59.6l-4.1,5.3c-11.3,14.6-44.3,50.5-46.3,50.5
	c-0.4,0-3.7-1.8-7.5-4c-32.6-19.3-64.4-34.5-95.6-45.7l-6.7-2.4l0-3.7H35.7z"/>
<path class="st0" d="M681.7,597.6c-17.4-8.5-33.9-17.8-46-26.2c-11.6-8-19.7-14.7-30.9-25.6l-9.7-9.5l-0.2-210l-0.2-210l-10,8.8
	c-5.5,4.8-19.3,17.1-30.7,27.1c-11.4,10.1-24.8,21.9-29.9,26.4l-9.2,8.1l-4.3,12.5c-2.4,6.9-7.6,22.3-11.7,34.2
	c-4.1,11.9-11.7,34.3-17,49.7C445.3,390,443,396.3,442.9,402.7c0,0.6,0,1.2,0,1.9c0,12.6,3.5,32.2,8.7,49.2
	c10.8,35.2,30.1,71,56.3,104.3c7.4,9.5,31,33.8,32.7,33.8c0.7,0,1-12.3,0.9-43.9l0-43.9l-4-4.3c-12.5-13.6-22.2-27.8-30.6-44.7
	c-8.3-16.8-15.2-39-16.9-54.7c-0.1-0.8-0.2-1.3-0.3-1.9c-0.4-3.5,1.1-7.3,23.6-69.5c3-8.3,7.3-20.2,9.5-26.4
	c12.1-33.6,25.7-71,26-71.3c0.2-0.2,0.3,82.9,0.3,184.6l0,181.5H681.7z M561.2,481.3c0.7-0.2,2,1.8,4.7,5.6l3.1,4.4l-4.3,5.5
	l-4.3,5.5v-11.2C560.5,484.6,560.5,481.6,561.2,481.3z M571.3,379.5c0.5-0.7,1.1-1.2,1.3-1.2c0.2,0,2.5,2.8,5.1,6.1
	c2.7,3.6,4.4,6.6,4.1,7.3c-0.6,1.6-8.6,12.4-9.2,12.4c-0.6,0-8.5-10.8-9.2-12.4c-0.3-0.7,1.1-3.4,3.3-6.2
	C568.8,382.9,570.9,380.2,571.3,379.5z M562.5,345.8c-0.4-0.9,9.1-14,10.1-14.1c0.2,0,2.6,2.8,5.2,6.2c2.6,3.4,4.9,6.5,5,6.9
	c0.4,0.9-9.3,14.1-10.2,14.1C571.9,358.9,563.3,347.7,562.5,345.8z M572.8,423.5c0.4,0.1,3,3.3,5.9,7.2l5.2,6.9l0,13.4
	c0,7.3-0.3,13-0.7,12.5c-0.4-0.5-5.1-6.9-10.4-14.4l-9.7-13.6l4.5-6.1C570.1,426,572.4,423.4,572.8,423.5z M581.7,416.4l-2.1-2.9
	l1.9-2.4c1.1-1.3,2-2.4,2.1-2.5c0.1,0,0.2,2.4,0.2,5.3v5.4L581.7,416.4z M581.7,371.5l-2.2-2.6l1.9-2.6c1.1-1.4,2.1-2.6,2.2-2.6
	c0.1,0,0.3,2.4,0.3,5.3v5.3L581.7,371.5z M581.6,324.8l-2.2-2.7l2-2.6c1.1-1.4,2.1-2.6,2.2-2.6c0.1,0,0.2,2.3,0.2,5.2v5.3
	L581.6,324.8z M576.2,275.8c-4-4.7-7.4-9.1-7.6-9.7c-0.2-0.6,0.3-2,1.2-3.2c1.5-2,1.7-2,3.1-0.7c0.9,0.8,3.7,4,6.3,7.2
	c4.6,5.6,4.8,6,4.5,10.4l-0.3,4.6L576.2,275.8z M582.1,255.9c-3.5-3.2-3.7-4.5-1.1-8.6c1.3-2.1,2.5-3.8,2.6-3.8c0.1,0,0.2,3.2,0.2,7
	v7.1L582.1,255.9z M577.3,233.4l-6.6,9.2l-1.6-2c-0.9-1.1-1.3-2.4-1-2.9c1.2-1.9,15.3-21.9,15.5-22c0.1,0,0.2,1.9,0.2,4.2
	C583.9,223.8,583.3,225,577.3,233.4z M582.1,300.1c0,0.7-9,12.5-9.5,12.5c-0.3,0-3.1-3.4-6.3-7.6l-5.8-7.5l0-11c0-6.1,0.2-11,0.4-11
	c0.2,0,1.9,1.7,3.8,3.7C569.5,284.3,582.1,299.6,582.1,300.1z M562.6,254.3c-0.8,1.2-1.6,2.2-1.7,2.2c-0.2,0-0.3-1.8-0.3-3.9
	c0-4.2,0.7-4.9,2.4-2.2C563.8,251.8,563.8,252.5,562.6,254.3z M560.5,322.1l0-6.5l2.5,3c1.4,1.7,2.5,3.2,2.5,3.5
	c0,0.2-1.2,1.8-2.6,3.4l-2.6,3L560.5,322.1z M560.5,368.8l0-6.5l2.5,3c1.4,1.7,2.5,3.2,2.5,3.5c0,0.2-1.2,1.8-2.6,3.4l-2.6,3
	L560.5,368.8z M560.5,413.8l0-6.5l2.5,3c1.4,1.7,2.5,3.2,2.5,3.5c0,0.2-1.2,1.8-2.6,3.4l-2.6,3L560.5,413.8z M560.9,451
	c0.2,0.2,5.4,7.6,11.7,16.4c11.2,15.8,11.3,16.1,11.3,20.7c0,2.8-0.3,4.4-0.8,3.9c-0.4-0.5-5.7-7.7-11.7-16.1l-10.9-15.3v-5
	C560.5,452.9,560.7,450.8,560.9,451z M583.9,516.7v4.6l-5.6-7.6c-3.1-4.2-5.6-7.9-5.6-8.1c0-0.7,2.6-4.4,3-4.4
	c0.2,0,2.1,2.5,4.3,5.5C583.4,511.5,583.9,512.7,583.9,516.7z M561,564.7l-0.2-22.3c-0.2-22.1-0.2-22.4,1.7-24.8
	c1.1-1.4,2.2-2.5,2.6-2.5c0.3,0,4.1,4.7,8.5,10.5c4.3,5.8,7.7,11.2,7.5,11.9c-0.2,0.7-4.8,7.1-10.2,14.3L561,564.7z M634.5,583.8
	c2.8,1.7,6.2,3.8,7.5,4.5c1.3,0.8,2.4,1.7,2.4,2c0,0.4-13.1,0.6-29.2,0.6l-29.2,0l-5.8-4.5c-3.2-2.5-5.8-4.8-5.8-5.2
	c0-0.4,12.3-0.6,27.5-0.6h27.5L634.5,583.8z M589.2,546.3c0.3,0.1,4.2,3.7,8.7,8c4.4,4.3,10.2,9.6,12.8,11.9l4.8,4.1l-22.3,0
	c-12.3,0-22.2-0.3-22.1-0.6C571.9,567.7,588.7,546.1,589.2,546.3z M583.4,179.2l0.2,8.8l0.2,8.8l-10.3,14.5
	c-5.7,8-10.9,15.3-11.7,16.2c-1.3,1.6-1.4,1.1-1.4-6.5l0-8.2L572,196L583.4,179.2z M513.1,225.2l1.8-5.3l2.9,2.8
	c1.6,1.6,2.9,3.3,2.9,3.8c0,0.8-7,3.9-8.8,3.9C511.6,230.5,512.1,228.1,513.1,225.2z M487.7,300c1.7-4.8,3.9-8.9,7.6-13.6
	c18.7-24.4,20.4-26.4,22.9-26.9c1.4-0.3,2.8-0.9,3.1-1.4c0.3-0.5,0.7-0.6,1-0.4c0.3,0.3-1.1,2.5-2.9,5c-1.9,2.5-10.2,13.6-18.4,24.7
	c-8.2,11.1-15.1,20-15.3,19.8C485.4,307,486.4,303.8,487.7,300z M467,360.6c0.8-2.1,1.7-3.8,2-3.7c0.3,0.1,3.9,4.5,8,9.7
	c7.9,10.1,7.9,10.1,5.3,16.3l-1.1,2.7l-7.8-10.5l-7.8-10.5L467,360.6z M457.2,389.2c1.8-5,2.4-7.2,3.2-7.3c0.8-0.1,1.7,1.5,3.8,4.4
	c2.2,3,5.3,7.2,6.9,9.2l2.8,3.7l-2.8,5.1c-1.5,2.8-3,5.1-3.3,5.1c-0.3,0-3.2-3.6-6.4-7.9l-5.9-8L457.2,389.2z M464.2,421.3
	c-0.7,2-1.7,6.5-2.4,10.1c-0.6,3.6-1.3,6.6-1.6,6.6c-0.7,0-5-18.2-5.6-23.3c-0.2-2.1-0.6-6-0.9-8.6c-0.6-5.9,0-5.4,6.8,4.5l4.9,7.2
	L464.2,421.3z M479.5,481.2c-0.5,0-3.7-5.6-7-12.4l-6.2-12.4l0-7.3c0-8,2.3-22.7,3.5-22c0.4,0.2,1.9,3.5,3.3,7.2
	c1.4,3.7,3.4,10.6,4.3,15.3C479.4,459.7,480.8,481.2,479.5,481.2z M472.9,415.8c0-1.1,5.7-12.5,6-12.2c0.1,0.1,1.2,4.7,2.4,10.1
	c1.2,5.5,2.8,11.8,3.5,14.2c0.7,2.4,1.2,4.4,1.1,4.5C485.4,433,472.9,416.9,472.9,415.8z M514,488.6c1.1,1.4,3.9,4.9,6.2,7.8
	c2.3,2.9,5.5,6.6,7.1,8.4l3,3.2v20.8c0,13.5-0.3,20.8-0.9,20.8c-0.5,0-4.1-3.3-8.1-7.3L514,535l-0.4-22.4c-0.2-12.3-0.7-23.3-1-24.5
	C512,486.1,512.1,486.1,514,488.6z M505.2,486.1c1.6,6.3,2,10.7,2.3,23.7l0.4,16l-2.2-3.2c-2-2.9-2.2-3.9-2.2-12.1
	c0-9.2-1.4-31.2-2.2-35.2C500.2,470.1,503.3,478.5,505.2,486.1z M489.8,498.5c-0.4,0-1.4-1.3-2.1-2.8c-1.2-2.3-1.5-6.2-1.6-21.3
	l-0.2-18.5l1.5,6.4c0.8,3.5,1.9,11.8,2.4,18.5C490.7,495.6,490.7,498.5,489.8,498.5z M490.9,359.3c-0.8,2.4-1.7,4.3-2,4.3
	c-0.6,0-10.2-12.6-12.3-16.1c-1-1.6-0.8-2.2,1.3-5.1c2-2.6,2.6-3,3.4-2c0.5,0.7,3.2,4.2,6,7.9l5,6.7L490.9,359.3z M507.2,313.9
	c-3.6,10-7.3,20.4-8.3,23.1c-1,2.7-2,5-2.3,5c-0.8,0-8.8-10.9-8.8-12c0-1,25.2-34.8,25.6-34.4C513.6,295.7,510.8,304,507.2,313.9z
	 M523,270.3c-0.9,2.5-45,62.2-45.9,62.2c-1.3,0,2.1-5.4,10.5-16.6c5.2-6.9,15.3-20.6,22.6-30.4c7.3-9.8,13.4-17.8,13.5-17.8
	C523.9,267.6,523.6,268.8,523,270.3z M532.7,241.3c-0.5,0.5-24.2,10.2-27.3,11.2l-1.9,0.6l1.5-4.1c0.5-1.3,0.8-2.2,1.3-2.9
	c1.3-1.8,3.8-2.8,12.7-6.4c9.1-3.6,9.6-3.7,12.1-1C532.2,239.9,532.9,241,532.7,241.3z M539.2,225.5c-0.4,1.5-1.2,2.8-1.7,2.8
	c-0.5,0-4.8-4.7-9.5-10.4c-8.3-10-8.6-10.5-7.8-13.2c0.4-1.5,1.1-2.8,1.5-2.8s4.6,4.7,9.5,10.4C539.6,222.4,540,222.9,539.2,225.5z
	 M544.5,210.4c-0.6,0.7-16.9-19-16.6-20c0.3-0.9,33.8-30.7,34.2-30.4c0.1,0.1-2.7,8.5-6.2,18.7C548.5,199.8,544.9,210,544.5,210.4z"
	/>
<path class="st0" d="M244.3,309.6c-4.5-13.3-9.9-29.1-12-35c-2.1-5.9-9.6-28.1-16.8-49.3c-7.2-21.1-13.2-38.5-13.3-38.6
	c-0.7-0.5-30.8-26.8-40-35c-6.2-5.5-12.8-11.4-14.8-13c-1.9-1.7-8.4-7.3-14.3-12.5l-10.7-9.4l-0.2,209.6l-0.2,209.6l-10.2,10
	c-19.9,19.5-44.3,36-76.5,51.5h132.5l0-182.8l0-186.5l2.2,5.6c2.5,6.5,54,150.8,58,162.5c1.1,3.1,1.1,5.2,0.3,12.5
	c-3.1,28.8-17.5,56.7-45.8,88.6l-7,7.9v43.3c0,23.8,0.3,43.3,0.7,43.3c1.2,0,19.4-18.3,27-27.2c19.2-22.5,33.5-44.4,46.5-71.3
	c15.3-31.7,24.3-64.3,24.3-88c0-7.7-0.1-8.1-10.9-39.7C257.4,348.2,248.8,322.9,244.3,309.6z M257.4,382.4c0.6,1.3,1.7,4.5,2.5,7
	l1.5,4.5l-6.1,8.3l-6.1,8.3l-3.1-6.1c-1.7-3.4-2.8-6.6-2.5-7.2c0.3-0.6,3.3-4.7,6.7-9.1l6-8L257.4,382.4z M202,219.8l1.9,5.1
	c1,2.8,1.8,5.2,1.6,5.4c-0.4,0.4-9.1-2.8-9.1-3.3c0-0.3,1.2-2,2.8-3.8L202,219.8z M133.3,250.7c0-4.6,0.3-8.1,0.7-7.6
	c0.4,0.5,2,2.4,3.5,4.4l2.8,3.6l-2.4,2.9c-2.3,2.7-3.4,4.2-4,4C133.3,257.7,133.3,255.5,133.3,250.7z M137.7,488.6l-4.3,6v-4.9
	c0-4.6,0.3-5.3,5.4-12.5c3-4.2,8.1-11.4,11.5-16.1l6-8.5l0.3,4.5c0.2,3.7-0.1,5.1-2.1,8.1c-1.3,2-4.6,6.7-7.4,10.5
	C144.3,479.4,140.1,485.3,137.7,488.6z M146.2,504.8l-1.9,2.7c-1,1.5-3.9,5.4-6.5,8.6l-4.6,5.9V518c0-3.5,0.6-5,4.5-10.5l4.5-6.4
	l2,1.9L146.2,504.8z M145.8,448.6c-5.1,7.3-10,14.1-10.9,15.3c-1.6,2-1.6,1.8-1.6-11.5v-13.6l5.8-7.7c3.2-4.2,6.1-7.7,6.3-7.7
	c0.3,0,1.7,1.4,3.1,3.2c1.4,1.8,3.4,4.5,4.5,6l2,2.8L145.8,448.6z M133.7,374.9c-0.2,0-0.3-3-0.3-6.7v-6.7l2.7,3.6l2.7,3.6l-2.3,3
	C135,373.5,133.8,374.9,133.7,374.9z M136,410.3c1.4,1.6,2.5,3.2,2.5,3.5s-1.2,1.8-2.6,3.5l-2.5,3l0-6.5l0-6.5L136,410.3z
	 M150.8,397.8l-5,6.6l-2.7-3.1c-1.5-1.7-3.8-4.7-5.1-6.5c-2.3-3.3-2.3-3.4-0.8-5.8c1.6-2.5,8.2-10.6,8.6-10.6c0.1,0,2.4,2.9,5.1,6.5
	l4.9,6.5L150.8,397.8z M154.5,371l-2.1-2.5l1.9-2.4c1-1.3,2-2.4,2.1-2.4c0.1,0,0.2,2.2,0.2,4.9l0,5L154.5,371z M150.9,352.7
	c-3.8,4.9-5.2,6.3-6,5.6c-0.6-0.5-3.1-3.6-5.5-6.9c-4-5.3-4.3-6.1-3.3-7.6c4.7-6.5,9-12.1,9.4-12.1c0.3,0,2.7,2.9,5.4,6.4
	c2.7,3.5,4.9,6.8,4.9,7.3C155.8,345.9,153.6,349.2,150.9,352.7z M136.4,325.2c-1.3,1.7-2.5,3-2.7,3c-0.2,0-0.4-3-0.4-6.7v-6.7
	l2.7,3.6l2.7,3.6L136.4,325.2z M133.7,284.9c-0.2,0-0.4-1.7-0.4-3.8c0-3.5,0.6-4.6,6.6-12.2l6.6-8.4l1.6,2c0.9,1.1,1.5,2.3,1.4,2.7
	C149.2,266.1,134.1,284.9,133.7,284.9z M143.9,237.7c-10.1-14.1-10.6-14.9-10.6-19l0-4.2l1.9,2.5c1.1,1.4,6.3,8.7,11.6,16.2
	c9.4,13.3,9.7,13.9,9.7,18.2c0,3.9-0.2,4.3-1.1,2.7C155,253.2,149.8,245.8,143.9,237.7z M142.3,582.2c-1,0.8-4,3.2-6.6,5.2l-4.8,3.7
	l-29.6-0.1c-16.3,0-29.3-0.4-28.9-0.8c0.4-0.4,3.9-2.7,7.7-5.1l6.9-4.4l28.5,0C142.8,580.7,144.1,580.8,142.3,582.2z M124.3,570.3
	c-12.1,0-22-0.3-22-0.6c0-0.4,1.7-1.9,3.8-3.5c2.1-1.6,7.8-6.7,12.7-11.4c4.9-4.7,9.2-8.6,9.4-8.6c0.3,0,4.5,5.2,9.3,11.6
	c4.8,6.4,8.8,11.8,8.8,12.1C146.3,570.1,136.4,570.3,124.3,570.3z M156.5,541.7l-0.2,22.7l-9.9-13.1c-5.5-7.2-9.9-13.5-9.9-14.1
	c0.1-1.4,16-22.2,16.9-22.2c0.4,0,1.3,0.9,2,2C156.5,518.7,156.7,522.5,156.5,541.7z M156.7,491l0,9.7l-2.5-3
	c-4.9-5.8-4.9-6.2-1.2-11.6c1.8-2.6,3.4-4.8,3.6-4.8C156.6,481.3,156.7,485.6,156.7,491z M155.4,417.3c-2.1-1.8-2.4-4.2-0.7-6.5
	c0.9-1.2,1.7-2.2,1.8-2.2c0.1,0,0.2,2.2,0.2,4.8C156.7,417.6,156.5,418.2,155.4,417.3z M155,325.2c-1-0.9-1.7-2.2-1.7-2.9
	c0-1.1,2.3-4.5,3.2-4.5c0.2,0,0.3,2,0.3,4.5C156.7,326.7,156.7,326.7,155,325.2z M156.7,298.5l-5.3,7.1c-2.9,3.9-5.5,7.1-5.8,7
	c-0.9-0.1-9.1-11.2-9.1-12.4c0-1,19-24.7,19.8-24.7c0.2,0,0.4,5.2,0.4,11.5V298.5z M156.7,219.7v8.5L145,211.8l-11.6-16.4l0-9l0-9
	l2.4,3.4c1.3,1.9,6.6,9.5,11.7,16.9l9.2,13.5V219.7z M173.9,209.7c-0.3,0-1-1.1-1.4-2.4c-3-8.3-14.8-42.5-15.3-44.2l-0.6-2l2.5,2.1
	c1.4,1.2,8.5,7.5,15.9,13.9c7.4,6.5,13.8,12.3,14.2,12.9c0.6,0.8-1.5,3.8-6.9,10.3C177.9,205.6,174.2,209.7,173.9,209.7z
	 M180.2,228.8l-1-3c-0.6-1.7-0.7-3.6-0.3-4.3c1.2-2,16.2-19.6,16.8-19.6c0.3,0,0.9,1.3,1.4,2.8c0.8,2.6,0.5,3.2-4.8,9.7
	c-3.1,3.8-7,8.6-8.8,10.6L180.2,228.8z M189,236.5c0.6,0,5.6,1.8,11.2,4c9.4,3.7,10.3,4.3,11.5,7.1c0.7,1.7,1.2,3.5,1,4.1
	c-0.2,0.7-4.9-0.8-14.1-4.5c-7.6-3.1-13.9-5.7-14.1-5.9C184.1,240.8,188,236.5,189,236.5z M198.3,258.9c3.2,1.4,5.7,4.1,16,17.3
	c10.8,13.8,12.5,16.5,14.9,23.1c1.5,4.1,2.6,7.6,2.5,7.7c-0.1,0.1-3.2-3.7-6.8-8.6c-21.4-28.6-27.7-37.1-29-39.1l-1.4-2.2
	L198.3,258.9z M195.1,269.4c0.2,0,3.6,4.4,7.5,9.7c4,5.4,12.8,17.3,19.7,26.6c6.9,9.3,13.4,18.1,14.5,19.6c2.5,3.3,4.6,8.4,2.7,6.3
	c-0.7-0.7-10.4-13.6-21.5-28.5C197.7,276,193.2,269.4,195.1,269.4z M221.2,343.9c-0.3-0.4-2.8-7.3-5.6-15.4c-2.8-8.1-6.3-18-7.8-22
	c-2.8-8-3.6-10.2-3.4-10.3c0.1,0,0.4,0.3,0.8,0.8c0.6,0.7,6.5,8.4,13.1,17.1c6.6,8.7,12.1,16.3,12.3,16.9
	C231.2,332.4,221.9,345,221.2,343.9z M228.4,363.6c-0.3,0-1-1.4-1.5-3.2c-0.9-3-0.8-3.4,2.2-7.6c1.7-2.4,4.5-6.1,6.2-8.2l3-3.8
	l1.9,2.4c1.1,1.3,1.6,2.8,1.3,3.3C234.2,356.8,228.9,363.6,228.4,363.6z M204.2,493.8c-0.5,2.8-0.8,13.4-0.8,23.6l0,18.4l-7.7,7.7
	c-4.2,4.2-8.2,7.7-8.8,7.7c-0.8,0-0.9-4.7-0.4-21.3l0.6-21.3l5.2-5.7c2.8-3.1,6.8-7.7,8.8-10.1c2-2.5,3.7-4.4,3.8-4.3
	C205,488.6,204.7,491,204.2,493.8z M215.5,481.7c-0.4,4.3-0.8,15.2-0.8,24.2l0,16.5l-2.6,3l-2.6,3l0.4-16.9
	c0.3-9.7,0.9-19.1,1.6-22.1c1.7-7.3,4.2-16.1,4.6-15.8C216.2,473.8,215.9,477.5,215.5,481.7z M229.8,502.9l-1.7,3l-0.3-13
	c-0.2-12.5,0.6-23.1,2.6-31.7c0.5-2.3,1-4.1,1-4.1c0,0,0.1,9.6,0.1,21.4C231.5,498.3,231.4,500.1,229.8,502.9z M234.2,380.8
	c-0.8-2-1.1-4-0.8-4.6c1.7-2.8,14.5-19.5,14.9-19.5c0.3,0,1,1.4,1.5,3.2c0.3,1,0.5,1.7,0.6,2.4c0.1,2-1.5,4.1-8,12.8l-6.9,9.3
	L234.2,380.8z M237.4,424.1c0.2-0.8,0.9-5.2,1.5-9.9l1.1-8.5l2.4,5.1c1.7,3.5,2.1,5.5,1.6,6.4C242.6,419.6,236.9,425.5,237.4,424.1z
	 M242.4,480.8l-4.5,7.8l0.4-17.7c0.4-19.1,1.5-25.3,7.2-39.4l2.4-6l1.1,4.3c0.6,2.4,1.5,8.2,1.9,12.9
	C252.5,460.2,251.5,465,242.4,480.8z M263.7,402c0.2,0.2-0.1,5.4-0.6,11.5c-1,11.4-3.9,27.8-5.2,29.1c-0.4,0.4-0.9-1.8-1.3-4.8
	c-0.3-3-1.3-8.4-2.3-11.9c-0.9-3.6-1.7-7.1-1.7-7.9C252.7,416.5,263.1,401.4,263.7,402z"/>
</svg>
