<?xml version="1.0" encoding="utf-8"?>
<!-- Generator: Adobe Illustrator 22.0.1, SVG Export Plug-In . SVG Version: 6.00 Build 0)  -->
<svg version="1.1" id="Слой_1" xmlns="http://www.w3.org/2000/svg" xmlns:xlink="http://www.w3.org/1999/xlink" x="0px" y="0px"
	 viewBox="0 0 449.7 251" style="enable-background:new 0 0 449.7 251;" xml:space="preserve">
<style type="text/css">
	.st0{fill:#3B3B3A;}
</style>
<g>
	<g>
		<path class="st0" d="M195.8,165.1c-2.6,0.3-5.2,0.3-7.7,0.1c-4.3-0.4-8.6-1.1-12.7-2.5c-2.3-0.7-4.6-1.6-6.8-2.6
			c-4.5-2-8.6-4.5-12.5-7.4c-4.2-3.2-7.9-7-11.1-11.1c-4.8-6.2-9.9-12.2-15.5-17.7c-4.4-4.3-9.2-8.2-14.5-11.3
			c-3.1-1.8-6.3-3.4-9.6-4.7c-2.3-0.9-4.5-1.8-6.8-2.5c-0.7-0.2-0.9-0.7-1-1.3c-0.8-5.2,2.6-11,7.4-13.1c2.8-1.2,5.6-1.2,8.5-0.7
			c3.5,0.7,6.7,2.3,9.8,4c1.4,0.8,2.8,1.5,4.2,2.2c2.1,1.2,4.3,2.4,6.5,3.5c2.2,1,4.5,2,7,2c2.7,0,4.8-1.1,6.6-3.1
			c1.5-1.7,2.7-3.7,3.6-5.8c1-2.1,1.7-4.4,2.4-6.6c1.1-3.5,1.9-7,2.8-10.6c0.8-3.3,1.5-6.7,2.2-10.1c0.8-3.6,1.6-7.3,2.4-10.9
			c0.8-3.5,1.7-6.9,2.6-10.3c0.8-2.9,1.7-5.8,2.8-8.7c0.9-2.2,1.8-4.3,3.3-6.2c1.1-1.5,2.4-2.9,4.4-3.2c3.1-0.5,5.5,1.3,5.8,4.4
			c0.2,1.9-0.1,3.8-0.5,5.7c-0.7,3.4-1.3,6.7-2,10.1c-0.4,2.2-0.8,4.3-1.2,6.5c-0.2,1.1-0.5,2.1-0.7,3.2c-0.2,1.2-0.3,2.3-0.4,3.5
			c-0.7,4.7-1.4,9.4-2,14.1c-0.6,5.2-1.2,10.4-1.5,15.6c-0.5,6.6-0.6,13.3-0.3,19.9c0.1,2.4,0.1,4.8,0.6,7.1c0,0.2,0,0.3-0.1,0.4
			c-0.2,0.2-0.3,0-0.4-0.1c-1-0.7-2.1-1.3-3.2-1.8c-4.2-1.8-8.6-2-12.3,2.1c-1.7,1.8-2.9,4-3.2,6.5c-0.2,1.8-0.1,3.6,0.3,5.4
			c0.8,3.7,2.5,6.9,4.7,9.9c1.6,2.3,3.4,4.4,5.4,6.3c2.3,2.2,4.7,4.2,7.2,6.1c5.1,3.8,10.7,6.9,16.4,9.7c2.8,1.3,5.7,2.6,8.6,3.7
			C195.4,164.9,195.6,165,195.8,165.1z"/>
		<path class="st0" d="M134.6,65.3c7.2-0.3,12.5,5.8,12.5,12.1c0,7.3-5.5,12.7-12.4,12.8c-7,0-11.6-5.2-12.2-10
			c-0.6-4.2,0.2-8.2,3.4-11.3C128.3,66.5,131.2,65.2,134.6,65.3z"/>
		<path class="st0" d="M245.3,62.5c-0.7-1.7-1.8-2.3-3.5-2c-1,0.2-1.6,0.9-2.2,1.7c-2.1,2.7-3.2,5.9-4.3,9
			c-1.7,4.6-3.1,9.2-5.1,13.7c-1,2.1-2,4.3-3.9,5.8c-1.7,1.4-4.1,1.3-5.2-0.4c-0.7-1-1-2.1-1.1-3.4c-0.2-4.6,0.6-9.1,1.5-13.5l1-4.8
			c0.2-1,0.4-1.9,0.6-3c0,0,0,0,0,0l2.3-11.2l0,0c0.8-3.7,1.2-7.8,1-11.2c-0.1-1.2-0.3-2.3-0.8-3.3c-1.2-2.3-3.9-2.4-5.7-1.2
			c-1.8,1.3-2.9,3.2-3.9,5.1c-1.6,2.9-2.8,6-3.9,9.2c-0.8,2.1-1.4,4.2-2.1,6.4c-0.9,2.8-1.7,5.6-2.6,8.3c-0.9,2.7-1.7,5.4-2.9,8
			c-0.9,2.1-1.7,4.3-3.9,5.8c-0.6,0.4-1.5,0.2-1.9-0.3c-1.1-1.3-1.7-2.8-1.8-4.3c0.1-0.2,0.1-0.5-0.1-0.6c0-0.4-0.1-0.8-0.1-1.2
			c0.1-1.8,0.1-3.5,0-5.3c0-0.4,0.1-0.9,0.1-1.4c0.3-0.5,0.2-1.1,0.2-1.6c0-0.6,0.1-1.2,0.1-1.7c0.3-0.3,0.3-0.5,0-0.7
			c0.2-0.2,0.2-0.6,0.3-0.9c0.3-0.2,0.2-0.5,0.2-0.8c0-1.2,0.3-2.3,0.5-3.5c0.5-3.2,1.1-6.3,1.7-9.5c0.4-2,0.9-3.9,1.3-5.9
			c0.6-2.6,1.2-5.1,1.9-7.7c0.4-1.7,0.8-3.4,1.2-5c0.2-0.1,0.2-0.2,0.1-0.3c0-0.3,0.1-0.7,0.1-1l0,0c0.3-0.9,0.3-1.8,0-2.7
			c0-0.6-0.1-1.1-0.3-1.6c-1.1-3.4-3.5-4.3-6.4-2.7c-2.1,1.1-3.5,3-4.6,5c-1.7,3.2-3.2,6.6-4.5,10c-0.8,2.2-1.7,4.4-2.3,6.6
			c-0.4,1.5-0.8,3-1.3,4.5c-0.8,2.4-1.3,4.8-2,7.2c-0.6,2.3-0.9,4.7-1.4,7c-0.8,3.6-1.4,7.2-2,10.9c-0.7,4.1-1.3,8.1-1.8,12.2
			c-0.5,4.6-1.1,9.2-1.2,13.8c-0.2,0.2-0.2,0.5-0.1,0.7c0,0.4-0.1,0.8,0,1.2c0,0.8-0.4,1.6-0.2,2.4c0,0.2,0,0.5,0,0.7
			c0,0.3,0,0.7,0,1c-0.2,1-0.1,1.9-0.1,2.9c0,2.5,0,5,0,7.6c0.5-0.2,0.5-0.3,1-0.9c1.2-1.6,2.6-3.2,4.2-4.5c2.8-2.3,5.9-4,9.3-4.5
			c3.5-0.6,6.6,0.4,9.1,3c1.4,1.5,2.1,3.3,2.6,5.2c0.7,2.4,0.4,4.9-0.1,7.3c-0.5,2.1-1.1,4.1-1.9,6.1l-3.9,8.7h0
			c-0.4,0.8-0.7,1.6-1.1,2.4c-0.9,1.9-1.8,3.7-2.3,5.7c-0.6,2.5-0.9,5.1-0.4,7.8c0.6,3.8,2.4,6.7,5.7,8.6c3.3,1.9,6.8,1.8,10.4,0.7
			c1.3-0.4,2.4-1,3.6-1.7c1.3-0.7,2.4-1.5,3.4-2.5c1.6-1.5,3.1-3.1,4.3-5c0.9-1.4,1.9-2.7,2.7-4.2c2-3.5,3.7-7.1,5.5-10.7
			c0.4-0.7,0.9-2.2,1.3-2.9c0.4-0.9,0.9-1.6,1.2-2.5c0.7-2.2,1.7-4.2,2.5-6.4c0.3-0.8,0.6-1.7,1-2.5c0.9-2.2,1.6-4.6,2.4-6.8
			c0.6-1.6,1.2-3.2,1.6-4.8c0.6-2,1.2-3.9,1.7-5.9c0.7-2.7,1.5-5.3,2.2-8c1.2-4.7,2.3-9.5,3.1-14.3c0.8-4.4,1.4-8.9,1.5-13.4
			C246.4,67.8,246.5,65.1,245.3,62.5z"/>
		<g>
			<g>
				<path class="st0" d="M239.1,173.9c-1.1,0-2-0.3-2.6-0.9c-0.6-0.6-0.9-1.5-0.9-2.7v-20.8c0-1.2,0.3-2.1,0.9-2.7
					c0.6-0.6,1.5-0.9,2.6-0.9c1.2,0,2.1,0.3,2.7,0.9c0.6,0.6,0.9,1.5,0.9,2.7v2.4l-0.4-2c0.4-1.2,1.2-2.2,2.4-3
					c1.2-0.7,2.6-1.1,4.1-1.1c1.7,0,3.3,0.4,4.6,1.3c1.3,0.8,2.3,2,3.1,3.6c0.7,1.5,1.1,3.4,1.1,5.6c0,2.1-0.4,4-1.1,5.6
					c-0.7,1.6-1.8,2.8-3.1,3.6c-1.3,0.8-2.8,1.3-4.6,1.3c-1.5,0-2.8-0.4-4-1.1c-1.2-0.7-2-1.6-2.4-2.8h0.5v7.4c0,1.2-0.3,2.1-1,2.7
					C241.2,173.6,240.3,173.9,239.1,173.9z M246.4,161.4c0.7,0,1.4-0.2,1.9-0.5c0.6-0.4,1-0.9,1.3-1.7c0.3-0.7,0.5-1.7,0.5-2.9
					c0-1.8-0.4-3.1-1.1-3.9c-0.7-0.8-1.6-1.2-2.7-1.2c-0.7,0-1.4,0.2-2,0.5c-0.6,0.4-1,0.9-1.3,1.6c-0.3,0.7-0.5,1.7-0.5,3
					c0,1.8,0.4,3.1,1.1,3.9C244.4,161,245.3,161.4,246.4,161.4z"/>
				<path class="st0" d="M265.1,166.6c-1.1,0-2-0.3-2.6-1c-0.6-0.7-0.9-1.7-0.9-2.9v-12.9c0-1.3,0.3-2.3,0.9-2.9
					c0.6-0.7,1.5-1,2.6-1c1.2,0,2.1,0.3,2.7,1c0.6,0.7,1,1.7,1,2.9v12.9c0,1.3-0.3,2.3-0.9,2.9C267.2,166.3,266.3,166.6,265.1,166.6
					z"/>
				<path class="st0" d="M275.3,171.9c-1,0-1.7-0.3-2.3-0.8c-0.5-0.5-0.8-1.3-0.8-2.4V164c0-2.1,1.1-3.2,3.2-3.2h2.7l-4.3,1.5
					c0.6-0.9,1.1-1.8,1.5-2.8c0.4-0.9,0.7-2,0.8-3.3c0.2-1.2,0.2-2.8,0.2-4.7v-1.4c0-1.3,0.3-2.3,1-3c0.7-0.7,1.7-1,3-1h9.3
					c1.3,0,2.3,0.3,3,1c0.7,0.7,1,1.7,1,3v13.9l-3.4-3.4h3.5c1,0,1.8,0.3,2.4,0.8c0.6,0.6,0.8,1.4,0.8,2.4v4.7c0,2.1-1,3.2-3.1,3.2
					c-1,0-1.8-0.3-2.3-0.8c-0.5-0.5-0.8-1.3-0.8-2.4v-2.5h-12.7v2.5C278.3,170.9,277.3,171.9,275.3,171.9z M281,160.8h5.9v-9.2h-4.5
					v1.9c0,1.3-0.1,2.6-0.4,3.9C281.8,158.8,281.5,159.9,281,160.8z"/>
				<path class="st0" d="M303.7,166.6c-1.1,0-2-0.3-2.7-0.9c-0.6-0.6-1-1.5-1-2.7v-13.5c0-1.2,0.3-2.1,1-2.7
					c0.6-0.6,1.5-0.9,2.7-0.9c1.2,0,2.1,0.3,2.7,0.9c0.6,0.6,0.9,1.5,0.9,2.7v3.8h6.4v-3.8c0-1.2,0.3-2.1,0.9-2.7
					c0.6-0.6,1.5-0.9,2.7-0.9c1.1,0,2,0.3,2.7,0.9c0.6,0.6,1,1.5,1,2.7V163c0,1.2-0.3,2.1-1,2.7c-0.6,0.6-1.5,0.9-2.7,0.9
					c-1.2,0-2.1-0.3-2.7-0.9c-0.6-0.6-0.9-1.5-0.9-2.7v-4.1h-6.4v4.1c0,1.2-0.3,2.1-0.9,2.7C305.8,166.3,304.9,166.6,303.7,166.6z"
					/>
				<path class="st0" d="M332.8,166.7c-1.5,0-2.9-0.3-4.1-0.9c-1.2-0.6-2.1-1.3-2.8-2.3c-0.7-1-1-2.1-1-3.4c0-1.5,0.4-2.6,1.1-3.5
					c0.8-0.8,2-1.4,3.7-1.8c1.7-0.4,3.9-0.5,6.7-0.5h2.2v3.4h-2.2c-1.1,0-1.9,0.1-2.6,0.2c-0.7,0.1-1.2,0.4-1.5,0.7
					c-0.3,0.3-0.5,0.7-0.5,1.2c0,0.6,0.2,1.1,0.7,1.5c0.4,0.4,1.1,0.6,1.9,0.6c0.7,0,1.3-0.1,1.8-0.4c0.5-0.3,1-0.7,1.3-1.2
					c0.3-0.5,0.5-1.1,0.5-1.9v-4.7c0-1-0.3-1.7-0.8-2.1c-0.5-0.4-1.4-0.6-2.6-0.6c-0.7,0-1.4,0.1-2.2,0.2c-0.8,0.1-1.7,0.4-2.7,0.8
					c-0.7,0.3-1.4,0.3-1.9,0.1c-0.5-0.2-0.9-0.5-1.2-1c-0.3-0.5-0.4-1-0.4-1.5c0-0.5,0.2-1.1,0.5-1.5c0.3-0.5,0.9-0.9,1.6-1.1
					c1.3-0.5,2.5-0.8,3.6-1c1.1-0.2,2.1-0.2,3-0.2c2.2,0,4.1,0.3,5.5,1c1.5,0.6,2.5,1.6,3.3,2.9c0.7,1.3,1.1,3,1.1,5.1v8.2
					c0,1.2-0.3,2.1-0.9,2.7c-0.6,0.6-1.4,0.9-2.5,0.9c-1.1,0-2-0.3-2.5-0.9c-0.6-0.6-0.9-1.5-0.9-2.7v-1.1l0.2,0.6
					c-0.1,0.9-0.4,1.6-0.9,2.2c-0.5,0.6-1.1,1.1-1.9,1.5C334.7,166.5,333.8,166.7,332.8,166.7z"/>
				<path class="st0" d="M191.5,198.1c-2.9,0-5.5-0.6-7.7-1.9c-2.2-1.2-3.9-3-5.1-5.2c-1.2-2.2-1.8-4.8-1.8-7.8c0-2.2,0.3-4.2,1-6.1
					c0.7-1.8,1.7-3.4,3-4.7c1.3-1.3,2.8-2.3,4.6-3c1.8-0.7,3.8-1,5.9-1c2.9,0,5.4,0.6,7.6,1.8c2.2,1.2,3.9,2.9,5.1,5.1
					c1.2,2.2,1.8,4.8,1.8,7.8c0,2.2-0.3,4.2-1,6.1c-0.7,1.8-1.7,3.4-3,4.7c-1.3,1.3-2.8,2.3-4.6,3
					C195.6,197.8,193.6,198.1,191.5,198.1z M191.5,191.9c1.4,0,2.7-0.3,3.7-1c1-0.7,1.8-1.7,2.3-2.9c0.5-1.3,0.8-2.8,0.8-4.6
					c0-2.7-0.6-4.8-1.8-6.3c-1.2-1.5-2.9-2.2-5-2.2c-1.4,0-2.6,0.3-3.6,1c-1,0.7-1.8,1.6-2.3,2.9c-0.5,1.3-0.8,2.8-0.8,4.6
					c0,2.7,0.6,4.8,1.8,6.3C187.6,191.1,189.3,191.9,191.5,191.9z"/>
				<path class="st0" d="M220.8,198.1c-2.3,0-4.3-0.4-6-1.3c-1.7-0.9-3-2.2-3.9-4c-0.9-1.8-1.4-4-1.4-6.6v-2.8c0-2.7,0.5-5,1.4-6.9
					c0.9-1.9,2.3-3.4,4-4.5c1.8-1.1,4-1.9,6.6-2.5l4.4-0.9c1-0.2,1.8-0.1,2.5,0.2c0.7,0.4,1.1,1,1.3,2c0.2,1,0,1.7-0.4,2.3
					c-0.5,0.6-1.2,1-2.2,1.2l-5,1c-1.2,0.2-2.3,0.6-3.2,1.2c-0.9,0.5-1.5,1.2-2,2.1c-0.4,0.9-0.7,1.9-0.7,3.1v2.9h-0.9
					c0.2-1.1,0.6-2.2,1.3-3.2c0.6-1,1.5-1.8,2.5-2.3c1.1-0.6,2.4-0.9,4-0.9c1.6,0,3,0.4,4.3,1.2c1.3,0.8,2.3,1.9,3,3.3
					c0.7,1.4,1.1,3.1,1.1,5.1c0,2.1-0.4,3.9-1.3,5.5c-0.9,1.5-2.2,2.7-3.8,3.6C224.8,197.7,222.9,198.1,220.8,198.1z M220.5,192.8
					c0.8,0,1.5-0.2,2.1-0.5c0.5-0.4,1-0.9,1.2-1.5c0.3-0.7,0.4-1.5,0.4-2.5c0-1.5-0.3-2.7-1-3.5c-0.6-0.8-1.6-1.2-2.8-1.2
					c-0.8,0-1.5,0.2-2.1,0.5s-1,0.9-1.3,1.5c-0.3,0.7-0.4,1.5-0.4,2.5c0,1.5,0.3,2.7,1,3.5C218.3,192.4,219.3,192.8,220.5,192.8z"/>
				<path class="st0" d="M245.7,198.1c-2.2,0-4.2-0.4-5.8-1.3c-1.7-0.8-2.9-2-3.9-3.6c-0.9-1.6-1.4-3.4-1.4-5.6
					c0-1.6,0.3-3.1,0.8-4.4c0.5-1.3,1.3-2.4,2.2-3.3c1-0.9,2.1-1.6,3.5-2.1c1.4-0.5,2.9-0.7,4.6-0.7c2.2,0,4.2,0.4,5.8,1.3
					c1.7,0.8,2.9,2,3.8,3.6c0.9,1.6,1.4,3.4,1.4,5.6c0,1.6-0.3,3.1-0.8,4.4c-0.5,1.3-1.3,2.4-2.2,3.3c-1,0.9-2.1,1.6-3.5,2.1
					C248.9,197.9,247.3,198.1,245.7,198.1z M245.7,192.8c0.7,0,1.4-0.2,2-0.5c0.6-0.4,1-0.9,1.3-1.7c0.3-0.7,0.5-1.7,0.5-2.9
					c0-1.8-0.4-3.1-1.1-3.9c-0.7-0.8-1.6-1.2-2.7-1.2c-0.7,0-1.4,0.2-2,0.5c-0.6,0.4-1,0.9-1.3,1.6c-0.3,0.7-0.5,1.7-0.5,3
					c0,1.8,0.4,3.1,1.1,3.9C243.7,192.4,244.6,192.8,245.7,192.8z"/>
				<path class="st0" d="M277.6,198.1c-1.1,0-2-0.3-2.6-0.9c-0.6-0.6-0.9-1.5-0.9-2.7v-11.2h-4.2v2.2c0,1.6-0.1,3-0.4,4.4
					c-0.3,1.3-0.6,2.5-1.1,3.6c-0.5,1-1.1,1.9-1.9,2.7c-0.8,0.7-1.7,1.3-2.7,1.8c-0.8,0.3-1.6,0.4-2.2,0.3c-0.7-0.1-1.2-0.5-1.6-0.9
					c-0.4-0.5-0.7-1-0.8-1.6c-0.1-0.6,0-1.2,0.2-1.9c0.3-0.6,0.8-1.1,1.5-1.6c0.5-0.3,0.9-0.7,1.3-1.2c0.3-0.4,0.6-1,0.8-1.5
					c0.2-0.6,0.3-1.2,0.4-1.9c0.1-0.7,0.1-1.4,0.1-2.3v-3.4c0-1.3,0.3-2.3,1-3c0.7-0.7,1.7-1,3-1h10c1.3,0,2.3,0.3,3,1
					c0.7,0.7,1,1.7,1,3v12.7c0,1.2-0.3,2.1-1,2.7C279.6,197.7,278.7,198.1,277.6,198.1z"/>
				<path class="st0" d="M296.5,198.1c-2.2,0-4.2-0.4-5.8-1.3c-1.7-0.8-2.9-2-3.9-3.6c-0.9-1.6-1.4-3.4-1.4-5.6
					c0-1.6,0.3-3.1,0.8-4.4c0.5-1.3,1.3-2.4,2.2-3.3c1-0.9,2.1-1.6,3.5-2.1c1.4-0.5,2.9-0.7,4.6-0.7c2.2,0,4.2,0.4,5.8,1.3
					c1.7,0.8,2.9,2,3.8,3.6c0.9,1.6,1.4,3.4,1.4,5.6c0,1.6-0.3,3.1-0.8,4.4c-0.5,1.3-1.3,2.4-2.2,3.3c-1,0.9-2.1,1.6-3.5,2.1
					C299.7,197.9,298.2,198.1,296.5,198.1z M296.5,192.8c0.7,0,1.4-0.2,2-0.5c0.6-0.4,1-0.9,1.3-1.7c0.3-0.7,0.5-1.7,0.5-2.9
					c0-1.8-0.4-3.1-1.1-3.9c-0.7-0.8-1.6-1.2-2.7-1.2c-0.7,0-1.4,0.2-2,0.5c-0.6,0.4-1,0.9-1.3,1.6c-0.3,0.7-0.5,1.7-0.5,3
					c0,1.8,0.4,3.1,1.1,3.9C294.5,192.4,295.4,192.8,296.5,192.8z"/>
				<path class="st0" d="M315.2,198.1c-1.1,0-2-0.3-2.7-0.9c-0.6-0.6-1-1.5-1-2.7v-13.5c0-1.2,0.3-2.1,1-2.7
					c0.6-0.6,1.5-0.9,2.7-0.9c1.2,0,2.1,0.3,2.7,0.9c0.6,0.6,0.9,1.5,0.9,2.7v3.8h6.4v-3.8c0-1.2,0.3-2.1,0.9-2.7
					c0.6-0.6,1.5-0.9,2.7-0.9c1.1,0,2,0.3,2.7,0.9c0.6,0.6,1,1.5,1,2.7v13.5c0,1.2-0.3,2.1-1,2.7c-0.6,0.6-1.5,0.9-2.7,0.9
					c-1.2,0-2.1-0.3-2.7-0.9s-0.9-1.5-0.9-2.7v-4.1h-6.4v4.1c0,1.2-0.3,2.1-0.9,2.7C317.3,197.7,316.4,198.1,315.2,198.1z"/>
				<path class="st0" d="M340.8,197.7c-1.1,0-2-0.3-2.6-0.9c-0.6-0.6-0.9-1.5-0.9-2.6v-13.3c0-1.2,0.3-2.1,1-2.7
					c0.6-0.6,1.5-0.9,2.7-0.9c1.2,0,2.1,0.3,2.7,0.9c0.6,0.6,0.9,1.5,0.9,2.7v2.8h4.4c2.8,0,4.9,0.6,6.2,1.7
					c1.4,1.1,2.1,2.8,2.1,5.1c0,1.4-0.4,2.7-1.1,3.7c-0.7,1.1-1.7,1.9-2.9,2.5s-2.7,0.9-4.4,0.9H340.8z M344.6,193.1h3
					c1,0,1.7-0.2,2.3-0.6c0.5-0.4,0.8-1.1,0.8-1.9c0-0.8-0.3-1.4-0.8-1.8c-0.5-0.4-1.3-0.5-2.3-0.5h-3V193.1z"/>
			</g>
			<path class="st0" d="M265.1,135.2c2.5-0.1,4.3,2,4.3,4.1c0,2.5-1.9,4.4-4.3,4.4c-2.4,0-4-1.8-4.2-3.4c-0.2-1.4,0.1-2.8,1.2-3.9
				C262.9,135.6,263.9,135.2,265.1,135.2z"/>
		</g>
	</g>
	<g>
		<path class="st0" d="M176.6,224.1h-6.2v-16.8h10.3v1.6h-8.5v5.3h4.5c3.1,0,5.1,2,5.1,5C181.7,222.1,179.7,224.1,176.6,224.1z
			 M176.5,215.8h-4.3v6.7h4.3c2.2,0,3.5-1.2,3.5-3.3C179.9,217.1,178.7,215.8,176.5,215.8z"/>
		<path class="st0" d="M192,224.1V214h-4v4c0,4.9-1.5,6.1-3.6,6.1h-0.8v-1.5h0.4c1,0,2.4-0.3,2.4-5.2v-5h7.3v11.6H192z"/>
		<path class="st0" d="M204.3,224.1V223c-0.9,0.9-1.8,1.3-3.3,1.3c-1.6,0-2.4-0.3-3.2-1.1c-0.6-0.6-0.9-1.4-0.9-2.4
			c0-2.1,1.4-3.4,4-3.4h3.4v-1.1c0-1.7-0.8-2.5-2.9-2.5c-1.4,0-2.2,0.4-2.9,1.3l-1.1-1.1c1-1.3,2.2-1.7,4-1.7c3.1,0,4.6,1.4,4.6,3.9
			v7.9H204.3z M204.3,218.8h-3.2c-1.7,0-2.6,0.7-2.6,2.1c0,1.3,0.8,2,2.6,2c0.9,0,1.8-0.1,2.5-0.8c0.4-0.4,0.6-1,0.6-2V218.8z"/>
		<path class="st0" d="M211.7,214v10.1h-1.7v-11.6h7.2v1.5H211.7z"/>
		<path class="st0" d="M226.7,223c-0.8,0.8-1.9,1.3-3.3,1.3c-1.4,0-2.5-0.5-3.3-1.3c-1.2-1.2-1.4-2.8-1.4-4.6c0-1.8,0.2-3.4,1.4-4.6
			c0.8-0.8,1.9-1.3,3.3-1.3c1.4,0,2.5,0.5,3.3,1.3c1.2,1.2,1.4,2.8,1.4,4.6C228.1,220.1,227.9,221.7,226.7,223z M225.5,214.7
			c-0.6-0.6-1.3-0.8-2.1-0.8c-0.8,0-1.5,0.3-2.1,0.8c-0.8,0.8-0.9,2.3-0.9,3.6c0,1.3,0.1,2.7,0.9,3.6c0.6,0.6,1.3,0.8,2.1,0.8
			c0.8,0,1.5-0.3,2.1-0.8c0.8-0.9,0.9-2.3,0.9-3.6C226.4,217,226.4,215.6,225.5,214.7z"/>
		<path class="st0" d="M239.6,227.6v-3.5h-8.5v3.5h-1.6v-4.9h1.3c0.9-1.9,1.5-3.7,1.5-7.9v-2.2h7.2v10.1h1.7v4.9H239.6z M237.9,214
			H234v2.2c0,3.1-0.6,4.8-1.3,6.5h5.2V214z"/>
		<path class="st0" d="M244,209.2v-1.9h1.9v1.9H244z M244.1,224.1v-11.6h1.7v11.6H244.1z"/>
		<path class="st0" d="M257.4,224.1v-9l-5.9,9h-1.6v-11.6h1.6v8.9l5.9-8.9h1.7v11.6H257.4z M254.5,210.5c-1.9,0-3.2-0.8-3.4-3h1.5
			c0.1,1.2,0.8,1.8,1.9,1.8c1.1,0,1.8-0.6,1.9-1.8h1.5C257.8,209.6,256.4,210.5,254.5,210.5z"/>
		<path class="st0" d="M270.4,224.1v-5.3h-5.5v5.3h-1.6v-11.6h1.6v4.9h5.5v-4.9h1.7v11.6H270.4z"/>
		<path class="st0" d="M283.8,224.1v-9l-5.9,9h-1.6v-11.6h1.6v8.9l5.9-8.9h1.7v11.6H283.8z"/>
		<path class="st0" d="M297.1,224.1v-9l-5.9,9h-1.6v-11.6h1.6v8.9l5.9-8.9h1.7v11.6H297.1z M294.2,210.5c-1.9,0-3.2-0.8-3.4-3h1.5
			c0.1,1.2,0.8,1.8,1.9,1.8c1.1,0,1.8-0.6,1.9-1.8h1.5C297.4,209.6,296.1,210.5,294.2,210.5z"/>
		<path class="st0" d="M315.4,224.3v5h-1.7v-5c-3.6-0.2-5.8-2.1-5.8-6c0-3.8,2.2-5.7,5.8-5.9v-5h1.7v5c3.6,0.2,5.8,2.1,5.8,5.9
			C321.2,222.1,319,224.1,315.4,224.3z M313.8,213.9c-2.9,0.1-4.1,1.9-4.1,4.4c0,2.7,1.4,4.4,4.1,4.4V213.9z M315.4,213.9v8.9
			c2.7-0.1,4.1-1.8,4.1-4.4C319.5,215.8,318.4,214,315.4,213.9z"/>
		<path class="st0" d="M332,223c-0.8,0.8-1.9,1.3-3.3,1.3c-1.4,0-2.5-0.5-3.3-1.3c-1.2-1.2-1.4-2.8-1.4-4.6c0-1.8,0.2-3.4,1.4-4.6
			c0.8-0.8,1.9-1.3,3.3-1.3c1.4,0,2.5,0.5,3.3,1.3c1.2,1.2,1.4,2.8,1.4,4.6C333.4,220.1,333.1,221.7,332,223z M330.8,214.7
			c-0.6-0.6-1.3-0.8-2.1-0.8c-0.8,0-1.5,0.3-2.1,0.8c-0.8,0.8-0.9,2.3-0.9,3.6c0,1.3,0.1,2.7,0.9,3.6c0.6,0.6,1.3,0.8,2.1,0.8
			c0.8,0,1.5-0.3,2.1-0.8c0.8-0.9,0.9-2.3,0.9-3.6C331.7,217,331.6,215.6,330.8,214.7z"/>
		<path class="st0" d="M344.1,224.1v-5.3h-5.5v5.3h-1.6v-11.6h1.6v4.9h5.5v-4.9h1.7v11.6H344.1z"/>
		<path class="st0" d="M358.2,227.6v-3.5h-8.5v3.5h-1.6v-4.9h1.3c0.9-1.9,1.5-3.7,1.5-7.9v-2.2h7.2v10.1h1.7v4.9H358.2z M356.5,214
			h-3.9v2.2c0,3.1-0.6,4.8-1.3,6.5h5.2V214z"/>
	</g>
</g>
</svg>
