<?xml version="1.0" encoding="UTF-8"?>
<!DOCTYPE svg PUBLIC "-//W3C//DTD SVG 1.1//EN" "http://www.w3.org/Graphics/SVG/1.1/DTD/svg11.dtd">
<!-- Creator: CorelDRAW 2020 (64-Bit) -->
<svg xmlns="http://www.w3.org/2000/svg" xml:space="preserve" width="84.6666mm" height="57.4234mm" version="1.1" style="shape-rendering:geometricPrecision; text-rendering:geometricPrecision; image-rendering:optimizeQuality; fill-rule:evenodd; clip-rule:evenodd"
viewBox="0 0 8466.66 5742.34"
 xmlns:xlink="http://www.w3.org/1999/xlink"
 xmlns:xodm="http://www.corel.com/coreldraw/odm/2003">
 <defs>
  <style type="text/css">
   <![CDATA[
    .fil1 {fill:#009C8C;fill-rule:nonzero}
    .fil0 {fill:#0079B6;fill-rule:nonzero}
   ]]>
  </style>
 </defs>
 <g id="Layer_x0020_1">
  <metadata id="CorelCorpID_0Corel-Layer"/>
  <g id="_2285119192288">
   <path class="fil0" d="M3203.25 4674.5c-84.9,8.94 -169.35,10.38 -252.48,2.19 -140.23,-13.77 -279.59,-37.47 -414.15,-80.98 -74.96,-24.21 -148.45,-53 -220.82,-84.97 -145.35,-64.2 -280.42,-145.52 -406.23,-241.44 -136.88,-104.37 -256.2,-227.22 -361.83,-363.34 -157.06,-202.38 -321.2,-398.69 -506.06,-576.61 -144.45,-139.06 -298.58,-266.38 -471.21,-369.34 -99.97,-59.64 -204.5,-110.58 -313,-153.45 -73.32,-28.96 -146.72,-57.75 -221.85,-81.69 -21.38,-6.83 -29.09,-22.16 -32.03,-41.93 -25.04,-168.57 83.67,-358.66 240.25,-427.71 90.57,-39.97 182.74,-39.41 276.35,-22.2 115.17,21.21 217.79,74.24 318.63,131.21 44.88,25.33 91.63,47.37 136.16,73.25 69.06,40.09 138.66,79.09 211.24,112.53 72.33,33.33 145.21,64.51 227.24,64.92 87.36,0.47 157.02,-35.31 214.13,-99.58 50.43,-56.76 86.53,-122.19 118.32,-190.5 32.45,-69.7 55.68,-142.68 79.58,-215.6 37.06,-112.97 61.31,-229.15 90.5,-344.07 27.7,-109.01 48.09,-219.73 72.2,-329.53 26.12,-118.77 51.42,-237.72 79.12,-356.19 26.37,-112.84 53.8,-225.4 84.02,-337.21 25.82,-95.66 55.73,-190.46 92.65,-282.5 28.35,-70.65 59.76,-141.25 106.34,-201.62 36.65,-47.55 77.8,-93.44 144.43,-103.38 100.03,-14.93 178.27,40.91 189.64,143.02 7,62.87 -2.79,124.89 -15.74,186.74 -22.92,109.66 -43.85,219.76 -65.09,329.76 -13.56,70.16 -27.67,140.26 -38.56,210.85 -5.4,35.08 -16.98,69.3 -21.38,103.04 -4.92,37.6 -8.54,76.06 -14.34,113.93 -23.49,153.13 -45.84,306.44 -64.68,460.22 -20.73,169.12 -37.54,338.64 -49.7,508.61 -15.47,216.28 -18.98,432.91 -11.37,649.49 2.74,77.28 3.28,155.14 18.07,231.61 1.02,5.09 0.88,8.71 -2.36,12.09 -5.39,5.68 -8.94,0.99 -13.55,-2.15 -32.96,-22.68 -67.69,-42.11 -104.5,-58.13 -136.99,-59.59 -279.67,-66.18 -399.79,67.32 -53.85,59.83 -94.02,131.27 -102.92,212.99 -6.32,57.72 -3.8,116.71 9.08,174.62 26.5,119.57 82.41,224.79 151.98,324.13 52.21,74.55 110.74,143.61 176.25,206.41 74.31,71.31 152.08,138.55 235.06,200.09 167.38,124.08 347.21,226.08 534.67,315.97 91.56,43.88 184.28,84.6 279.64,119.5 6.35,2.32 12.08,6.35 18.09,9.63z"/>
   <path class="fil0" d="M1209.89 1420.6c234,-9.02 407.02,189.4 408.11,393.76 1.26,238.99 -178.31,414.53 -405.65,415.69 -228.98,1.19 -376.92,-170.18 -399.02,-324.4 -19.7,-137.36 6.36,-265.91 110.75,-368.19 79.3,-77.69 173.35,-119.9 285.81,-116.86z"/>
   <path class="fil1" d="M4817.92 1327.63c-24.12,-56.25 -59.73,-76.36 -115.3,-63.94 -32.37,7.25 -52.25,30.71 -70.66,54.24 -68.58,87.63 -102.72,192.54 -140.8,294.66 -55.36,148.56 -100.04,301.17 -165.53,445.88 -31.56,69.73 -66.12,138.61 -126.84,189.53 -56.31,47.24 -132.75,43.13 -170.62,-12.05 -22.13,-32.34 -33.57,-69.13 -35.55,-109.52 -7.28,-150.1 18.98,-296.03 47.75,-441.65l31.17 -154.84c6.45,-31.11 13.18,-62.9 20.05,-96.2 -0.28,0.13 -0.52,0.24 -0.82,0.37l73.39 -365.01c27.52,-119.83 39.17,-255.34 32.62,-364.76 -2.3,-37.64 -10.32,-73.43 -27.56,-107.75 -37.95,-75.37 -127.29,-79.23 -185.52,-38.73 -59.86,41.63 -93.74,103.68 -127.68,165.57 -52.26,95.27 -89.72,196.91 -127.01,298.48 -25.04,68.23 -46.35,137.86 -68.04,207.29 -28.34,90.71 -55.76,181.82 -85,272.13 -28.31,87.56 -56.69,175.77 -94.26,260.26 -24.9,56 -46.16,114.16 -90.46,159.41 -42.63,43.52 -90.4,38.25 -121.72,-13.79 -20.14,-33.47 -31.69,-69.6 -35.45,-108.33 2.23,-7.75 2.97,-15.2 -4.27,-21.04 -0.98,-13.11 -1.94,-26.29 -2.93,-39.47 2.39,-57.27 3.38,-114.58 0.14,-171.88 0.98,-14.69 1.98,-29.35 2.93,-44.06 8.82,-16.98 5.85,-35.35 6.12,-53.38 0.96,-18.79 1.94,-37.6 2.9,-56.46 9.19,-8.19 10.76,-16.21 -0.51,-23.97 7.65,-7.99 6.42,-18.61 8.29,-28.34 8.2,-7.82 5.81,-17.63 5.06,-27.16 1.16,-38.51 10.9,-75.78 16.43,-113.65 15.09,-103.41 35.76,-205.69 56.1,-308.07 12.78,-64.35 27.74,-128.28 42.7,-192.15 19.67,-83.97 40.26,-167.78 60.51,-251.61 13.28,-54.88 26.67,-109.73 39.99,-164.59 7.35,-2.11 6.77,-5.9 2.26,-10.58 1.4,-10.62 2.79,-21.25 4.2,-31.89 9.01,-29 11.02,-57.99 0.07,-87.02 0.85,-18.34 -3.52,-36 -8.92,-53.11 -34.59,-109.52 -114.58,-140.36 -209.52,-88.72 -67.51,36.71 -114.4,97.57 -149.99,163.89 -56.42,105.04 -104.98,214.1 -145.31,326.62 -23.8,66.39 -49.97,131.92 -69.57,199.82 -16.08,55.7 -30.97,111.98 -48.76,166.9 -24.5,75.57 -42.56,152.65 -62.77,229.12 -19.95,75.27 -30.67,152.96 -47.17,229.22 -25.27,117.04 -45.53,234.96 -66.08,352.89 -23.98,137.59 -43.51,275.9 -59.46,414.48 -16.56,144.16 -33.19,288.52 -37.8,433.76 -6.39,7.1 -6.08,15.27 -3.77,23.81 -0.57,13.52 -3.4,27.14 0.45,40.67 -0.07,25.92 -14.2,50.54 -7,77.18 -0.27,7.38 -0.58,14.89 -0.89,22.37 0.07,10.83 0.15,21.62 0.21,32.48 -5.87,31.28 -2.05,62.94 -2.36,94.39 -0.85,81.83 -0.31,163.65 -0.31,246.44 17.28,-8.61 17.77,-8.27 38.98,-37.3 60,-82.09 134.03,-147.67 220.78,-201.35 66.04,-40.88 135.65,-69.5 211.26,-81.52 114.55,-18.2 213.55,14.44 295.82,98.15 47.12,47.98 67.45,108.87 84.25,170.14 21.52,78.55 12.49,159.18 -4.5,237.42 -14.8,68.06 -36.07,134.42 -60.87,199.55l-126.16 284.58 0.04 0c-11.95,25.68 -23.87,51.36 -36.3,76.8 -29.54,60.31 -59.63,121.48 -74.24,186.37 -18.68,82.99 -29.27,167.16 -14.48,254.32 20.86,122.87 79.84,216.86 186.9,278.81 108.5,62.74 222.98,58.36 338.79,21.75 41.28,-13.01 78.13,-34.14 115.87,-55.26 40.98,-22.94 79.03,-50.19 111.4,-81.55 51.19,-49.55 100.92,-101.39 140.6,-162.15 29.4,-45.15 61.07,-89.16 87.63,-135.82 44.06,-77.41 84.56,-156.95 123.97,-236.83 32.55,-65.95 66.84,-131.18 93.06,-200.09 11.69,-30.78 30.98,-58.64 41.09,-89.31 21.75,-66.32 51.36,-129.4 75.92,-194.53 12.97,-34.35 26.26,-69.05 39.71,-103.37 27.47,-69.84 48.06,-142.34 74.35,-212.63 19.23,-51.39 37.88,-103.65 52.87,-155.69 18.44,-63.97 40.16,-127.18 55.94,-192.1 21.31,-87.5 50.34,-173.04 72.27,-260.4 38.61,-153.82 74.31,-308.25 101.42,-464.7 25.17,-145.04 47.13,-290.25 49.8,-437.62 1.57,-89.23 3.11,-178.88 -33.3,-263.81z"/>
   <path class="fil0" d="M4853.37 4551.3c23.87,0 44.88,-5.98 63.04,-17.9 18.14,-11.95 32.51,-30.04 43.11,-54.4 10.64,-24.31 15.94,-55.94 15.94,-94.9 0,-59.26 -11.51,-101.95 -34.53,-128.04 -22.98,-26.09 -52.18,-39.14 -87.56,-39.14 -23.88,0 -45.11,5.77 -63.69,17.26 -18.58,11.51 -33.17,29.4 -43.79,53.71 -10.62,24.35 -15.91,56.38 -15.91,96.21 0,58.39 11.48,100.88 34.46,127.42 23.02,26.53 52.66,39.78 88.93,39.78zm-238.85 410.06c-37.16,0 -65.92,-10.19 -86.27,-30.54 -20.32,-20.35 -30.5,-50 -30.5,-88.89l0 -678.11c0,-38.01 9.94,-67.18 29.85,-87.57 19.91,-20.34 48.46,-30.53 85.62,-30.53 38.01,0 67,10.19 86.91,30.53 19.91,20.39 29.85,49.56 29.85,87.57l0 76.98 -14.62 -65.03c12.36,-39.79 38.26,-71.85 77.63,-96.2 39.38,-24.28 84.25,-36.47 134.7,-36.47 56.62,0 106.38,13.73 149.3,41.11 42.9,27.47 76.26,66.36 100.17,116.77 23.9,50.44 35.82,111.5 35.82,183.12 0,69.9 -11.92,130.52 -35.82,181.82 -23.91,51.33 -57.27,90.67 -100.17,118.1 -42.92,27.38 -92.68,41.15 -149.3,41.15 -48.67,0 -92.45,-11.51 -131.39,-34.53 -38.93,-22.98 -64.99,-53.07 -78.27,-90.23l15.92 0 0 241.52c0,38.89 -10.42,68.54 -31.19,88.89 -20.8,20.35 -50.2,30.54 -88.24,30.54z"/>
   <path class="fil0" d="M5461.09 4722.49c-37.16,0 -65.92,-11.07 -86.24,-33.2 -20.35,-22.06 -30.53,-53.92 -30.53,-95.52l0 -419.31c0,-41.59 10.18,-73.42 30.53,-95.55 20.32,-22.09 49.08,-33.16 86.24,-33.16 38.05,0 67.48,11.07 88.24,33.16 20.76,22.13 31.18,53.96 31.18,95.55l0 419.31c0,41.6 -10.17,73.46 -30.49,95.52 -20.36,22.13 -50,33.2 -88.93,33.2z"/>
   <path class="fil0" d="M5981.29 4534.05l192.41 0 0 -298.54 -146 0 0 62.35c0,42.45 -3.96,84.9 -11.92,127.39 -7.98,42.49 -19.49,78.75 -34.49,108.8zm-187.12 360.96c-31.82,0 -56.62,-8.85 -74.31,-26.55 -17.68,-17.71 -26.53,-43.37 -26.53,-76.97l0 -153.92c0,-69.88 34.94,-104.84 104.84,-104.84l87.56 0 -139.33 50.4c20.36,-30.02 36.71,-60.1 49.11,-90.19 12.4,-30.09 21.24,-65.47 26.53,-106.14 5.3,-40.71 7.96,-91.6 7.96,-152.62l0 -45.16c0,-43.3 11.27,-76.05 33.84,-98.18 22.58,-22.09 54.61,-33.15 96.21,-33.15l302.54 0c42.45,0 75,11.06 97.54,33.15 22.58,22.13 33.85,54.88 33.85,98.18l0 453.88 -110.18 -110.17 115.47 0c33.63,0 59.49,9.12 77.66,27.22 18.1,18.13 27.18,44.02 27.18,77.62l0 153.92c0,69.02 -33.16,103.52 -99.51,103.52 -32.75,0 -57.52,-8.85 -74.31,-26.55 -16.81,-17.71 -25.25,-43.37 -25.25,-76.97l0 -80.94 -412.68 0 0 80.94c0,69.02 -32.75,103.52 -98.19,103.52z"/>
   <path class="fil0" d="M6719.04 4722.49c-37.15,0 -66.14,-10.18 -86.91,-30.53 -20.76,-20.33 -31.18,-49.93 -31.18,-88.89l0 -439.22c0,-38.94 10.42,-68.34 31.18,-88.25 20.77,-19.88 49.76,-29.85 86.91,-29.85 38.05,0 67.26,9.97 87.58,29.85 20.34,19.91 30.56,49.31 30.56,88.25l0 123.41 208.32 0 0 -123.41c0,-38.94 10.14,-68.34 30.5,-88.25 20.35,-19.88 49.54,-29.85 87.59,-29.85 37.16,0 66.12,9.97 86.95,29.85 20.77,19.91 31.18,49.31 31.18,88.25l0 439.22c0,38.96 -10.41,68.56 -31.18,88.89 -20.83,20.35 -49.79,30.53 -86.95,30.53 -38.05,0 -67.24,-10.18 -87.59,-30.53 -20.36,-20.33 -30.5,-49.93 -30.5,-88.89l0 -134.01 -208.32 0 0 134.01c0,38.96 -9.97,68.56 -29.89,88.89 -19.87,20.35 -49.31,30.53 -88.25,30.53z"/>
   <path class="fil0" d="M7669.14 4725.16c-50.43,0 -94.87,-9.29 -133.36,-27.87 -38.49,-18.58 -68.58,-43.99 -90.22,-76.32 -21.72,-32.28 -32.52,-69.2 -32.52,-110.79 0,-47.74 12.36,-85.38 37.17,-112.81 24.72,-27.38 64.54,-47.09 119.42,-59.04 54.81,-11.96 127.79,-17.93 218.94,-17.93l72.99 0 0 111.46 -72.99 0c-34.53,0 -63.04,2.46 -85.61,7.31 -22.55,4.89 -39.11,12.4 -49.76,22.58 -10.59,10.17 -15.92,23.22 -15.92,39.14 0,20.35 7.31,37.15 21.89,50.4 14.62,13.29 35.63,19.92 63.04,19.92 22.1,0 41.8,-4.82 59.05,-14.59 17.25,-9.73 31.19,-23.23 41.81,-40.47 10.62,-17.25 15.94,-37.36 15.94,-60.37l0 -153.96c0,-31.83 -8.23,-54.37 -24.55,-67.65 -16.39,-13.29 -44.46,-19.92 -84.29,-19.92 -21.24,0 -45.11,2.46 -71.65,7.31 -26.53,4.85 -56.17,13.5 -88.89,25.89 -23.88,8.85 -44.26,10.18 -61.06,3.97 -16.81,-6.19 -29.86,-16.78 -39.14,-31.87 -9.29,-15 -13.73,-31.39 -13.25,-49.07 0.4,-17.7 6.15,-34.5 17.24,-50.45 11.04,-15.91 28.07,-28.28 51.09,-37.15 42.45,-15.88 81.59,-26.54 117.42,-31.83 35.82,-5.33 68.77,-7.96 98.86,-7.96 72.54,0 132.48,10.42 179.81,31.18 47.3,20.79 82.71,52.62 106.18,95.52 23.39,42.93 35.14,97.98 35.14,165.23l0 268.05c0,38.93 -9.26,68.57 -27.83,88.89 -18.58,20.35 -45.6,30.54 -80.97,30.54 -36.28,0 -63.94,-10.19 -82.93,-30.54 -19.05,-20.32 -28.55,-49.96 -28.55,-88.89l0 -34.5 7.96 18.58c-4.44,28.32 -14.62,52.63 -30.49,72.98 -15.96,20.36 -36.75,36.27 -62.41,47.75 -25.68,11.51 -54.84,17.28 -87.56,17.28z"/>
   <path class="fil0" d="M3061.93 5545.32c46.88,0 86.67,-11.03 119.42,-33.16 32.72,-22.09 57.92,-53.96 75.65,-95.56 17.65,-41.56 26.53,-91.56 26.53,-149.92 0,-87.6 -19.5,-155.7 -58.39,-204.39 -38.94,-48.6 -93.33,-72.96 -163.21,-72.96 -46,0 -85.59,10.84 -118.78,32.52 -33.16,21.69 -58.61,53.07 -76.29,94.22 -17.69,41.12 -26.54,91.32 -26.54,150.61 0,87.57 19.47,155.9 58.39,205.01 38.91,49.07 93.31,73.63 163.22,73.63zm0 204.36c-94.67,0 -177.82,-20.09 -249.48,-60.38 -71.65,-40.23 -127.17,-96.61 -166.52,-169.19 -39.38,-72.49 -59.05,-157.03 -59.05,-253.43 0,-72.54 11.27,-138.45 33.85,-197.73 22.54,-59.26 54.81,-110.14 96.85,-152.6 42,-42.45 92.21,-74.96 150.61,-97.53 58.4,-22.58 122.95,-33.84 193.74,-33.84 94.63,0 177.58,19.91 248.79,59.7 71.21,39.81 126.77,95.79 166.56,167.85 39.82,72.16 59.73,156.82 59.73,254.15 0,72.53 -11.31,138.45 -33.88,197.7 -22.54,59.29 -54.85,110.34 -96.86,153.27 -42,42.93 -92.24,75.64 -150.6,98.19 -58.4,22.53 -122.98,33.84 -193.74,33.84z"/>
   <path class="fil0" d="M4008.04 5575.84c27.43,0 50,-5.74 67.69,-17.25 17.69,-11.48 31.18,-28.28 40.46,-50.41 9.3,-22.09 13.94,-49.55 13.94,-82.3 0,-49.52 -10.41,-87.08 -31.18,-112.77 -20.8,-25.65 -51.09,-38.45 -90.91,-38.45 -26.5,0 -49.08,5.73 -67.66,17.24 -18.57,11.47 -32.54,28.32 -41.8,50.41 -9.32,22.13 -13.93,49.11 -13.93,80.94 0,50.44 10.59,88.48 31.83,114.14 21.24,25.64 51.77,38.45 91.56,38.45zm9.29 173.86c-75.2,0 -140.67,-14.41 -196.41,-43.14 -55.7,-28.75 -98.62,-71.85 -128.68,-129.39 -30.08,-57.51 -45.11,-129.57 -45.11,-216.28l0 -91.59c0,-89.31 14.79,-164.51 44.43,-225.57 29.64,-61.03 73.43,-109.9 131.38,-146.61 57.92,-36.71 129.81,-63.46 215.63,-80.3l144.59 -30.53c31.87,-7.03 58.85,-4.4 80.98,7.96 22.09,12.43 36.27,34.09 42.48,65.06 6.15,30.97 1.3,56.38 -14.62,76.3 -15.91,19.87 -40.26,32.95 -72.98,39.1l-161.91 33.19c-40.67,8 -74.95,20.8 -102.79,38.49 -27.91,17.73 -49.11,40.67 -63.7,69.02 -14.61,28.31 -21.88,61.47 -21.88,99.51l0 94.2 -30.56 0c7.06,-37.13 20.79,-71.65 41.15,-103.48 20.35,-31.83 47.97,-57.31 82.95,-76.29 34.94,-19.03 78.04,-28.55 129.36,-28.55 52.18,0 99.04,12.59 140.67,37.8 41.56,25.24 74.52,61.03 98.83,107.5 24.32,46.45 36.51,102.43 36.51,167.86 0,68.98 -14.62,128.51 -43.78,178.47 -29.2,50 -70.14,88.69 -122.78,116.12 -52.62,27.39 -113.89,41.15 -183.76,41.15z"/>
   <path class="fil0" d="M4829.39 5575.84c23.9,0 45.11,-5.98 63.69,-17.9 18.57,-11.95 32.96,-30.05 43.13,-54.4 10.18,-24.32 15.27,-55.94 15.27,-94.91 0,-59.25 -11.51,-101.93 -34.53,-128.03 -22.98,-26.09 -52.18,-39.13 -87.56,-39.13 -23.87,0 -45.08,5.77 -63.69,17.24 -18.58,11.51 -33.17,29.4 -43.79,53.72 -10.62,24.35 -15.91,56.39 -15.91,96.2 0,58.4 11.47,100.88 34.49,127.42 22.98,26.53 52.62,39.79 88.9,39.79zm0 173.86c-72.54,0 -135.82,-13.76 -189.74,-41.15 -54,-27.43 -96.01,-66.77 -126.05,-118.1 -30.09,-51.29 -45.13,-111.91 -45.13,-181.82 0,-53.04 8.41,-100.61 25.21,-142.61 16.77,-42.05 41.12,-77.86 72.98,-107.51 31.83,-29.61 69.88,-52.19 114.1,-67.65 44.23,-15.47 93.78,-23.23 148.63,-23.23 72.54,0 135.82,13.73 189.78,41.12 53.96,27.46 95.72,66.56 125.4,117.45 29.6,50.88 44.43,111.67 44.43,182.43 0,52.25 -8.44,99.55 -25.2,142 -16.81,42.49 -40.91,78.55 -72.34,108.16 -31.38,29.64 -69.43,52.22 -114.09,67.65 -44.71,15.48 -94.02,23.26 -147.98,23.26z"/>
   <path class="fil0" d="M5867.97 5747.03c-37.16,0 -65.95,-10.18 -86.27,-30.53 -20.35,-20.32 -30.53,-49.94 -30.53,-88.9l0 -364.94 -136.67 0 0 70.35c0,51.33 -4.2,98.84 -12.6,142.65 -8.41,43.79 -20.6,82.51 -36.48,116.11 -15.95,33.61 -36.51,62.61 -61.71,86.92 -25.2,24.35 -55.05,43.58 -89.58,57.72 -26.54,10.62 -50.64,13.48 -72.3,8.61 -21.72,-4.85 -39.61,-14.76 -53.75,-29.86 -14.18,-15.02 -23.23,-32.71 -27.19,-53.03 -4.02,-20.36 -1.56,-40.5 7.28,-60.42 8.81,-19.91 25.2,-37.35 49.08,-52.39 16.8,-10.65 30.56,-23.25 41.15,-37.8 10.62,-14.62 19.02,-31.42 25.2,-50.44 6.18,-19.02 10.38,-39.82 12.64,-62.36 2.18,-22.58 3.27,-47.13 3.27,-73.67l0 -111.46c0,-43.34 11.31,-76.09 33.85,-98.19 22.57,-22.13 55.09,-33.2 97.54,-33.2l325.08 0c42.52,0 75.03,11.07 97.58,33.2 22.53,22.1 33.8,54.85 33.8,98.19l0 414.01c0,38.96 -10.42,68.58 -31.18,88.9 -20.77,20.35 -50.21,30.53 -88.21,30.53z"/>
   <path class="fil0" d="M6486.85 5575.84c23.91,0 45.12,-5.98 63.7,-17.9 18.58,-11.95 32.96,-30.05 43.13,-54.4 10.17,-24.32 15.27,-55.94 15.27,-94.91 0,-59.25 -11.51,-101.93 -34.53,-128.03 -22.99,-26.09 -52.18,-39.13 -87.57,-39.13 -23.87,0 -45.07,5.77 -63.69,17.24 -18.57,11.51 -33.15,29.4 -43.78,53.72 -10.62,24.35 -15.92,56.39 -15.92,96.2 0,58.4 11.48,100.88 34.51,127.42 22.98,26.53 52.62,39.79 88.88,39.79zm0 173.86c-72.53,0 -135.82,-13.76 -189.74,-41.15 -53.99,-27.43 -96,-66.77 -126.05,-118.1 -30.09,-51.29 -45.11,-111.91 -45.11,-181.82 0,-53.04 8.4,-100.61 25.2,-142.61 16.76,-42.05 41.12,-77.86 72.98,-107.51 31.83,-29.61 69.87,-52.19 114.1,-67.65 44.23,-15.47 93.78,-23.23 148.62,-23.23 72.54,0 135.82,13.73 189.78,41.12 53.96,27.46 95.74,66.56 125.41,117.45 29.61,50.88 44.43,111.67 44.43,182.43 0,52.25 -8.44,99.55 -25.21,142 -16.79,42.49 -40.91,78.55 -72.33,108.16 -31.39,29.64 -69.42,52.22 -114.1,67.65 -44.7,15.48 -94.02,23.26 -147.98,23.26z"/>
   <path class="fil0" d="M7094.61 5747.03c-37.16,0 -66.15,-10.18 -86.92,-30.53 -20.76,-20.32 -31.18,-49.94 -31.18,-88.9l0 -439.22c0,-38.93 10.42,-68.34 31.18,-88.24 20.77,-19.89 49.76,-29.86 86.92,-29.86 38.04,0 67.24,9.97 87.57,29.86 20.35,19.9 30.56,49.31 30.56,88.24l0 123.43 208.32 0 0 -123.43c0,-38.93 10.14,-68.34 30.5,-88.24 20.35,-19.89 49.55,-29.86 87.59,-29.86 37.17,0 66.12,9.97 86.95,29.86 20.77,19.9 31.18,49.31 31.18,88.24l0 439.22c0,38.96 -10.41,68.58 -31.18,88.9 -20.83,20.35 -49.78,30.53 -86.95,30.53 -38.04,0 -67.24,-10.18 -87.59,-30.53 -20.36,-20.32 -30.5,-49.94 -30.5,-88.9l0 -134.01 -208.32 0 0 134.01c0,38.96 -9.97,68.58 -29.89,88.9 -19.87,20.35 -49.31,30.53 -88.24,30.53z"/>
   <path class="fil0" d="M8052.68 5586.48l98.18 0c31.87,0 56.6,-6.84 74.32,-20.6 17.66,-13.69 26.54,-34.25 26.54,-61.68 0,-27.42 -8.65,-47.13 -25.89,-59.08 -17.25,-11.92 -42.25,-17.89 -74.97,-17.89l-98.18 0 0 159.25zm-122.09 148.62c-37.16,0 -65.47,-9.76 -84.94,-29.19 -19.46,-19.44 -29.2,-47.79 -29.2,-84.94l0 -432.59c0,-38.94 10.42,-68.35 31.19,-88.25 20.76,-19.88 49.75,-29.85 86.91,-29.85 38.04,0 67.24,9.97 87.56,29.85 20.36,19.9 30.57,49.31 30.57,88.25l0 90.22 141.97 0c90.22,0 158.11,18.58 203.67,55.73 45.57,37.17 68.35,92.9 68.35,167.21 0,46 -11.51,86.47 -34.5,121.41 -23.02,34.97 -54.85,62.39 -95.55,82.3 -40.68,19.91 -88.01,29.85 -141.97,29.85l-264.06 0z"/>
   <path class="fil1" d="M5461.49 3699.32c80.25,-3.11 139.57,64.92 139.95,135.03 0.41,81.97 -61.13,142.15 -139.13,142.55 -78.52,0.41 -129.27,-58.36 -136.82,-111.27 -6.75,-47.08 2.16,-91.18 37.98,-126.21 27.18,-26.64 59.46,-41.16 98.02,-40.1z"/>
  </g>
 </g>
</svg>
