<?xml version="1.0" encoding="UTF-8"?>
<!DOCTYPE svg PUBLIC "-//W3C//DTD SVG 1.1//EN" "http://www.w3.org/Graphics/SVG/1.1/DTD/svg11.dtd">
<!-- Creator: CorelDRAW 2020 (64-Bit) -->
<svg xmlns="http://www.w3.org/2000/svg" xml:space="preserve" width="84.6666mm" height="67.0558mm" version="1.1" style="shape-rendering:geometricPrecision; text-rendering:geometricPrecision; image-rendering:optimizeQuality; fill-rule:evenodd; clip-rule:evenodd"
viewBox="0 0 8466.66 6705.58"
 xmlns:xlink="http://www.w3.org/1999/xlink"
 xmlns:xodm="http://www.corel.com/coreldraw/odm/2003">
 <defs>
  <style type="text/css">
   <![CDATA[
    .fil0 {fill:#FEFEFE;fill-rule:nonzero}
   ]]>
  </style>
 </defs>
 <g id="Layer_x0020_1">
  <metadata id="CorelCorpID_0Corel-Layer"/>
  <g id="_2285212158208">
   <path class="fil0" d="M6454.02 5882.08l0.47 -106.75 338.95 0 0 106.75 -41.4 0 0 -68.05 -256.22 0 -0.4 68.05 -41.4 0zm249.56 -88.96l0 -251.76 -136.58 0 -2.22 65.39c-0.87,21.93 -2.36,42.99 -4.45,63.16 -1.75,20.16 -4.45,38.39 -8.02,54.71 -3.57,16.01 -8.56,29.21 -15.1,39.59 -6.21,10.37 -14.23,16.75 -24,19.12l-48.06 -8c11.59,0.89 21.03,-2.97 28.44,-11.57 7.76,-8.9 13.69,-21.21 17.8,-36.91 4.45,-16.03 7.75,-34.55 9.77,-55.61 2.1,-21.35 3.58,-44.19 4.46,-68.5l3.16 -100.09 218.82 0 0 290.47 -44.02 0zm-340.56 -117.88l-187.28 0 0 -38.7 187.28 0 0 38.7zm-182.82 138.79l-44.42 0 0 -311.37 44.42 0 0 311.37zm178.84 -311.38l44.5 0 0 311.37 -44.5 0 0 -311.37zm-460.22 275.35c17.2,0 33.03,-2.98 47.59,-8.9 14.83,-5.92 27.58,-14.24 38.23,-24.91 10.99,-10.97 19.41,-23.72 25.35,-38.26 6.26,-14.52 9.37,-30.39 9.37,-47.59 0,-17.2 -3.11,-33.07 -9.37,-47.6 -5.94,-14.52 -14.36,-27.14 -25.35,-37.81 -10.65,-10.98 -23.4,-19.42 -38.23,-25.35 -14.56,-5.93 -30.39,-8.9 -47.59,-8.9 -17.53,0 -33.64,2.97 -48.47,8.9 -14.56,5.93 -27.3,14.37 -38.28,25.35 -10.99,10.67 -19.55,23.29 -25.82,37.81 -5.94,14.53 -8.9,30.4 -8.9,47.6 0,17.2 2.96,33.07 8.9,47.59 6.27,14.54 14.83,27.29 25.82,38.26 10.98,10.67 23.72,18.99 38.28,24.91 14.83,5.92 30.94,8.9 48.47,8.9zm0 39.59c-23.72,0 -45.84,-4.01 -66.26,-12.02 -20.23,-8 -37.68,-19.12 -52.52,-33.36 -14.83,-14.53 -26.41,-31.44 -34.72,-50.7 -8.29,-19.28 -12.39,-40.34 -12.39,-63.17 0,-22.84 4.1,-43.89 12.39,-63.17 8.31,-19.27 19.89,-36.02 34.72,-50.27 14.84,-14.52 32.29,-25.79 52.52,-33.8 20.15,-8.01 42.19,-12 66.26,-12 23.73,0 45.51,3.99 65.4,12 20.15,7.71 37.61,18.83 52.44,33.37 15.16,14.23 26.69,30.99 34.71,50.26 8.29,19.27 12.48,40.48 12.48,63.61 0,23.12 -4.19,44.34 -12.48,63.6 -8.02,19.28 -19.55,36.19 -34.71,50.72 -14.83,14.24 -32.29,25.36 -52.44,33.36 -19.89,7.71 -41.67,11.57 -65.4,11.57zm-414.91 -326.51l41.32 0 0 334.5 -41.32 0 0 -334.5zm20.02 267.34l2.22 0 1.28 0c30.26,-0.29 55.82,-4.15 76.52,-11.56 20.76,-7.72 36.53,-18.99 47.18,-33.81 10.99,-15.12 16.45,-33.66 16.45,-55.6 0,-21.65 -5.46,-39.89 -16.45,-54.71 -10.98,-14.83 -26.82,-26.1 -47.59,-33.8 -20.5,-7.72 -45.5,-11.57 -75.16,-11.57l-2.23 0 -2.22 0c-30.53,0 -56.5,3.85 -77.86,11.57 -21.04,7.41 -37.08,18.52 -48.07,33.35 -10.92,14.82 -16.44,33.37 -16.44,55.6 0,22.24 5.66,40.78 16.91,55.6 11.26,14.83 27.45,26.1 48.47,33.82 21.36,7.4 46.99,11.11 76.99,11.11zm-4.92 34.7c-37.96,0 -70.45,-5.2 -97.41,-15.57 -26.97,-10.67 -47.6,-26.1 -61.82,-46.26 -14.22,-20.17 -21.37,-44.64 -21.37,-73.4 0,-28.76 7.15,-53.22 21.37,-73.39 14.22,-20.17 34.85,-35.59 61.82,-46.26 26.96,-10.68 59.45,-16.02 97.41,-16.02l3.1 0 4.91 0 3.12 0c37.94,0 70.3,5.34 97,16.02 26.96,10.67 47.59,26.09 61.81,46.26 14.23,20.17 21.37,44.63 21.37,73.39 0,28.47 -7.14,52.93 -21.37,73.4 -13.95,20.16 -34.25,35.59 -60.94,46.26 -26.42,10.37 -58.45,15.57 -96.13,15.57l-3.97 0 -5.33 0 -3.57 0zm-503.9 -312.26c-24.27,0 -43.14,-5.34 -56.5,-16.03 -13.01,-10.66 -19.68,-25.64 -20.02,-44.91l31.62 0c0.27,11.56 4.46,20.6 12.47,27.13 7.95,6.23 18.81,9.34 32.43,9.34 13.34,0 24.06,-3.11 32.01,-9.34 8.37,-6.53 12.61,-15.57 12.95,-27.13l31.15 0c-0.34,19.27 -7.16,34.25 -20.49,44.91 -13.02,10.69 -31.56,16.03 -55.62,16.03zm-133.88 333.17l0 -311.38 44.01 0 0 240.2 184.17 -240.2 40.93 0 0 311.38 -43.56 0 0 -239.77 -184.63 239.77 -40.92 0zm-366.18 0l0 -311.38 44.01 0 0 240.2 184.18 -240.2 40.91 0 0 311.38 -43.61 0 0 -239.77 -184.58 239.77 -40.91 0zm-137.59 -138.79l-187.27 0 0 -38.7 187.27 0 0 38.7zm-182.81 138.79l-44.49 0 0 -311.37 44.49 0 0 311.37zm178.77 -311.38l44.49 0 0 311.37 -44.49 0 0 -311.37zm-455.56 -21.79c-24.33,0 -43.16,-5.34 -56.5,-16.03 -13.04,-10.66 -19.72,-25.64 -20.03,-44.91l31.59 0c0.3,11.56 4.45,20.6 12.46,27.13 8,6.23 18.82,9.34 32.48,9.34 13.33,0 24.02,-3.11 32.02,-9.34 8.3,-6.53 12.59,-15.57 12.9,-27.13l31.13 0c-0.3,19.27 -7.11,34.25 -20.46,44.91 -13.05,10.69 -31.57,16.03 -55.59,16.03zm-133.9 333.17l0 -311.38 44.04 0 0 240.2 184.16 -240.2 40.91 0 0 311.38 -43.59 0 0 -239.77 -184.59 239.77 -40.93 0zm-141.18 -311.38l44.04 0 0 311.37 -44.04 0 0 -311.37zm-400.21 379.43l0.45 -106.75 338.94 0 0 106.75 -41.36 0 0 -68.05 -256.21 0 -0.45 68.05 -41.37 0zm249.54 -88.96l0 -251.76 -136.55 0 -2.23 65.39c-0.88,21.93 -2.37,42.99 -4.44,63.16 -1.79,20.16 -4.45,38.39 -8.01,54.71 -3.56,16.01 -8.61,29.21 -15.13,39.59 -6.22,10.37 -14.23,16.75 -24.02,19.12l-48.03 -8c11.57,0.89 21.05,-2.97 28.46,-11.57 7.71,-8.9 13.65,-21.21 17.79,-36.91 4.45,-16.03 7.72,-34.55 9.79,-55.61 2.08,-21.35 3.56,-44.19 4.45,-68.5l3.11 -100.09 218.86 0 0 290.47 -44.05 0zm-435.09 -15.12c17.2,0 33.07,-2.98 47.6,-8.9 14.83,-5.92 27.59,-14.24 38.26,-24.91 10.97,-10.97 19.42,-23.72 25.35,-38.26 6.23,-14.52 9.34,-30.39 9.34,-47.59 0,-17.2 -3.11,-33.07 -9.34,-47.6 -5.93,-14.52 -14.38,-27.14 -25.35,-37.81 -10.67,-10.98 -23.43,-19.42 -38.26,-25.35 -14.53,-5.93 -30.4,-8.9 -47.6,-8.9 -17.48,0 -33.65,2.97 -48.48,8.9 -14.53,5.93 -27.28,14.37 -38.25,25.35 -10.98,10.67 -19.58,23.29 -25.8,37.81 -5.93,14.53 -8.9,30.4 -8.9,47.6 0,17.2 2.97,33.07 8.9,47.59 6.22,14.54 14.82,27.29 25.8,38.26 10.97,10.67 23.72,18.99 38.25,24.91 14.83,5.92 31,8.9 48.48,8.9zm0 39.59c-23.72,0 -45.8,-4.01 -66.27,-12.02 -20.17,-8 -37.66,-19.12 -52.48,-33.36 -14.84,-14.53 -26.4,-31.44 -34.7,-50.7 -8.3,-19.28 -12.47,-40.34 -12.47,-63.17 0,-22.84 4.17,-43.89 12.47,-63.17 8.3,-19.27 19.86,-36.02 34.7,-50.27 14.82,-14.52 32.31,-25.79 52.48,-33.8 20.16,-8.01 42.27,-12 66.27,-12 23.73,0 45.53,3.99 65.39,12 20.17,7.71 37.66,18.83 52.5,33.37 15.13,14.23 26.68,30.99 34.7,50.26 8.3,19.27 12.45,40.48 12.45,63.61 0,23.12 -4.15,44.34 -12.45,63.6 -8.02,19.28 -19.57,36.19 -34.7,50.72 -14.84,14.24 -32.33,25.36 -52.5,33.36 -19.86,7.71 -41.66,11.57 -65.39,11.57zm-357.74 -3.56l0 -311.38 204.17 0 -0.44 38.71 -170.81 0 10.67 -11.13 0.44 283.8 -44.03 0zm-320.19 -77.85l12.02 -35.58 175.26 0 12.89 35.58 -200.17 0zm-60.05 77.85l141.02 -311.38 44.03 0 141.45 311.38 -46.7 0 -125.89 -286.47 17.8 0 -125.89 286.47 -45.82 0zm-322.96 3.56c-4.44,0 -8.89,-0.31 -13.34,-0.9 -4.45,-0.59 -9.34,-1.48 -14.67,-2.66l3.11 -39.59c4.74,1.18 9.48,1.78 14.23,1.78 13.05,0 23.43,-5.19 31.14,-15.57 7.71,-10.38 13.34,-26.09 16.91,-47.16 3.85,-21.05 6.38,-47.59 7.55,-79.61l4.9 -131.23 219.29 0 0 311.38 -43.58 0 0 -284.24 10.67 11.57 -157.92 0 9.79 -12.02 -3.56 103.19c-0.88,30.85 -2.97,57.84 -6.23,80.96 -3.25,23.13 -8.14,42.41 -14.67,57.83 -6.52,15.42 -14.98,26.99 -25.35,34.7 -10.09,7.71 -22.84,11.57 -38.27,11.57zm-258.82 -38.71l87.63 0c25.8,0 45.23,-4.89 58.27,-14.67 13.35,-9.78 20.02,-24.32 20.02,-43.6 0,-37.36 -26.09,-56.04 -78.29,-56.04l-87.63 0 0 114.31zm-44.04 35.15l0 -311.38 234.88 0 0 37.81 -190.84 0 0 88.96 96.97 0c37.07,0 65.25,7.71 84.52,23.13 19.27,15.43 28.92,37.82 28.92,67.18 0,30.24 -10.53,53.51 -31.59,69.83 -20.75,16.31 -50.56,24.47 -89.41,24.47l-133.45 0z"/>
   <path class="fil0" d="M7880.99 6689.55l0 -633.65 145.75 0 0 412.78 302.34 -412.78 137.58 0 0 633.65 -144.79 0 0 -411.88 -302.35 411.88 -138.53 0zm-294.51 -259.8l-309.63 0 0 -124.01 309.63 0 0 124.01zm-298.7 259.8l-146.69 0 0 -633.65 146.69 0 0 633.65zm287.84 -633.65l146.62 0 0 633.65 -146.62 0 0 -633.65zm-753.26 -56.12c-17.52,0 -32.62,-5.73 -45.29,-17.21 -12.07,-11.46 -18.07,-26.55 -18.07,-45.26 0,-18.71 6,-33.79 18.07,-45.26 12.67,-11.47 27.77,-17.2 45.29,-17.2 17.46,0 32.3,5.73 44.37,17.2 12.05,11.47 18.06,26.55 18.06,45.26 0,18.71 -6.01,33.8 -18.06,45.26 -12.07,11.48 -26.91,17.21 -44.37,17.21zm182.83 0c-16.85,0 -31.69,-5.73 -44.37,-17.21 -12.06,-11.46 -18.05,-26.55 -18.05,-45.26 0,-18.71 5.99,-33.79 18.05,-45.26 12.68,-11.47 27.52,-17.2 44.37,-17.2 17.51,0 32.28,5.73 44.35,17.2 12.67,11.47 19.01,26.55 19.01,45.26 0,18.71 -6.34,33.8 -19.01,45.26 -12.07,11.48 -26.84,17.21 -44.35,17.21zm-164.77 56.12l146.69 0 0 633.65 -146.69 0 0 -633.65zm-649.77 497.88l38.96 -111.35 325.88 0 39.83 111.35 -404.67 0zm-141.22 135.77l282.45 -633.65 144.8 0 283.4 633.65 -153.9 0 -231.76 -559.43 57.98 0 -232.71 559.43 -150.26 0zm-396.18 -224.5l-65.19 -69.7 184.64 0c45.31,0 79.07,-9.65 101.38,-28.96 22.32,-19.32 33.51,-46.17 33.51,-80.57 0,-34.99 -11.19,-62.16 -33.51,-81.47 -22.31,-19.31 -56.07,-28.97 -101.38,-28.97l-184.64 0 65.19 -69.7 0 359.37zm-146.69 224.5l0 -633.65 274.3 0c56.77,0 105.63,9.36 146.62,28.06 41.05,18.09 72.73,44.36 95.05,78.76 22.38,34.39 33.51,75.42 33.51,123.1 0,47.07 -11.13,87.81 -33.51,122.21 -22.32,34.4 -54,60.96 -95.05,79.65 -40.99,18.11 -89.85,27.16 -146.62,27.16l-192.8 0 65.19 -66.07 0 240.78 -146.69 0zm-300.38 -300.54l-134.9 -16.28 205.47 -316.83 154.78 0 -225.35 333.11zm-243.56 -76.94l220.91 0 0 122.2 -220.91 0 0 -122.2zm-103.14 -256.17l145.67 0 0 633.65 -145.67 0 0 -633.65zm411.82 633.65l-197.31 -305.06 118.57 -71.52 245.31 376.58 -166.57 0zm-836.38 -100.48l-286.02 -533.17 156.59 0 209.99 425.45 -80.56 107.72zm-193.74 -19c34.99,10.24 64.31,13.26 87.84,9.04 24.14,-4.82 45.57,-21.72 64.25,-50.69l30.81 -46.16 13.54 -15.39 210.05 -410.97 143.93 0 -269.78 501.49c-24.14,45.26 -52.79,79.96 -86.02,104.1 -32.56,24.14 -68.49,37.71 -107.72,40.74 -39.23,3.61 -79.95,-3.32 -122.15,-20.83l35.25 -111.33zm-929.13 63.35l45.23 -105c27.18,16.3 56.16,28.97 86.9,38.02 31.41,8.45 61.89,13.27 91.47,14.49 30.14,0.6 57.3,-2.43 81.44,-9.06 24.74,-6.64 44.35,-16.6 58.85,-29.87 15.1,-13.28 22.65,-30.17 22.65,-50.69 0,-24.14 -9.97,-41.95 -29.93,-53.42 -19.88,-12.06 -46.45,-18.1 -79.62,-18.1l-154.77 0 0 -110.43 143.92 0c29.53,0 52.45,-6.03 68.76,-18.1 16.93,-12.08 25.35,-28.67 25.35,-49.8 0,-18.11 -5.99,-32.58 -18.06,-43.44 -12.07,-11.47 -28.73,-19.93 -49.82,-25.34 -20.5,-5.44 -43.76,-7.86 -69.71,-7.26 -25.95,0.62 -52.78,4.83 -80.56,12.67 -27.77,7.86 -54.33,18.71 -79.68,32.6l-44.35 -113.16c41.06,-21.11 84.2,-35.59 129.49,-43.45 45.84,-8.45 89.86,-10.55 132.14,-6.33 42.87,3.63 81.49,13.28 115.87,28.98 34.39,15.08 61.82,34.99 82.38,59.73 20.49,24.75 30.73,54.01 30.73,87.81 0,30.17 -7.81,57.03 -23.51,80.57 -15.64,23.53 -37.7,41.63 -66.07,54.31 -27.78,12.67 -59.72,19.01 -95.93,19.01l3.58 -32.59c42.26,0 78.79,7.24 109.54,21.72 31.41,13.88 55.54,33.5 72.39,58.85 17.53,24.73 26.3,53.39 26.3,85.99 0,30.18 -8.15,57.33 -24.47,81.47 -15.64,23.53 -37.41,43.44 -65.19,59.74 -27.71,16.3 -59.38,28.37 -95.05,36.21 -35.59,7.85 -73.61,11.16 -113.99,9.96 -39.84,-1.21 -80.01,-6.94 -120.4,-17.2 -40.45,-10.87 -79.07,-27.15 -115.88,-48.89zm-406.35 -61.55l344.94 0 0 117.68 -490.68 0 0 -633.65 478.88 0 0 117.67 -333.14 0 0 398.3zm-10.85 -260.7l305.1 0 0 114.05 -305.1 0 0 -114.05zm-574.54 378.38l0 -547.66 33.5 33.49 -235.37 0 0 -119.48 549.5 0 0 119.48 -235.39 0 32.62 -33.49 0 547.66 -144.86 0zm-431.24 -259.8l-309.58 0 0 -124.01 309.58 0 0 124.01zm-298.71 259.8l-146.65 0 0 -633.65 146.65 0 0 633.65zm287.85 -633.65l146.65 0 0 633.65 -146.65 0 0 -633.65zm-1177.95 633.65l0 -633.65 145.75 0 0 412.78 302.33 -412.78 137.6 0 0 633.65 -144.84 0 0 -411.88 -302.35 411.88 -138.49 0zm-357.19 10.87c-48.87,0 -94.44,-7.85 -136.69,-23.54 -41.63,-16.3 -77.84,-39.22 -108.61,-68.8 -30.79,-29.58 -54.93,-64.28 -72.42,-104.1 -16.91,-39.82 -25.35,-83.59 -25.35,-131.25 0,-47.68 8.44,-91.43 25.35,-131.27 17.49,-39.82 41.63,-74.53 72.42,-104.09 31.38,-29.57 67.88,-52.2 109.52,-67.9 41.64,-16.29 87.21,-24.43 136.69,-24.43 54.92,0 104.41,9.65 148.45,28.97 44.66,18.69 82.09,46.46 112.25,83.28l-94.14 86.9c-21.72,-24.75 -45.86,-43.16 -72.41,-55.23 -26.55,-12.67 -55.53,-19 -86.91,-19 -29.57,0 -56.72,4.82 -81.47,14.48 -24.74,9.65 -46.15,23.54 -64.27,41.64 -18.1,18.11 -32.28,39.53 -42.55,64.26 -9.64,24.75 -14.48,52.21 -14.48,82.39 0,30.17 4.84,57.62 14.48,82.37 10.27,24.74 24.45,46.16 42.55,64.27 18.12,18.1 39.53,31.98 64.27,41.63 24.75,9.66 51.9,14.49 81.47,14.49 31.38,0 60.36,-6.03 86.91,-18.1 26.55,-12.67 50.69,-31.69 72.41,-57.02l94.14 86.89c-30.16,36.81 -67.59,64.88 -112.25,84.18 -44.04,19.32 -93.83,28.98 -149.36,28.98z"/>
   <path class="fil0" d="M4588.78 2480.06c-0.42,37.98 -0.47,60.74 -5.19,61.76 -6.87,1.48 -23.66,-43.08 -65.9,-153.81l-64.55 -169.27 -2.78 -101.65 -2.81 -101.68 33.2 -224.4c18.26,-123.43 36.69,-248.33 40.96,-277.58 4.26,-29.25 8.5,-52.43 9.42,-51.5 0.93,0.91 4.87,36.54 8.79,79.16 3.91,42.62 7.23,93.44 7.4,112.94 0.18,21.34 -12.86,122.49 -32.79,254.29l-33.07 218.85 53.94 151.16 53.94 151.16 -0.56 50.57zm-18.26 194.05c-3.18,19.84 -7.26,38.79 -9.07,42.1 -3.11,5.64 -76.27,-183.09 -76.14,-196.37 0.04,-3.33 5.61,-16.99 12.37,-30.35l12.31 -24.28 13.71 35.08c7.53,19.29 22.45,58.16 33.15,86.39l19.44 51.31 -5.77 36.12zm-60.91 209.4c-7.92,16.45 -23.44,43.72 -34.47,60.61 -20.32,31.11 -92.5,108.77 -100.94,108.61 -2.53,-0.06 -12.77,-14.06 -22.76,-31.14 -17.26,-29.52 -17.73,-31.37 -9.45,-37.38 4.79,-3.46 46.98,-34.87 93.77,-69.79 46.78,-34.93 85.78,-62.89 86.66,-62.16 0.89,0.74 -4.88,14.8 -12.81,31.25zm-136.31 -3.58c12.77,-40.57 43.54,-114.9 46.33,-111.96 1.92,2.02 8.85,16.97 15.39,33.23l11.92 29.58 -38.24 29.1c-25.64,19.52 -37.31,26.13 -35.4,20.05zm18.1 -1564.44c-6,-72.41 -11.9,-140.17 -13.12,-150.57 -1.8,-15.36 2.69,-8.4 24.1,37.38 14.46,30.95 26.29,62.24 26.29,69.55 0,19.46 -18.78,156.22 -22.87,166.51 -1.94,4.88 -8.34,-49.77 -14.4,-122.87zm-30.87 -430.56c0.81,0.8 22.1,46.05 47.31,100.56 47.11,101.85 48.97,108.66 40.53,148.52 -3.29,15.55 -5.7,11.47 -49.38,-83.58 -28.95,-63.01 -45.91,-105.73 -45.87,-115.6 0.05,-17.65 5.18,-52.14 7.41,-49.9zm28.22 -312.03c0.8,0.8 15.5,73.73 32.68,162.07 17.17,88.33 34.06,174.95 37.52,192.49 3.47,17.54 5.66,31.91 4.9,31.91 -2.63,0 -24.69,-50.85 -39.24,-90.45 -21.19,-57.65 -33.06,-112.77 -38.6,-179.26 -4.1,-49.22 -2.4,-121.9 2.74,-116.76zm68.56 1813.6l0.18 -59.08 17.69 46.59 17.7 46.58 -11.44 23.13c-6.29,12.71 -13.05,23.12 -15.02,23.12 -6.82,0 -9.27,-21.6 -9.11,-80.34zm26.88 306.92c16.25,43.99 29.55,81.96 29.55,84.37 0,4.85 -37.04,31.81 -39.58,28.81 -0.89,-1.03 -10.56,-23.88 -21.5,-50.78l-19.89 -48.89 8.5 -46.8c4.67,-25.75 9.6,-46.77 10.94,-46.74 1.36,0.02 15.74,36.03 31.98,80.03zm-2.5 -1321.25l-17.57 120.84c-9.68,66.48 -19.8,136.26 -22.51,155.11 -2.71,18.85 -6.47,34.26 -8.37,34.26 -6.27,0 -14.32,-26.03 -14.66,-47.42 -0.34,-22.07 1.71,-38.83 24.5,-200.3 7.67,-54.39 14.05,-101.16 14.17,-103.97 0.12,-2.8 5.67,5.39 12.32,18.2l12.12 23.28zm-4.26 -190.57l4.33 -30.58 11.05 21.13c6.07,11.61 11.02,28.57 10.99,37.67 -0.03,9.1 -1.53,24.71 -3.33,34.69l-3.28 18.17 -12.03 -25.25c-11.01,-23.09 -11.68,-27.87 -7.73,-55.83zm-143.25 -722.93c-10.29,127.91 -15.75,178.94 -18.92,176.98 -1.87,-1.14 -11.38,-20.04 -21.16,-41.97l-17.77 -39.88 22.42 -55.95c12.33,-30.77 25.8,-64.87 29.97,-75.77 4.15,-10.9 8.06,-19.3 8.68,-18.67 0.63,0.62 -0.82,25.49 -3.22,55.26zm-184.57 169.05c-3.55,-6.58 -18.87,-183.48 -18.36,-211.81 0.12,-6.42 -0.08,-11.27 0.88,-11.52 1.92,-0.48 8.45,17.29 31.34,77.22 13.31,34.83 24.2,66.27 24.2,69.88 0,13.14 -34.65,82.55 -38.06,76.23zm-72.43 398.93c-55.72,122.79 -56.66,124.53 -60.31,111.53 -9.35,-33.25 -4.67,-53.69 29.23,-127.56 18.33,-39.88 39.02,-85.02 46.01,-100.29 11.31,-24.71 13.05,-26.53 15.86,-16.54 1.72,6.17 3.35,21.3 3.61,33.62 0.38,18.31 -5.87,36.38 -34.4,99.24zm6.58 159.77c-2.38,16.77 -7.79,77.27 -12.04,134.45 -4.25,57.19 -8.88,107.16 -10.31,111.05 -2.59,7.12 -24.36,-131.74 -24.82,-158.3 -0.21,-12.21 46.37,-122.82 50.13,-119.05 0.77,0.75 -0.57,15.08 -2.96,31.85zm-13.88 1633.73c12.21,33.09 21.51,60.93 20.68,61.85 -0.84,0.92 -17.45,-10.31 -36.92,-24.96l-35.38 -26.62 14.72 -35.23 14.7 -35.25 22.2 60.21zm79.24 183.04l26.31 46.49 26.3 46.48 -20.03 -3.34c-28.1,-4.71 -62.2,-18.81 -87.91,-36.35 -55.96,-38.19 -126.11,-131.28 -144.68,-192 -1.14,-3.72 -2.23,-6.66 -1.34,-7.54 2.62,-2.55 22.13,12.25 106.55,75.39l94.8 70.87zm65.57 160.13c0.68,0.7 -3.28,14.93 -8.84,31.62 -5.55,16.7 -10.42,30.83 -10.83,31.39 -0.42,0.56 -8.77,4.39 -18.58,8.49 -13.83,5.77 -16.96,6.01 -13.94,1.06 10.72,-17.54 51.07,-73.66 52.19,-72.56zm78.87 73.09c1.71,2.79 -3.36,2.66 -13.07,-0.32 -13.88,-4.26 -17.17,-8.53 -26.05,-33.83 -5.59,-15.91 -10.14,-30.91 -10.12,-33.32 0.04,-3.45 35.12,44.61 49.24,67.47zm-388.31 -512.79l-5.21 -24.32c-5.25,-24.45 -8.48,-38.3 -8.21,-52.07 0.41,-20.44 8.56,-40.73 29.41,-95.22 17.88,-46.74 33.56,-84.98 34.87,-84.99 1.3,-0.01 7.15,11.11 13.03,24.71 5.86,13.6 10.64,27 10.62,29.77 -0.02,5.11 -54.99,156.23 -67.64,185.96l-6.87 16.16zm-25.65 -173.01c-2.01,-3.19 -3.72,-31.81 -3.75,-63.62l-0.08 -57.81 54.31 -152.08 54.33 -152.1 -7.08 -42.92c-3.89,-23.6 -19.73,-128.02 -35.18,-232.04l-28.1 -189.12 7.25 -94.41c3.98,-51.92 8.45,-97.61 9.93,-101.51 3.7,-9.8 5.61,1.81 47.81,290.63l37.3 255.18 -3.14 108.7 -3.15 108.68 -63.38 164.11c-38.24,99.02 -64.85,161.81 -67.07,158.31zm91.34 -1374.27c10.92,-25.35 11.05,-25.45 14.08,-11.42 1.68,7.81 3.21,23.76 3.39,35.44 0.23,13.7 -3.6,28.83 -10.76,42.5l-11.09 21.24 -3.32 -31.09c-2.87,-26.71 -1.79,-34.68 7.7,-56.67zm4.07 1242.07c0,-3.12 6.9,-23.26 15.36,-44.77l15.36 -39.12 1.55 27.18c0.85,14.94 0.11,44.71 -1.61,66.15 -1.72,21.44 -4.66,38.99 -6.52,38.99 -4.02,0 -24.14,-40.37 -24.14,-48.43zm34.32 199.65c1.84,-4.69 2.96,-7.98 4.08,-7.97 2.17,0.01 4.28,12.3 11.25,50.5l8.21 44.9 -19.89 49.62c-10.96,27.28 -20.74,50.46 -21.76,51.49 -3.09,3.14 -39.83,-24.05 -39.83,-29.44 0,-4.02 35.78,-102.28 57.94,-159.1zm-2.67 -1288.37c0.94,0.93 10.15,63.08 20.47,138.11 19.83,144.09 21.97,175.64 13.58,199.71 -5.14,14.73 -13.72,20.34 -13.71,8.96 0,-3.24 -9.75,-72.73 -21.68,-154.4l-21.7 -148.51 10.67 -22.79c5.88,-12.52 11.44,-22.01 12.37,-21.08zm45.01 -642.02l24.94 -127.58 1.42 49.59c0.8,27.29 -0.74,69.87 -3.41,94.65 -6.3,58.7 -27.21,140.62 -52.22,204.53 -11,28.13 -20.69,50.42 -21.55,49.57 -1.55,-1.55 4.35,-33.04 50.82,-270.76zm584.79 1350.52c-4.2,-67.11 -44.17,-602.52 -56.91,-762.21 -4.42,-55.58 -33.61,-218 -96.41,-536.36 -3.59,-18.19 -18.69,-95.82 -33.57,-172.49l-27.05 -139.4 -76.76 -172.49c-42.23,-94.86 -85.24,-190.56 -95.59,-212.65l-18.81 -40.17 -11.95 25.99c-6.57,14.3 -49.35,109.8 -95.05,212.26 -72.9,163.42 -84.22,192.11 -92.26,233.91 -14.48,75.37 -96.98,499.73 -120.41,619.46 -22.82,116.61 -23.09,119.24 -52.44,510.37 -9.18,122.15 -19.76,261.44 -23.51,309.52 -14.37,184.05 -24.02,547.83 -16.9,637.97 15.65,198.59 86.73,410.49 206.09,614.34 17.49,29.88 36.17,62 41.49,71.38l9.68 17.03 -10.27 13.18 325.93 0c-149.11,-194.94 -252.77,-393.25 -297.95,-571.8 -25.85,-102.22 -26.72,-113.53 -25.51,-328.43 1.21,-214.57 5.52,-322.7 20.08,-503.27 5.04,-62.39 12.39,-154.89 16.35,-205.57 34.85,-445.64 35.09,-448 59.02,-588.35 26.35,-154.45 53.24,-309.76 62.19,-359.14l6.01 -33.09 3.93 21.27c2.17,11.69 23,132.91 46.29,269.36l42.35 248.1 23.75 304.81c13.07,167.63 27.91,356.89 32.99,420.58 11.61,145.72 20.73,543.13 14.09,614.33 -11.38,121.99 -43.53,231.46 -105.57,359.46 -14.58,30.06 -26.51,57.23 -26.51,60.36 0,11.04 34.55,74.13 67.58,123.43 29.36,43.83 78.31,108.88 81.9,108.88 2.07,0 33.25,-54.13 68.22,-118.42 84.59,-155.48 138.87,-317.52 158.86,-474.42 6.05,-47.41 6.77,-94.24 4.29,-280.02 -1.64,-122.71 -5.09,-256.67 -7.66,-297.71z"/>
   <path class="fil0" d="M2467.93 3267.83c-32.84,15.78 -67.17,31.37 -103.09,46.84 -40.29,17.33 -79.31,34.17 -86.7,37.39 -12.5,5.47 -7.45,7.18 70.88,23.99 302.7,64.96 619.08,160.83 894.78,271.09 132.66,53.07 311.9,133.76 311.9,140.44 0,3.1 -88.85,78.87 -143.08,122.01 -59.29,47.15 -216.08,163.96 -220.1,163.96 -1.68,0 -3.07,-93.03 -3.07,-206.73l0 -206.76 -37.8 -15.05c-20.8,-8.27 -76.08,-26.65 -122.86,-40.84l-85.07 -25.8 -1.23 240.5c-0.67,132.28 -0.67,348.65 0,480.8l1.23 240.3 56.71 -34.26c31.18,-18.83 73.71,-44.33 94.51,-56.66 91.84,-54.43 320.53,-213.57 413.49,-287.75 16.9,-13.48 50.9,-40.32 75.58,-59.68 52.14,-40.87 168.36,-139.05 196.91,-166.36l19.67 -18.81 25.23 13.99c93.51,51.87 238.65,152.62 314.22,218.12 69,59.81 146.94,167.89 178.18,247.03 39.85,101.03 33.79,198.92 -18.79,302.87 -18.3,36.21 -63.7,103.13 -68.1,100.4 -7.29,-4.5 -48.94,-70.97 -66.55,-106.16 -64.77,-129.51 -55.83,-256.53 27.14,-386.49 8.75,-13.7 15.91,-27.07 15.91,-29.7 0,-16.71 -162.32,-160.55 -180.96,-160.36 -5.95,0.05 -32.18,35.4 -59.24,79.78 -98.87,162.23 -121.61,343.77 -64.45,514.67 43.79,130.89 124.46,249.65 263.22,387.5l68.04 67.58 77.67 -79.55c160.84,-164.79 238.63,-294.85 272.09,-454.96 11.39,-54.49 11.51,-162.09 0.23,-218.36 -42.78,-213.61 -191.73,-402.65 -501.84,-636.95 -38.98,-29.45 -72.87,-55.3 -75.31,-57.44 -2.59,-2.27 15.36,-24.19 42.88,-52.4 49.5,-50.73 77.31,-80.62 143.48,-154.17l39.81 -44.24 18.92 22.98c10.39,12.64 61.52,66.15 113.6,118.9 52.08,52.76 94.68,97.86 94.68,100.21 0,2.35 -27.64,26.27 -61.43,53.16 -33.79,26.89 -75.89,62.41 -93.58,78.96l-32.12 30.04 70.22 71.31c38.62,39.23 77.53,80.38 86.48,91.45l16.24 20.16 82.71 -54.91c68.22,-45.28 108.54,-69.91 133.18,-81.34 1.77,-0.83 17.72,12.12 35.43,28.75 146.19,137.25 434.52,353.41 644.21,482.91 45.48,28.11 95.44,59.05 111.04,68.78 15.59,9.71 38.46,23.44 50.8,30.5l22.45 12.82 0.32 -374.95c0.34,-403.98 -0.28,-586.78 -2.05,-588.55 -2.23,-2.24 -171.84,51.64 -208.57,66.24l-37.8 15.03 -2.36 211.77 -2.36 211.78 -42.53 -29.49c-109.95,-76.2 -229.75,-170.39 -287.54,-226.06l-41.82 -40.28 34.78 -16.6c19.11,-9.13 46.43,-21.76 60.7,-28.06 14.27,-6.29 41.9,-18.75 61.4,-27.7 50.31,-23.1 191.95,-80.27 283.54,-114.46 226.76,-84.67 489.14,-161.48 741.91,-217.2 48.09,-10.59 94.39,-20.81 102.91,-22.71 14.5,-3.22 10.9,-5.36 -56.71,-33.82 -43.55,-18.33 -87.63,-38.43 -130.58,-59.4l-723.71 0 -0.01 18.91 -46.06 16.12c-148.3,51.91 -337.62,142.12 -503.65,239.98l-51.16 30.17 -50.43 -47.07c-64.96,-60.61 -88.24,-84.98 -147.34,-154.14 -29.44,-34.46 -57.52,-69.16 -84.14,-103.97l-325.93 0 -22.5 28.86c-62.01,79.55 -241.88,275.95 -252.74,275.95 -2.11,0 -20.47,-9.86 -40.83,-21.91 -178.12,-105.41 -352.1,-188.57 -522.57,-249.75l-36.61 -13.14 0.01 -20.01 -723.92 0z"/>
   <path class="fil0" d="M5248.31 1152.43c-3.47,3.83 -92.52,-103.76 -90.61,-109.47 1.57,-4.7 184.6,-167.85 186.62,-166.33 0.68,0.5 -14.54,46.45 -33.82,102.09 -40.06,115.59 -60.01,171.29 -62.19,173.71zm-28.86 82.53c-2.38,8.27 -6.51,15.03 -9.17,15.03 -2.68,0 -26.1,-25.52 -52.03,-56.72 -45.4,-54.6 -46.99,-57.27 -42.71,-72.05 2.44,-8.45 6.04,-15.37 7.99,-15.37 1.95,0 25.3,25.68 51.89,57.05 46.26,54.6 48.15,57.7 44.03,72.06zm-35.51 85.95c-2.66,2.67 -132.05,55.6 -149.07,60.99l-10.52 3.32 8.15 -22.15c2.58,-7.03 4.33,-11.97 7.24,-16.11 7.02,-10.07 20.77,-15.46 69.42,-34.91 49.47,-19.78 52.39,-20.02 66.14,-5.37 6.1,6.49 9.99,12.89 8.64,14.23zm-52.74 158.72c-5.17,13.76 -246.05,339.79 -251.04,339.79 -6.95,0 11.49,-29.25 57.25,-90.73 28.19,-37.89 83.8,-112.73 123.57,-166.29 39.78,-53.57 73.09,-97.39 74.02,-97.39 0.93,0 -0.77,6.57 -3.8,14.62zm-86.47 238.36c-19.6,54.49 -39.89,111.3 -45.1,126.25 -5.21,14.94 -10.88,27.13 -12.58,27.07 -4.43,-0.13 -48.01,-59.78 -48.01,-65.71 0,-5.22 137.76,-190.24 139.98,-188.01 0.72,0.73 -14.71,45.91 -34.29,100.4zm-89.22 248.12c-4.28,12.88 -9.2,23.4 -10.94,23.35 -3.18,-0.11 -55.82,-69.02 -67.3,-88.1 -5.42,-9.02 -4.57,-12.29 7.31,-27.84 10.95,-14.37 14.39,-16.41 18.59,-11 2.84,3.64 17.53,23.16 32.65,43.37l27.48 36.77 -7.79 23.45zm-6.27 760.64c-2.2,0 -7.47,-6.91 -11.73,-15.36 -6.32,-12.53 -7.98,-34.01 -9.01,-116.49l-1.27 -101.13 8.17 34.97c4.49,19.24 10.31,64.75 12.94,101.13 5.87,81.03 6.01,96.88 0.9,96.88zm84.58 -68.06c8.73,34.19 11.12,58.44 12.68,129.49l1.92 87.43 -12.16 -17.48c-11.14,-16 -12.16,-21.56 -12.2,-66.15 -0.04,-50.41 -7.56,-170.25 -12.05,-192.16 -5.84,-28.52 11.25,17.62 21.81,58.87zm47.83 13.66c6.02,7.76 21.19,26.88 33.7,42.46 12.5,15.6 30.04,36.26 38.98,45.93l16.26 17.57 0 113.63c0,73.67 -1.69,113.62 -4.79,113.62 -2.63,0 -22.64,-17.86 -44.48,-39.69l-39.67 -39.68 -2.1 -122.16c-1.15,-67.2 -3.62,-127.49 -5.5,-133.99 -3.23,-11.26 -2.88,-11.14 7.6,2.31zm-224.52 -397.48c0,-6.2 30.91,-68.54 32.96,-66.49 0.67,0.67 6.53,25.6 13.03,55.41 6.5,29.81 15.03,64.72 18.97,77.59 3.94,12.89 6.59,23.98 5.9,24.67 -2.47,2.46 -70.86,-85.53 -70.86,-91.18zm35.98 357.37c-2.66,0 -19.98,-30.43 -38.51,-67.62l-33.7 -67.61 -0.01 -39.9c-0.01,-43.51 12.79,-124.02 19.09,-120.12 2.16,1.35 10.33,19.04 18.15,39.33 7.83,20.3 18.52,58 23.76,83.8 11.01,54.3 18.7,172.12 11.22,172.12zm-83.48 -327.63c-3.76,10.66 -9.56,35.58 -12.88,55.37 -3.32,19.78 -7.36,35.98 -8.99,35.98 -3.71,0 -27.34,-99.32 -30.35,-127.6 -1.25,-11.69 -3.54,-32.79 -5.1,-46.88 -3.55,-32.05 0.08,-29.66 37.27,24.55l26.9 39.18 -6.85 19.4zm-38.21 -175.4c9.6,-27.23 12.91,-39.52 17.58,-40.05 4.14,-0.48 9.33,8.27 20.92,24.02 12.11,16.48 28.96,39.15 37.44,50.39l15.42 20.45 -15.03 27.92c-8.27,15.35 -16.32,27.94 -17.9,27.99 -1.58,0.04 -17.26,-19.48 -34.86,-43.39l-31.99 -43.46 8.42 -23.87zm53.57 -156.19c4.2,-11.71 9.17,-20.76 11,-20.1 1.85,0.65 21.59,24.58 43.87,53.17 42.92,55.11 42.95,55.19 29.14,89.04l-5.91 14.48 -42.88 -57.64 -42.88 -57.63 7.66 -21.32zm112.87 -331.22c9.14,-26.32 21.41,-48.41 41.35,-74.48 102.03,-133.32 111.22,-144.14 125.25,-147.21 7.72,-1.7 15.35,-5.19 16.93,-7.77 1.6,-2.57 4.04,-3.53 5.45,-2.12 1.4,1.4 -5.84,13.77 -16.1,27.48 -10.24,13.72 -55.52,74.43 -100.59,134.9 -45.08,60.48 -82.7,109.21 -83.62,108.28 -0.93,-0.91 4.17,-18.51 11.33,-39.08zm139.1 -408.74l9.7 -28.73 15.98 15.48c8.79,8.52 15.98,17.84 15.98,20.72 0,4.43 -38.28,21.37 -48.14,21.3 -1.78,-0.02 1.14,-12.96 6.48,-28.77zm384.26 -251.24l1.35 47.84 1.35 47.85 -56.44 79.15c-31.03,43.53 -59.75,83.39 -63.81,88.6 -6.84,8.75 -7.38,6.15 -7.48,-35.44l-0.11 -44.89 62.57 -91.56 62.57 -91.55zm31.47 2005.99c1.77,0.67 23.05,20.35 47.3,43.74 24.25,23.39 55.8,52.58 70.09,64.86l25.99 22.33 -122.08 0.13c-67.14,0.05 -121.37,-1.49 -120.5,-3.44 4.67,-10.5 96.48,-128.62 99.2,-127.62zm247.62 205.05c15.44,9.44 33.91,20.62 41.04,24.81 7.14,4.19 12.98,9.23 13,11.17 0.01,1.96 -71.75,3.53 -159.45,3.51l-159.5 -0.04 -31.68 -24.77c-17.43,-13.63 -31.8,-26.36 -31.91,-28.32 -0.12,-1.94 67.44,-3.53 150.1,-3.53l150.33 0 28.07 17.17zm-401.95 -104.6l-1.27 -122.02c-1.24,-120.59 -1.13,-122.19 9.45,-135.61 5.9,-7.46 12.17,-13.69 13.95,-13.84 1.77,-0.14 22.6,25.79 46.31,57.64 23.7,31.83 42.24,61.07 41.19,64.98 -1.04,3.89 -26.14,38.98 -55.77,77.97l-53.86 70.88zm125.22 -262.19l0 24.88 -30.71 -41.68c-16.9,-22.93 -30.72,-42.95 -30.72,-44.51 0,-3.58 14.09,-23.83 16.58,-23.83 1.01,0 11.53,13.55 23.35,30.13 18.98,26.6 21.5,33.05 21.5,55.01zm-125.76 -358.84c1,1.09 29.71,41.32 63.79,89.38 61.21,86.36 61.97,87.75 61.97,113.19 0,15.18 -1.71,23.91 -4.17,21.27 -2.3,-2.47 -31.02,-42.08 -63.81,-88.01l-59.61 -83.52 0 -27.14c0,-14.93 0.83,-26.25 1.83,-25.17zm-1.7 -203.78l0.13 -35.25 13.93 16.53c7.64,9.1 13.88,17.61 13.85,18.91 -0.03,1.3 -6.36,9.72 -14.05,18.72l-13.99 16.36 0.13 -35.27zm0 -245.73l0.13 -35.26 13.93 16.54c7.64,9.1 13.88,17.6 13.85,18.9 -0.03,1.3 -6.36,9.73 -14.05,18.72l-13.99 16.36 0.13 -35.26zm0 -255.18l0.13 -35.27 13.93 16.55c7.64,9.09 13.88,17.59 13.85,18.89 -0.03,1.31 -6.36,9.73 -14.05,18.73l-13.99 16.37 0.13 -35.27zm11.22 -370.73c-4.24,6.47 -8.52,11.76 -9.52,11.76 -1.01,0 -1.83,-9.57 -1.83,-21.27 0,-23.11 3.87,-26.57 13.12,-11.76 4.9,7.85 4.59,11.56 -1.77,21.27zm106.79 250.52c0,3.82 -49.08,68.43 -51.85,68.25 -1.37,-0.1 -16.84,-18.7 -34.39,-41.36l-31.88 -41.19 -0.01 -60.24c0,-33.14 1.02,-60.25 2.25,-60.25 1.26,0 10.55,9.03 20.66,20.08 25.98,28.37 95.22,111.79 95.22,114.71zm-26.37 -364.52l-35.84 50.24 -8.64 -10.67c-4.75,-5.87 -7.24,-12.98 -5.51,-15.81 6.39,-10.53 83.5,-119.82 84.63,-119.96 0.66,-0.08 1.18,10.23 1.18,22.91 0,21.15 -2.97,27.22 -35.82,73.29zm25.94 123c-19.21,-17.38 -20.08,-24.43 -5.76,-47.08 7.31,-11.57 13.81,-21.02 14.46,-21.03 0.66,-0.02 1.18,17.33 1.18,38.52l0 38.54 -9.88 -8.95zm-31.88 108.93c-21.67,-25.9 -40.47,-49.65 -41.76,-52.76 -1.3,-3.1 1.55,-10.89 6.33,-17.29 8.06,-10.81 9.28,-11.1 17.19,-4.03 4.68,4.19 20.21,21.92 34.51,39.41 25.1,30.68 25.96,32.66 24.57,56.78l-1.44 24.99 -39.4 -47.1zm29.56 267.55l-12.2 -14.5 11.02 -13.95c6.06,-7.67 11.55,-14.07 12.2,-14.21 0.66,-0.14 1.18,12.66 1.18,28.46l0 28.71 -12.2 -14.51zm0.12 255.32l-12.09 -14.35 10.62 -14.36c5.83,-7.89 11.26,-14.34 12.08,-14.34 0.81,0 1.47,12.92 1.47,28.71l0 28.7 -12.08 -14.36zm0.46 245.46l-11.63 -15.75 10.45 -13.26c5.74,-7.29 10.97,-13.37 11.62,-13.51 0.66,-0.15 1.18,12.91 1.18,29.01l0 29.27 -11.62 -15.76zm-48.86 38.66c2.11,0.7 16.58,18.27 32.15,39.07l28.31 37.79 0.01 73.01c0,40.15 -1.79,70.99 -3.98,68.52 -2.19,-2.46 -27.82,-37.95 -56.93,-78.87l-52.94 -74.38 24.77 -33.21c13.63,-18.27 26.5,-32.64 28.61,-31.93zm-56.17 -424.85c-1.98,-4.99 49.56,-76.69 55.22,-76.81 1.31,-0.03 14.06,15.17 28.36,33.78 14.3,18.61 26.68,35.51 27.54,37.58 1.94,4.68 -50.61,77.13 -55.93,77.13 -3.89,0 -50.99,-61.18 -55.19,-71.68zm48.12 184.49c2.58,-3.56 5.76,-6.42 7.07,-6.33 1.33,0.09 13.76,15.06 27.64,33.27 14.99,19.67 24.15,35.97 22.54,40.15 -3.43,8.94 -46.99,68 -50.15,68 -3.13,0 -46.71,-59.02 -50.09,-67.87 -1.51,-3.93 6.17,-18.51 17.81,-33.83 11.26,-14.81 22.59,-29.83 25.18,-33.39zm-55.22 556.44c3.77,-1.14 11.19,9.91 25.79,30.37l17.04 23.87 -23.33 30.15 -23.34 30.15 0 -60.93c0,-35.78 -0.37,-52.35 3.84,-53.61zm658.44 635.03c-95.28,-46.53 -184.99,-97.37 -251.15,-143.02 -63.41,-43.74 -107.72,-80.45 -168.93,-139.97l-53.16 -51.68 -1.18 -1147.31 -1.19 -1147.32 -54.88 48.17c-30.18,26.5 -105.66,93.19 -167.76,148.18 -62.09,55.01 -135.57,119.86 -163.31,144.13l-50.41 44.14 -23.57 68.51c-12.96,37.7 -41.69,121.7 -63.84,186.67 -22.15,64.98 -63.94,187.26 -92.87,271.73 -199.85,583.49 -212.08,618.21 -212.64,653.13 -0.05,3.27 0,6.56 0.01,10.31 0.16,68.96 19.08,176.16 47.42,268.62 59,192.52 164.49,388.1 307.51,570.11 40.71,51.8 169.18,184.88 178.47,184.88 3.77,0 5.2,-67.14 5.09,-239.83l-0.18 -239.83 -21.69 -23.62c-68.11,-74.18 -121.1,-151.74 -167.01,-244.45 -45.33,-91.53 -82.89,-213.17 -92.31,-299.01 -0.46,-4.2 -1.06,-7.21 -1.41,-10.24 -2.22,-19.34 6.11,-39.88 129.15,-379.61 16.48,-45.49 39.89,-110.35 52.05,-144.14 66.08,-183.76 140.58,-387.75 142.2,-389.47 1.04,-1.08 1.87,452.93 1.87,1008.92l-0.01 992 723.73 0z"/>
   <path class="fil0" d="M3713.88 2199.4c1.14,1.15 -0.34,29.37 -3.31,62.7 -5.54,62.16 -21.49,152.13 -28.16,158.93 -2.06,2.1 -5.17,-9.6 -6.88,-25.99 -1.73,-16.38 -7.31,-45.74 -12.41,-65.24 -5.12,-19.5 -9.33,-38.9 -9.37,-43.11 -0.09,-8.3 56.69,-90.72 60.13,-87.29zm-116.58 430.48l-24.44 42.53 2.03 -96.87c2.21,-104.62 8.29,-137.99 39.2,-215.22l13.04 -32.59 6.11 23.49c3.34,12.91 8.09,44.74 10.55,70.73 9.03,95.44 3.22,121.4 -46.49,207.93zm-27.14 -310c1.27,-4.15 5.06,-28.48 8.4,-54.06l6.09 -46.52 13 27.64c9.06,19.25 11.7,29.93 8.71,35.16 -7.58,13.24 -38.6,45.63 -36.2,37.78zm-17.32 -236.64c-4.18,-10.66 -6.07,-21.95 -4.19,-25.09 9.02,-15.1 79.04,-106.41 81.61,-106.41 1.6,0 5.3,7.77 8.22,17.27 1.66,5.4 2.95,9.25 3.09,13.14 0.42,10.98 -8.28,22.31 -43.55,69.83l-37.57 50.63 -7.61 -19.37zm-24.4 667.14l-9.46 16.54 -1.38 -70.89c-1.35,-68.52 3.41,-126.22 14.31,-173.43 2.89,-12.47 5.41,-22.69 5.62,-22.69 0.19,0 0.36,52.64 0.36,116.97 0,108.29 -0.7,118.18 -9.45,133.5zm-78.08 -115.58c-2.46,23.28 -4.49,82.81 -4.53,132.3l-0.09 89.96 -14.42 16.36 -14.42 16.36 2.4 -92.15c1.38,-53.18 5.18,-104.13 8.98,-120.51 9.32,-40.02 23.22,-87.95 25.02,-86.16 0.83,0.83 -0.5,20.57 -2.94,43.84zm-61.41 66.26c-2.52,15.43 -4.61,73.41 -4.62,128.85l-0.03 100.81 -42.14 42.15c-23.19,23.17 -44.77,42.15 -47.98,42.15 -4.54,0 -5.07,-25.55 -2.44,-116.58l3.39 -116.56 28.3 -30.89c15.56,-16.98 37.22,-41.9 48.13,-55.35 10.9,-13.46 20.32,-24.06 20.91,-23.56 0.6,0.5 -0.98,13.53 -3.52,28.98zm132.24 -711.51c-1.64,0 -5.37,-7.81 -8.3,-17.35 -5.02,-16.33 -4.31,-18.77 11.99,-41.36 9.52,-13.19 24.76,-33.25 33.87,-44.58l16.55 -20.59 10.6 13.29c5.83,7.32 8.98,15.51 6.99,18.23 -40.42,55.12 -69.33,92.36 -71.7,92.36zm-39.32 -107.57c-1.4,-2.27 -15.22,-40.13 -30.72,-84.14 -15.48,-44 -34.54,-98.09 -42.35,-120.18 -15.42,-43.68 -19.8,-55.72 -18.64,-56.28 0.52,-0.25 2.15,1.83 4.39,4.4 3.47,3.95 35.62,46.01 71.47,93.46 35.85,47.46 66.21,88.96 67.47,92.24 2.74,7.15 -47.97,76.41 -51.62,70.5zm-142.96 -407.53c1.02,0 19.57,23.93 41.22,53.17 21.66,29.24 70.02,94.63 107.5,145.31 37.48,50.69 73.15,98.91 79.28,107.19 13.49,18.2 25.17,45.99 14.54,34.58 -3.63,-3.9 -56.59,-74.06 -117.71,-155.95 -110.46,-147.97 -135.06,-184.3 -124.83,-184.3zm17.67 -57.18c17.36,7.57 31.23,22.59 87.38,94.61 58.84,75.46 68.5,90.44 81.6,126.4 8.17,22.44 14.27,41.36 13.56,42.08 -0.7,0.7 -17.44,-20.34 -37.19,-46.79 -116.68,-156.19 -151.35,-202.96 -158.26,-213.51l-7.73 -11.8 20.64 9.01zm-51.08 -122.39c3.06,0 30.65,9.91 61.35,22.04 51.47,20.34 56.32,23.33 62.78,38.76 3.84,9.21 6.37,19.35 5.63,22.54 -0.88,3.87 -26.57,-4.43 -76.78,-24.82 -41.51,-16.86 -76.1,-31.26 -76.86,-32.05 -2.84,-2.83 18.48,-26.46 23.88,-26.47zm-47.94 -42.16l-5.46 -16.57c-3.04,-9.22 -3.76,-19.61 -1.61,-23.37 6.34,-11.12 88.47,-106.92 91.68,-106.92 1.63,0 4.98,6.9 7.45,15.35 4.24,14.48 2.74,17.53 -26.05,53.16 -16.79,20.8 -38.52,46.94 -48.28,58.08l-17.73 20.27zm-34.57 -104.33c-1.74,0 -5.23,-5.86 -7.79,-13 -16.2,-45.45 -80.96,-232.32 -83.7,-241.44l-3.3 -11.09 13.45 11.68c7.41,6.43 46.42,40.73 86.7,76.21 40.29,35.5 75.17,67.33 77.51,70.74 3,4.41 -8.02,20.93 -37.74,56.57 -23.08,27.68 -43.39,50.33 -45.13,50.33zm-93.87 54.74l0 46.27 -63.61 -89.5 -63.61 -89.49 -0.18 -49.15 -0.19 -49.15 13.32 18.44c7.3,10.14 36.02,51.71 63.78,92.37l50.49 73.95 0 46.26zm0 430.27l-28.84 38.66c-15.87,21.28 -30.22,38.57 -31.9,38.46 -4.94,-0.35 -49.53,-61.36 -49.53,-67.76 0,-5.58 103.69,-135.23 108.14,-135.23 1.17,0 2.13,28.32 2.13,62.94l0 62.93zm-9.44 145.86c-5.21,-4.7 -9.46,-11.78 -9.46,-15.72 0,-6.27 12.84,-24.45 17.27,-24.45 0.9,0 1.63,10.96 1.63,24.36 0,24.06 -0.12,24.26 -9.44,15.81zm2.54 503.43c-11.61,-9.63 -13.12,-22.86 -4.02,-35.35 4.71,-6.47 9.09,-11.82 9.74,-11.91 0.65,-0.08 1.18,11.81 1.18,26.42 0,22.77 -0.99,25.75 -6.9,20.84zm6.77 402.71l-0.13 53.16 -13.8 -16.53c-26.69,-31.96 -26.88,-33.9 -6.57,-63.14 10.05,-14.45 18.8,-26.37 19.45,-26.47 0.65,-0.1 1.13,23.74 1.05,52.98zm-0.97 277.22l-1.26 123.87 -54.34 -71.47c-29.9,-39.32 -54.13,-74 -53.85,-77.09 0.67,-7.47 87.21,-121.39 92.24,-121.39 2.15,0 7.18,5 11.19,11.11 6.17,9.41 7.08,29.92 6.02,134.97zm-176.11 156.35c-66.28,0 -120.44,-1.59 -120.35,-3.54 0.08,-1.95 9.41,-10.53 20.75,-19.06 11.33,-8.54 42.63,-36.62 69.55,-62.39 26.93,-25.78 50.15,-46.97 51.62,-47.1 1.47,-0.12 24.33,28.37 50.8,63.34 26.48,34.95 48.14,64.72 48.14,66.15 0,1.43 -54.23,2.6 -120.51,2.6zm98.75 65.09c-5.46,4.49 -21.67,17.25 -36.01,28.36l-26.08 20.19 -161.99 -0.34c-89.1,-0.19 -160.09,-2.13 -157.74,-4.33 2.35,-2.19 21.27,-14.82 42.06,-28.03l37.81 -24.05 155.94 0.02c148.44,0.01 155.48,0.41 146.01,8.18zm8.76 -1882.85c-55.36,-77.11 -57.89,-81.63 -57.75,-103.72l0.16 -23.12 10.48 13.8c5.77,7.59 34.41,47.53 63.65,88.76 51.57,72.71 53.15,75.68 53,99.61 -0.15,21.55 -0.89,23.44 -5.91,14.99 -3.16,-5.32 -31.78,-45.96 -63.63,-90.32zm-55.9 258.31c-1.09,0 -1.99,-9.4 -1.99,-20.89 0,-18.91 3.45,-25.28 36.27,-66.83l36.28 -45.93 8.78 10.82c4.81,5.97 8.17,12.57 7.42,14.68 -1.86,5.36 -84.31,108.15 -86.76,108.15zm14.79 219.83c-6.9,9.06 -13.49,16.45 -14.66,16.45 -1.17,0 -2.12,-16.37 -2.12,-36.38l0 -36.37 14.66 19.93 14.66 19.95 -12.54 16.42zm79.06 150.65c-20.49,26.83 -28.46,34.17 -33.02,30.38 -3.31,-2.74 -16.9,-19.67 -30.2,-37.62 -21.64,-29.18 -23.52,-33.57 -17.78,-41.57 25.5,-35.46 49.35,-66.23 51.47,-66.35 1.38,-0.08 14.67,15.66 29.53,34.96 14.87,19.32 27.03,37.3 27.03,39.98 0,2.67 -12.16,20.77 -27.03,40.22zm20.1 100.06l-11.3 -13.84 10.28 -13.07c5.67,-7.19 10.84,-13.2 11.49,-13.34 0.65,-0.14 1.11,11.96 1.01,26.92l-0.16 27.16 -11.32 -13.83zm-20.23 146.37l-27.2 35.9 -14.86 -17.09c-8.18,-9.41 -20.66,-25.48 -27.76,-35.72 -12.68,-18.28 -12.76,-18.83 -4.49,-31.67 8.88,-13.79 44.69,-57.96 46.98,-57.96 0.75,0 13.32,15.9 27.94,35.32l26.59 35.33 -27.2 35.89zm-81.34 68.12c7.68,9 13.93,17.51 13.86,18.91 -0.07,1.4 -6.39,9.98 -14.05,19.08l-13.93 16.53 0.07 -35.44 0.05 -35.44 14 16.36zm-12.57 -193.56c-0.99,0 -1.8,-16.37 -1.8,-36.38l0 -36.37 14.49 19.72 14.52 19.72 -12.71 16.65c-6.98,9.16 -13.51,16.66 -14.5,16.66zm66.25 402.77c-27.85,39.68 -54.54,77.23 -59.33,83.42 -8.59,11.1 -8.72,10.1 -8.72,-62.97l0 -74.24 31.9 -41.94c17.55,-23.06 33.13,-42.06 34.65,-42.18 1.52,-0.13 9.07,7.75 16.77,17.49 7.71,9.75 18.82,24.59 24.67,32.99l10.67 15.27 -50.61 72.16zm2.52 307.42l-10.21 14.68c-5.62,8.08 -21.5,29.26 -35.28,47.07l-25.08 32.37 0 -22.15c0,-18.96 3.5,-27.23 24.32,-57.35l24.34 -35.19 10.95 10.27 10.96 10.3zm-46.88 -88.88l-23.69 32.98 0 -26.86c0,-25.39 1.61,-29.09 29.71,-68.41 16.35,-22.87 44.53,-62.43 62.62,-87.95l32.9 -46.36 1.44 24.48c1.2,20.19 -0.8,27.87 -11.45,44 -7.1,10.75 -25.26,36.55 -40.38,57.34 -15.09,20.8 -38.12,52.65 -51.15,70.78zm-23.69 -1300.05c0,-25.4 1.75,-44.16 3.88,-41.69 2.14,2.47 10.67,13.34 18.97,24.15l15.06 19.65 -13.02 15.79c-12.32,14.92 -18.54,22.94 -21.7,21.87 -3.48,-1.18 -3.19,-13.47 -3.19,-39.77zm375.12 -168.51l10.45 27.85c5.73,15.32 9.78,28.53 8.98,29.39 -2.11,2.22 -49.58,-15.11 -49.58,-18.11 0,-1.4 6.78,-10.77 15.08,-20.83l15.07 -18.3zm303.04 888.32c3.06,7.29 9.25,24.43 13.76,38.07l8.23 24.8 -33.28 45.14 -33.27 45.14 -16.88 -33.51c-9.28,-18.44 -15.33,-36.09 -13.45,-39.22 1.9,-3.15 18.26,-25.52 36.38,-49.71l32.95 -43.98 5.56 13.27zm-71.75 -397.86c-24.69,-72.77 -54.08,-158.9 -65.31,-191.38 -11.23,-32.5 -52.58,-153.62 -91.9,-269.15 -39.32,-115.54 -71.95,-210.37 -72.5,-210.76 -3.9,-2.61 -168.57,-146.67 -218.39,-191.03 -33.78,-30.09 -70.1,-62.1 -80.68,-71.12 -10.59,-9.02 -45.67,-39.66 -77.98,-68.06l-58.71 -51.63 -1.2 1145.45 -1.2 1145.43 -55.5 54.57c-108.65,106.76 -242.04,196.83 -417.9,281.31l723.91 0 0.22 -998.91 0.22 -1018.93 11.82 30.71c13.65,35.51 295.07,823.83 316.94,887.8 5.87,17.19 6.19,28.53 1.89,68.07 -17.15,157.59 -95.85,309.88 -250.12,483.97l-38.47 43.41 0 236.58c0,130.13 1.71,236.59 3.79,236.59 6.67,0 105.88,-100.02 147.67,-148.87 105.16,-122.95 183.18,-242.53 254.33,-389.85 83.73,-173.38 132.94,-351.31 132.94,-480.78 0,-41.95 -0.68,-44.43 -59.49,-216.78 -32.72,-95.88 -79.68,-233.87 -104.38,-306.64z"/>
  </g>
 </g>
</svg>
