<?xml version="1.0" encoding="UTF-8"?>
<!DOCTYPE svg PUBLIC "-//W3C//DTD SVG 1.1//EN" "http://www.w3.org/Graphics/SVG/1.1/DTD/svg11.dtd">
<!-- Creator: CorelDRAW 2020 (64-Bit) -->
<svg xmlns="http://www.w3.org/2000/svg" xml:space="preserve" width="84.6666mm" height="42.3332mm" version="1.1" style="shape-rendering:geometricPrecision; text-rendering:geometricPrecision; image-rendering:optimizeQuality; fill-rule:evenodd; clip-rule:evenodd"
viewBox="0 0 8466.66 4233.32"
 xmlns:xlink="http://www.w3.org/1999/xlink"
 xmlns:xodm="http://www.corel.com/coreldraw/odm/2003">
 <defs>
  <style type="text/css">
   <![CDATA[
    .fil1 {fill:black;fill-rule:nonzero}
    .fil0 {fill:#0063D7;fill-rule:nonzero}
    .fil2 {fill:#FFE600;fill-rule:nonzero}
   ]]>
  </style>
 </defs>
 <g id="Layer_x0020_1">
  <metadata id="CorelCorpID_0Corel-Layer"/>
  <g id="_2285119185184">
   <path class="fil0" d="M1934.07 1676.73c-3.58,-55 -36.23,-493.29 -46.51,-623.88 -3.58,-45.62 -27.73,-178.44 -78.7,-439.17 -3.13,-14.76 -15.21,-78.27 -27.28,-141.32l-22.36 -114.05 -62.61 -141.32c-34.44,-77.81 -69.77,-156.07 -78.27,-173.96l-15.66 -32.21 -9.84 21.47c-5.36,11.63 -40.24,89.89 -77.82,173.53 -59.48,133.72 -68.87,157.42 -75.58,191.41 -12.08,61.72 -79.16,408.76 -98.39,507.15 -18.79,95.26 -18.79,97.5 -42.94,417.71 -7.6,100.17 -16.11,213.77 -19.24,253.13 -11.63,150.71 -19.67,448.12 -13.86,521.91 12.97,162.34 71.11,335.86 168.6,502.68 14.31,24.6 29.52,50.54 34,58.58l8.04 13.87 -8.49 10.72 266.56 0c-122.09,-159.65 -207.06,-322 -243.74,-467.79 -21.02,-83.63 -21.91,-93.02 -21.02,-268.77 0.9,-175.77 4.47,-264.31 16.55,-411.89 4.02,-50.99 10.29,-126.57 13.41,-168.16 28.62,-364.48 28.62,-366.72 48.3,-481.66 21.47,-126.56 43.38,-253.58 50.99,-293.83l4.91 -27.28 3.13 17.44c1.79,9.4 18.79,108.67 38.01,220.49l34.89 203.04 19.23 249.55c10.73,137.3 22.81,292.04 26.83,344.36 9.4,119.41 17,444.54 11.63,502.69 -9.39,99.72 -35.78,189.62 -86.31,294.27 -12.08,24.6 -21.47,46.96 -21.47,49.19 0,8.95 28.18,60.83 55.45,101.07 24.15,35.78 63.95,89 67.08,89 1.78,0 27.28,-44.27 55.9,-97.04 69.32,-127.46 113.6,-259.83 130.14,-388.19 4.92,-38.91 5.37,-76.92 3.58,-228.98 -2.21,-100.21 -4.89,-210.22 -7.14,-243.76zm-478.52 -1105.09l20.57 -104.21 1.35 40.7c0.45,22.35 -0.45,57.25 -2.68,77.37 -5.37,47.85 -22.36,114.93 -42.94,167.26 -8.95,22.81 -16.99,41.15 -17.44,40.7 -1.8,-1.34 3.12,-27.28 41.14,-221.82zm-36.68 525.49c0.9,0.89 8.5,51.43 16.55,113.15 16.1,118.06 17.89,143.56 11.18,163.23 -4.03,12.08 -11.18,16.54 -11.18,7.16 0,-2.68 -8.05,-59.48 -17.89,-126.56l-17.89 -121.64 8.94 -18.79c4.93,-9.84 9.4,-17.45 10.29,-16.55zm2.24 1054.1c1.34,-4.02 2.23,-6.71 3.13,-6.71 1.78,0 3.58,10.29 9.39,41.15l6.71 36.67 -16.1 40.7c-8.95,22.35 -16.99,41.14 -17.89,42.04 -2.68,2.68 -32.65,-19.68 -32.65,-24.15 0,-2.69 29.07,-83.19 47.41,-129.7zm-28.17 -163.23c0,-2.69 5.81,-19.24 12.52,-36.68l12.53 -32.2 1.34 22.36c0.9,12.07 0,36.68 -1.34,54.12 -1.35,17.44 -4.03,31.75 -5.37,31.75 -3.14,0.44 -19.68,-32.64 -19.68,-39.35zm-3.58 -1016.55c8.94,-20.57 8.94,-21.02 11.63,-9.39 1.34,6.26 2.68,19.23 2.68,29.07 0,11.17 -3.13,23.7 -8.95,34.88l-8.94 17.44 -2.68 -25.49c-2.24,-21.91 -1.35,-28.62 6.26,-46.51zm-74.69 1124.77c-1.78,-2.68 -3.13,-25.94 -3.13,-51.88l0 -47.41 44.27 -124.33 44.28 -124.32 -5.82 -35.33c-3.13,-19.24 -16.1,-104.66 -28.61,-190.07l-22.81 -154.74 5.81 -77.37c3.14,-42.49 6.72,-80.06 8.05,-83.19 3.13,-8.04 4.47,1.35 39.36,237.93l30.41 208.85 -2.68 89 -2.68 89 -51.88 134.17c-30.87,81.4 -52.78,132.37 -54.57,129.69zm21.02 141.78l-4.47 -20.13c-4.46,-20.12 -7.16,-31.3 -6.71,-42.48 0.45,-16.55 7.16,-33.55 24.15,-77.82 14.76,-38.46 27.29,-69.77 28.62,-69.77 0.9,0 5.82,8.95 10.73,20.13 4.92,11.18 8.5,21.92 8.5,24.15 0,4.03 -45.17,127.91 -55.45,152.06l-5.37 13.86zm317.98 419.49c1.34,2.23 -2.68,2.23 -10.73,-0.45 -11.18,-3.58 -13.86,-7.16 -21.47,-27.73 -4.47,-12.98 -8.5,-25.49 -8.5,-27.29 0.44,-2.67 29.07,36.69 40.7,55.47zm-64.85 -59.93c0.45,0.45 -2.68,12.07 -7.16,25.93 -4.46,13.86 -8.49,25.05 -8.94,25.49 -0.45,0.45 -7.16,3.58 -15.21,7.16 -11.18,4.92 -13.86,4.92 -11.18,0.9 8.5,-14.31 41.59,-60.37 42.49,-59.48zm-53.67 -131.03l21.47 38.01 21.47 38.01 -16.54 -2.68c-22.8,-4.03 -50.99,-15.21 -72.01,-29.52 -45.62,-31.3 -103.3,-107.33 -118.51,-156.97 -0.9,-3.13 -1.78,-5.36 -0.9,-6.26 2.24,-2.24 17.89,9.84 87.22,61.71l77.8 57.7zm-64.84 -149.83c9.84,27.29 17.44,50.09 16.99,50.54 -0.9,0.9 -14.31,-8.5 -30.41,-20.57l-29.07 -21.92 12.08 -28.62 12.07 -28.62 18.34 49.19zm11.63 -1336.75c-1.79,13.86 -6.27,63.06 -9.85,110.02 -3.58,46.95 -7.16,87.65 -8.49,90.78 -2.24,5.81 -20.12,-107.79 -20.12,-129.69 0,-9.85 38.01,-100.63 41.14,-97.5 0.45,0.9 -0.9,12.53 -2.68,26.39zm-5.38 -131.03c-45.62,100.63 -46.51,101.97 -49.19,91.23 -7.6,-27.28 -4.03,-43.82 24.15,-104.2 15.21,-32.65 31.75,-69.76 37.57,-82.29 9.39,-20.12 10.72,-21.92 12.97,-13.41 1.35,4.92 2.68,17.44 3.13,27.73 -0.45,14.75 -5.36,29.51 -28.63,80.94zm59.04 -326.47c-2.68,-5.37 -15.65,-150.27 -15.2,-173.53 0,-5.36 0,-9.39 0.89,-9.39 1.79,-0.45 6.72,14.31 25.49,63.06 10.73,28.62 19.68,54.11 19.68,57.25 0.44,11.17 -28.17,67.97 -30.86,62.61zm151.16 -138.2c-8.49,104.65 -12.97,146.24 -15.65,144.9 -1.35,-0.9 -9.39,-16.54 -17.44,-34.43l-14.76 -32.65 18.34 -45.62c10.29,-25.05 21.02,-53.22 24.6,-62.17 3.58,-8.94 6.71,-15.65 7.16,-15.2 0.89,0.45 -0.46,20.57 -2.25,45.17zm117.17 591.68l3.58 -25.05 8.95 17.44c4.91,9.4 8.94,23.26 8.94,30.86 0,7.6 -1.35,20.13 -2.68,28.18l-2.68 14.76 -9.85 -20.57c-8.94,-18.79 -9.39,-22.81 -6.26,-45.62zm3.58 156.08l-14.31 98.84c-8.04,54.56 -16.1,111.35 -18.34,127.01 -2.23,15.2 -5.36,28.18 -6.71,28.18 -4.91,0 -11.62,-21.47 -12.07,-38.91 -0.45,-17.89 1.34,-31.75 20.12,-164.14 6.26,-44.72 11.63,-82.73 11.63,-84.97 0,-2.23 4.46,4.47 10.29,14.76l9.39 19.23zm2.23 1080.94c13.42,36.23 24.16,67.08 24.16,68.87 0,4.03 -30.42,25.94 -32.2,23.71 -0.9,-0.9 -8.5,-19.68 -17.44,-41.6l-16.11 -39.8 7.16 -38.46c4.03,-21.02 8.05,-38.46 8.95,-38.46 0.9,0 12.07,29.96 25.48,65.74zm-22.35 -250.89l0 -48.3 14.31 38.01 14.31 38.01 -9.4 18.79c-5.36,10.29 -10.73,18.79 -12.07,18.79 -4.92,0.43 -7.15,-17.46 -7.15,-65.3zm-55.9 -1484.34c0.45,0.45 12.52,60.38 26.83,132.83 13.86,72.45 27.73,143.11 30.86,157.42 2.69,14.31 4.47,25.94 4.03,25.94 -2.23,0 -20.12,-41.6 -32.2,-73.79 -17.44,-46.96 -26.83,-92.13 -31.75,-146.7 -3.59,-40.24 -2.25,-99.72 2.23,-95.7zm-23.27 255.37c0.45,0.45 17.89,37.56 38.91,82.29 38.46,83.18 40.25,88.99 33.1,121.64 -2.68,12.53 -4.47,9.39 -40.25,-68.43 -23.7,-51.43 -37.56,-86.31 -37.56,-94.81 -0.01,-14.31 4.02,-42.49 5.8,-40.69zm25.5 352.41c-4.91,-59.48 -9.84,-114.49 -10.73,-123.43 -1.34,-12.52 2.24,-6.71 19.68,30.41 11.62,25.49 21.46,50.99 21.46,56.8 0,16.11 -15.2,127.91 -18.78,136.41 -1.35,4.46 -6.71,-40.26 -11.63,-100.19zm-14.76 1280.39c10.29,-33.09 35.78,-93.91 38.01,-91.68 1.79,1.79 7.16,13.87 12.53,27.29l9.84 24.15 -31.3 23.7c-21.48,16.11 -30.87,21.47 -29.08,16.54zm111.36 2.7c-6.71,13.41 -19.24,35.78 -28.18,49.64 -16.55,25.48 -75.59,88.99 -82.74,88.99 -2.23,0 -10.29,-11.62 -18.79,-25.48 -14.3,-24.16 -14.3,-25.49 -7.59,-30.42 4.02,-2.68 38.46,-28.62 76.92,-57.25 38.46,-28.61 70.21,-51.43 71.11,-50.98 0.46,0.45 -4.02,12.07 -10.73,25.5zm49.65 -171.3c-2.69,16.11 -5.82,31.75 -7.6,34.43 -2.68,4.47 -62.61,-149.82 -62.17,-160.55 0,-2.68 4.47,-13.86 10.3,-25.05l10.29 -19.67 11.17 28.62c6.27,15.65 18.34,47.4 27.29,70.66l16.1 42.04 -5.38 29.52zm15.19 -158.76c-0.45,30.87 -0.45,49.64 -4.46,50.54 -5.82,1.35 -19.24,-35.33 -54.12,-125.67l-52.77 -138.64 -2.23 -83.18 -2.24 -83.19 27.28 -183.81c14.76,-101.07 29.97,-203.04 33.55,-227.18 3.58,-24.15 7.16,-42.94 7.6,-42.04 0.9,0.9 4.03,29.96 7.16,64.84 3.13,34.89 5.81,76.48 6.26,92.58 0,17.44 -10.73,100.18 -26.83,207.96l-27.29 178.89 44.28 123.88 44.27 123.88 -0.46 41.14z"/>
   <path class="fil1" d="M2885.32 1853.38l0 -206.61 155.63 0 0 25.05 -126.56 -0.02 0 59.04 64.4 0c24.6,0 43.37,4.91 55.9,15.2 12.97,10.29 19.23,25.05 19.23,44.73 0,20.12 -7.16,35.33 -21.02,46.5 -13.86,10.73 -33.54,16.11 -59.48,16.11l-88.1 0zm29.07 -23.25l58.13 0c17,0 29.97,-3.14 38.46,-9.85 8.95,-6.71 13.42,-16.1 13.42,-29.06 0,-24.6 -17.44,-37.12 -51.89,-37.12l-58.12 0 0 76.03zm171.73 25.48c-3.13,0 -5.81,0 -8.94,-0.45 -3.13,-0.44 -6.27,-0.89 -9.85,-1.78l2.24 -26.39c3.13,0.9 6.26,1.35 9.39,1.35 8.5,0 15.66,-3.58 20.57,-10.29 4.92,-6.71 8.95,-17.44 11.18,-31.3 2.68,-13.86 4.03,-31.75 4.92,-52.77l3.13 -87.21 145.8 0 0 206.61 -29.06 0 0 -188.72 7.16 7.59 -104.66 0 6.72 -8.04 -2.24 68.42c-0.45,20.57 -1.78,38.46 -4.03,53.67 -2.23,15.21 -5.36,28.18 -9.84,38.46 -4.47,10.29 -9.84,17.89 -16.99,22.81 -6.71,5.81 -15.21,8.04 -25.5,8.04zm214.22 -2.23l93.48 -206.61 29.07 0 93.91 206.61 -30.86 0 -83.64 -190.07 11.64 0 -83.18 190.07 -30.42 0zm39.81 -51.43l8.05 -23.71 116.28 0 8.49 23.71 -132.82 0zm212.43 51.43l0 -206.61 135.5 0 -0.45 25.48 -113.14 0 7.16 -7.16 0.44 188.29 -29.51 0zm237.47 2.23c-15.65,0 -30.41,-2.68 -43.82,-8.04 -13.41,-5.37 -25.05,-12.53 -34.88,-21.92 -9.85,-9.84 -17.44,-21.02 -22.81,-33.55 -5.36,-12.52 -8.05,-26.83 -8.05,-42.04 0,-15.2 2.69,-29.07 8.05,-42.04 5.37,-12.97 12.97,-23.7 22.81,-33.54 9.84,-9.85 21.47,-17 34.88,-22.36 13.41,-5.36 28.18,-8.05 43.82,-8.05 15.66,0 30.42,2.69 43.38,8.05 13.41,4.92 25.05,12.52 34.88,21.92 9.84,9.39 17.89,20.57 22.81,33.54 5.36,12.98 8.04,26.84 8.04,42.04 0,15.21 -2.68,29.52 -8.04,42.04 -5.37,12.98 -12.98,24.16 -22.81,33.55 -9.84,9.39 -21.47,16.99 -34.88,21.92 -12.96,6.25 -27.72,8.48 -43.38,8.48zm0 -25.93c11.63,0 21.92,-1.79 31.75,-5.82 9.84,-4.03 18.34,-9.39 25.49,-16.54 7.16,-7.16 12.97,-15.66 16.99,-25.49 4.03,-9.84 6.26,-20.12 6.26,-31.75 0,-11.62 -2.23,-21.91 -6.26,-31.75 -4.03,-9.84 -9.39,-17.89 -16.99,-25.05 -7.16,-7.16 -15.66,-12.97 -25.49,-16.99 -9.84,-4.03 -20.12,-5.81 -31.75,-5.81 -11.62,0 -22.35,1.78 -32.2,5.81 -9.84,4.03 -17.89,9.4 -25.48,16.99 -7.16,7.16 -12.98,15.66 -17,25.05 -4.02,9.85 -5.81,20.13 -5.81,31.75 0,11.63 1.79,21.92 5.81,31.75 4.03,9.84 9.85,17.89 17,25.49 7.16,7.16 15.65,12.52 25.48,16.54 9.85,3.58 20.58,5.82 32.2,5.82zm288.46 9.84l0 -166.82 -90.79 0 -1.35 43.38c-0.44,14.76 -1.78,28.62 -3.13,42.04 -1.34,13.41 -3.13,25.49 -5.36,36.23 -2.23,10.73 -5.81,19.23 -9.84,26.38 -4.03,6.71 -9.4,11.18 -16.11,12.53l-31.75 -5.37c7.6,0.45 13.86,-1.78 18.79,-7.6 4.92,-5.81 8.94,-13.86 11.63,-24.6 3.13,-10.73 4.91,-22.8 6.71,-36.67 1.34,-14.31 2.23,-29.52 3.13,-45.62l2.23 -66.2 145.36 0.01 0 192.76 -29.52 0 0 -0.45zm-165.47 59.03l0.45 -70.66 224.95 0 0 70.66 -27.28 0 0 -45.17 -169.95 0 -0.45 45.17 -27.72 0zm265.65 -45.17l0 -206.61 29.07 0 0 206.61 -29.07 0zm93.47 0l0 -206.61 29.07 0 0 159.2 122.09 -159.2 27.28 0 0 206.61 -29.07 0 0 -159.21 -122.09 159.21 -27.28 0zm89 -220.92c-16.1,0 -28.62,-3.58 -37.56,-10.73 -8.5,-7.16 -12.98,-16.99 -13.41,-29.97l21.01 -0.01c0,7.6 3.13,13.86 8.04,17.89 5.37,4.03 12.53,6.26 21.47,6.26 8.95,0 16.11,-2.23 21.47,-6.26 5.37,-4.47 8.5,-10.29 8.5,-17.89l20.57 0c0,12.98 -4.92,22.81 -13.41,29.97 -8.51,7.16 -20.58,10.74 -36.68,10.74zm302.32 14.31l29.52 0 0 206.61 -29.52 0 0 -206.61zm-118.51 206.61l-29.52 0 0 -206.61 29.52 0 0 206.61zm121.2 -92.13l-124.33 0 0 -25.49 124.33 0 0 25.49zm91.23 92.13l0 -206.61 29.06 0 0 159.2 122.1 -159.2 27.28 0 0 206.61 -29.07 0 0 -159.21 -122.54 159.21 -26.83 0zm242.84 0l0 -206.61 29.06 0 0 159.2 122.1 -159.2 27.28 0 0 206.61 -29.07 0 0 -159.21 -122.54 159.21 -26.83 0zm88.99 -220.92c-16.1,0 -28.61,-3.58 -37.56,-10.73 -8.5,-7.16 -12.97,-16.99 -13.41,-29.97l21.01 -0.01c0,7.6 3.13,13.86 8.05,17.89 5.36,4.03 12.52,6.26 21.47,6.26 8.94,0 16.1,-2.23 21.46,-6.26 5.37,-4.47 8.5,-10.29 8.5,-17.89l20.57 0c-0.45,12.98 -4.91,22.81 -13.41,29.97 -8.5,7.16 -21.02,10.74 -36.68,10.74zm334.09 207.06c-25.05,0 -46.51,-3.58 -64.4,-10.29 -17.89,-7.16 -31.75,-17.44 -41.14,-30.86 -9.4,-13.42 -14.31,-29.52 -14.31,-48.76 0,-19.23 4.91,-35.33 14.31,-48.75 9.39,-13.41 23.25,-23.7 41.14,-30.86 17.89,-7.16 39.36,-10.73 64.4,-10.73 0.44,0 0.89,0 2.23,0 1.35,0 2.23,0 3.13,0 1.35,0 1.78,0 2.23,0 25.05,0 46.51,3.58 64.4,10.73 17.89,7.16 31.75,17.44 41.14,30.86 9.4,13.41 14.31,29.52 14.31,48.75 0,18.79 -4.91,35.33 -14.31,48.76 -9.39,13.41 -22.8,23.7 -40.24,30.86 -17.44,6.71 -38.91,10.29 -63.95,10.29 -0.45,0 -1.35,0 -2.68,0 -1.35,0 -2.24,0 -3.58,0 -1.35,0 -2.24,0 -2.68,0zm3.13 -22.81c0.45,0 0.89,0 1.34,0 0.45,0 0.9,0 0.9,0 20.12,0 37.12,-2.68 50.54,-7.59 13.86,-4.92 24.15,-12.53 31.3,-22.36 7.16,-9.84 10.73,-22.36 10.73,-36.68 0,-14.31 -3.58,-26.38 -10.73,-36.22 -7.16,-9.85 -17.89,-17.44 -31.75,-22.36 -13.41,-4.92 -30.42,-7.6 -50.09,-7.6 0,0 -0.9,0 -1.35,0 -0.44,0 -0.89,0 -1.34,0 -20.12,0 -37.57,2.68 -51.44,7.6 -13.86,4.92 -24.6,12.08 -31.75,21.92 -7.16,9.84 -10.73,21.92 -10.73,36.67 0,14.76 3.58,26.84 11.18,36.68 7.6,9.84 18.34,17.44 32.2,22.36 14.31,4.89 31.3,7.58 50.99,7.58zm-12.98 44.28l0 -221.82 27.29 -0.01 0 221.82 -27.29 0.01zm275.04 -5.38c-15.65,0 -30.41,-2.68 -43.82,-8.04 -13.41,-5.37 -25.05,-12.53 -34.88,-21.92 -9.85,-9.84 -17.44,-21.02 -23.26,-33.55 -5.81,-12.52 -8.04,-26.83 -8.04,-42.04 0,-15.2 2.68,-29.07 8.04,-42.04 5.37,-12.97 12.98,-23.7 23.26,-33.54 9.84,-9.85 21.47,-17 34.88,-22.36 13.41,-5.36 28.18,-8.05 43.82,-8.05 15.66,0 30.42,2.69 43.38,8.05 13.41,4.92 25.05,12.52 34.88,21.92 10.29,9.39 17.89,20.57 23.25,33.54 5.37,12.98 8.05,26.84 8.05,42.04 0,15.21 -2.68,29.52 -8.05,42.04 -5.36,12.98 -12.97,24.16 -23.25,33.55 -9.84,9.39 -21.47,16.99 -34.88,21.92 -12.96,6.25 -27.27,8.48 -43.38,8.48zm0 -25.93c11.18,0 21.92,-1.79 31.75,-5.82 9.84,-4.03 18.34,-9.39 25.49,-16.54 7.16,-7.16 12.97,-15.66 16.99,-25.49 4.03,-9.84 6.26,-20.12 6.26,-31.75 0,-11.62 -2.23,-21.91 -6.26,-31.75 -4.03,-9.84 -9.39,-17.89 -16.99,-25.05 -7.16,-7.16 -15.66,-12.97 -25.49,-16.99 -9.84,-4.03 -20.12,-5.81 -31.75,-5.81 -11.62,0 -22.35,1.78 -32.2,5.81 -9.84,4.03 -17.89,9.4 -25.48,16.99 -7.16,7.16 -12.98,15.66 -17,25.05 -4.02,9.85 -5.81,20.13 -5.81,31.75 0,11.63 1.79,21.92 5.81,31.75 4.03,9.84 9.85,17.89 17,25.49 7.16,7.16 15.65,12.52 25.48,16.54 9.85,3.58 20.58,5.82 32.2,5.82zm305.46 -182.91l29.51 0 0 206.61 -29.51 0 0 -206.61zm-118.52 206.61l-29.51 0 0 -206.61 29.51 0 0 206.61zm121.2 -92.13l-124.33 0 0 -25.49 124.33 0 0 25.49zm225.85 78.27l0 -166.82 -90.79 0 -1.34 43.38c-0.45,14.76 -1.35,28.62 -3.13,42.04 -1.35,13.41 -3.13,25.49 -5.37,36.23 -2.23,10.73 -5.81,19.23 -9.84,26.38 -4.03,6.71 -9.39,11.18 -16.1,12.53l-31.75 -5.37c7.59,0.45 13.86,-1.78 18.78,-7.6 5.37,-5.81 8.95,-13.86 11.63,-24.6 3.13,-10.73 5.36,-22.8 6.26,-36.67 1.35,-14.31 2.24,-29.52 3.13,-45.62l2.24 -66.2 145.35 0.01 0 192.76 -29.07 0 0 -0.45zm-165.47 59.03l0.44 -70.66 224.96 0 0 70.66 -27.29 0 0 -45.17 -169.93 0 -0.45 45.17 -27.73 0z"/>
   <path class="fil1" d="M3077.63 2441.48c-32.65,0 -62.62,-5.36 -90.79,-15.66 -27.73,-10.73 -51.43,-25.93 -72,-45.62 -20.57,-19.67 -36.23,-42.49 -47.86,-68.87 -11.17,-26.39 -16.99,-55.45 -16.99,-87.21 0,-31.76 5.82,-60.83 16.99,-87.22 11.63,-26.38 27.73,-49.64 47.86,-68.87 21.02,-19.67 45.17,-34.43 72.45,-45.17 27.73,-10.73 57.7,-16.11 90.78,-16.11 36.23,0 69.33,6.27 98.39,19.24 29.52,12.52 54.57,30.86 74.69,55.45l-62.61 57.7c-14.31,-16.55 -30.41,-28.62 -47.85,-36.68 -17.44,-8.49 -36.68,-12.52 -57.7,-12.52 -19.67,0 -37.56,3.13 -54.12,9.39 -16.54,6.26 -30.41,15.66 -42.49,27.73 -12.07,12.08 -21.47,26.39 -28.18,42.49 -6.26,16.54 -9.39,34.43 -9.39,54.57 0,20.12 3.13,38.01 9.39,54.56 6.71,16.54 16.11,30.42 28.18,42.49 12.08,12.08 26.39,21.02 42.49,27.73 16.55,6.26 34.44,9.4 54.12,9.4 21.02,0 40.25,-4.03 57.7,-12.08 17.44,-8.5 33.54,-21.02 47.85,-38.01l62.61 57.69c-20.12,24.6 -44.72,42.94 -74.69,55.91 -29.06,13.41 -62.16,19.67 -98.83,19.67zm237.02 -7.16l0 -420.39 96.61 0 0 273.71 200.35 -273.71 91.23 0 0 420.39 -96.15 0 0 -273.25 -200.8 273.25 -91.24 0zm781.3 -420.39l97.5 0 0 420.39 -97.5 0 0 -420.39zm-190.96 420.39l-97.5 0 0 -420.39 97.5 0 0 420.39zm198.11 -172.62l-205.26 0 0 -82.29 205.26 -0.01 0 82.3zm286.23 172.62l0 -363.15 22.36 22.36 -156.08 0.01 0 -79.16 364.49 0 0 79.16 -156.08 0 21.47 -22.36 0 363.15 -96.16 -0.01zm381.04 -251.34l202.58 0 0 75.59 -202.58 0 0 -75.59zm7.15 173.08l228.98 0 0 78.27 -325.58 -0.01 0 -420.39 317.53 0 0 78.27 -220.93 0 0 263.86zm269.67 41.15l29.97 -69.77c17.89,10.73 37.11,19.24 57.69,25.05 21.02,5.82 41.15,8.95 60.83,9.4 20.12,0.45 38.01,-1.79 54.12,-5.82 16.54,-4.46 29.51,-11.18 38.91,-19.67 9.84,-8.95 15.2,-20.12 15.2,-33.55 0,-16.1 -6.71,-27.73 -19.67,-35.33 -13.41,-8.04 -30.86,-12.07 -52.77,-12.07l-102.88 -0.01 0 -73.34 95.26 -0.01c19.68,0 34.88,-4.03 45.62,-12.08 11.18,-8.05 16.99,-19.24 16.99,-33.1 0,-12.07 -4.02,-21.46 -12.07,-28.61 -8.05,-7.6 -19.24,-13.42 -33.1,-17 -13.41,-3.58 -29.07,-5.36 -46.06,-4.91 -16.99,0.45 -34.88,3.13 -53.66,8.49 -18.79,5.37 -36.23,12.53 -52.77,21.47l-29.52 -75.13c27.28,-13.86 55.9,-23.71 85.87,-28.62 30.41,-5.82 59.48,-7.16 87.65,-4.03 28.61,2.23 54.11,8.94 76.92,19.23 22.8,9.85 41.14,23.26 54.56,39.81 13.41,16.54 20.57,35.78 20.57,58.14 0,20.12 -5.36,38.01 -15.65,53.66 -10.29,15.66 -25.05,27.74 -43.83,36.23 -18.33,8.5 -39.8,12.53 -63.51,12.53l2.24 -21.47c28.18,0 52.32,4.91 72.89,14.31 21.02,9.39 36.68,22.35 47.85,38.91 11.63,16.54 17.44,35.33 17.44,57.24 0,20.13 -5.36,38.02 -16.1,54.12 -10.29,15.66 -24.6,28.62 -43.38,39.81 -18.33,10.73 -39.35,18.78 -63.06,24.15 -23.7,5.36 -48.75,7.6 -75.58,6.71 -26.39,-0.9 -53.22,-4.47 -80.06,-11.63 -26.81,-8.08 -52.31,-18.81 -76.91,-33.11zm616.28 -42.05c23.26,6.72 42.49,8.95 58.14,5.82 16.1,-3.13 30.41,-14.31 42.49,-33.55l20.57 -30.41 8.94 -10.29 139.54 -272.81 95.26 0.01 -178.89 332.74c-16.11,29.96 -34.89,53.22 -57.25,68.87 -21.47,16.11 -45.62,25.05 -71.56,26.84 -25.94,2.23 -53.22,-2.24 -80.95,-13.86l23.71 -73.36zm128.8 12.53l-189.62 -353.76 103.75 0 139.54 282.2 -53.67 71.56zm555 66.63l-131.04 -202.6 78.71 -47.4 162.79 250 -110.46 0zm-273.25 0l0 -420.39 96.6 0 0 420.39 -96.6 0zm68.42 -169.49l0 -80.95 146.7 0 0 80.95 -146.7 0zm161.46 -29.96l-89.45 -10.73 136.4 -210.2 102.86 -0.01 -149.81 220.94zm199.46 199.45l0 -420.39 182.01 0c37.57,0 70.21,6.27 97.5,18.79 27.28,12.08 48.3,29.52 63.06,52.32 14.75,22.81 22.35,50.09 22.35,81.84 0,31.3 -7.6,58.13 -22.35,80.95 -14.76,22.8 -35.78,40.25 -63.06,52.77 -27.29,12.08 -59.49,17.89 -97.5,17.89l-127.89 0 43.37 -43.83 0 159.66 -97.49 0zm97.04 -148.92l-43.37 -46.06 122.53 -0.01c29.96,0 52.32,-6.26 67.08,-19.23 14.76,-12.98 22.35,-30.42 22.35,-53.67 0,-23.25 -7.59,-41.14 -22.35,-54.12 -14.76,-12.97 -37.12,-19.23 -67.08,-19.23l-122.53 0.01 43.37 -46.06 0 238.37zm262.97 148.92l187.38 -420.39 96.16 0 187.84 420.39 -101.97 0 -153.85 -371.2 38.47 0 -154.3 371.2 -99.73 0zm93.47 -90.33l25.94 -73.79 216 0 26.39 73.79 -268.33 0zm431.13 90.33l0 -420.39 97.49 0 0 420.39 -97.49 0zm109.57 -457.5c-11.18,0 -21.02,-4.03 -29.52,-11.63 -8.05,-7.6 -12.08,-17.44 -12.08,-29.96 0,-12.53 4.03,-22.36 12.08,-29.97 8.5,-7.6 18.34,-11.62 29.52,-11.62 11.62,0 21.47,4.02 29.51,11.62 8.5,7.6 12.53,17.44 12.53,29.97 0,12.52 -4.03,22.35 -12.53,29.96 -8.04,7.6 -17.89,11.63 -29.51,11.63zm-121.65 0c-11.63,0 -21.47,-4.03 -29.96,-11.63 -8.05,-7.6 -12.08,-17.44 -12.08,-29.96 0,-12.53 4.03,-22.36 12.08,-29.97 8.49,-7.6 18.33,-11.62 29.96,-11.62 11.63,0 21.47,4.02 29.52,11.62 8.04,7.6 12.07,17.44 12.07,29.97 0,12.52 -4.03,22.35 -12.07,29.96 -8.05,7.6 -17.89,11.63 -29.52,11.63zm499.99 37.11l97.49 0 0 420.39 -97.49 0 0 -420.39zm-190.96 420.39l-97.5 0 0 -420.39 97.5 0 0 420.39zm198.12 -172.62l-205.28 0 0 -82.29 205.28 -0.01 0 82.3zm195.44 172.62l0 -420.39 96.59 0 0 273.71 200.35 -273.71 91.24 0 0 420.39 -96.14 0 0 -273.25 -200.8 273.25 -91.24 0z"/>
   <path class="fil2" d="M159.49 2683.42c-26.83,12.98 -55,25.49 -84.53,38.46 -33.09,13.87 -64.84,27.74 -70.65,30.42 -10.29,4.46 -6.26,5.81 58.14,19.67 247.76,53.22 506.7,131.49 732.1,221.82 108.67,43.38 255.36,109.57 255.36,114.94 0,2.68 -72.89,64.39 -117.18,99.72 -48.75,38.46 -176.64,134.17 -180.22,134.17 -1.35,0 -2.69,-76.02 -2.69,-169.05l0 -169.05 -30.86 -12.52c-16.99,-6.71 -62.16,-21.92 -100.62,-33.55l-69.76 -21.02 -0.9 196.78c-0.45,108.24 -0.45,285.33 0,393.56l0.9 196.78 46.5 -28.18c25.49,-15.21 60.38,-36.23 77.37,-46.51 75.14,-44.72 262.53,-174.86 338.55,-235.69 13.86,-11.18 41.59,-33.1 61.72,-48.75 42.49,-33.55 137.75,-113.6 161,-135.96l16.1 -15.21 20.58 11.63c76.47,42.49 195.43,124.78 257.15,178.45 56.35,48.75 120.29,137.3 145.79,202.14 32.65,82.74 27.73,162.79 -15.2,247.77 -15.21,29.51 -52.33,84.53 -55.91,82.28 -5.81,-3.58 -40.24,-58.13 -54.56,-86.76 -53.22,-105.99 -45.62,-209.74 22.36,-316.18 7.16,-11.18 12.97,-22.36 12.97,-24.15 0,-13.86 -132.82,-131.49 -148.03,-131.04 -4.92,0 -26.39,29.07 -48.3,65.29 -80.95,132.83 -99.73,281.31 -52.77,421.29 35.77,107.33 101.97,204.38 215.55,317.08l55.9 55.45 63.51 -65.29c131.49,-135.06 195.44,-241.51 222.72,-372.54 9.4,-44.72 9.4,-132.82 0,-178.89 -34.88,-174.86 -156.97,-329.6 -410.55,-521.46 -31.75,-24.15 -59.48,-45.17 -61.72,-46.96 -2.23,-1.78 12.53,-19.67 34.88,-42.93 40.7,-41.6 63.07,-66.2 117.62,-126.13l32.65 -36.22 15.65 18.78c8.5,10.29 50.54,54.12 93.03,97.5 42.49,43.37 77.37,80.05 77.37,81.83 0,1.79 -22.81,21.47 -50.09,43.38 -27.73,21.92 -62.16,50.99 -76.47,64.4l-26.39 24.6 57.25 58.13c31.75,32.2 63.51,65.75 70.66,74.69l13.41 16.54 67.53 -44.72c55.9,-37.11 89,-57.25 109.12,-66.64 1.35,-0.9 14.31,9.84 29.07,23.7 119.86,112.25 355.54,289.36 527.27,395.35 37.12,22.81 78.27,48.3 90.78,56.35 12.98,8.05 31.3,19.24 41.59,25.05l18.34 10.29 0.45 -306.8c0.45,-330.5 -0.45,-480.32 -1.78,-481.66 -1.79,-1.79 -140.43,42.04 -170.84,54.12l-30.86 12.52 -1.79 173.53 -1.78 173.52 -34.88 -24.15c-89.9,-62.16 -187.84,-139.53 -235.24,-185.15l-34.44 -33.1 28.62 -13.41c15.66,-7.6 38.02,-17.89 49.64,-22.8 11.63,-5.37 34.43,-15.21 50.09,-22.81 41.14,-18.79 156.97,-65.74 232.11,-93.47 185.59,-69.33 400.26,-131.94 607.33,-177.55 39.36,-8.5 77.37,-16.99 84.08,-18.79 12.07,-2.68 8.94,-4.46 -46.51,-27.73 -35.78,-15.21 -71.56,-31.3 -106.89,-48.75l-592.56 0.04 0 15.66 -37.57 13.41c-121.19,42.49 -276.38,116.28 -412.34,196.33l-42.04 24.6 -41.14 -38.46c-53.22,-49.64 -72.01,-69.76 -120.75,-126.12 -24.15,-28.18 -46.95,-56.8 -68.87,-84.97l-266.55 0 -18.34 23.7c-50.54,65.3 -198.12,225.85 -207.06,225.85 -1.79,0 -16.55,-8.04 -33.55,-17.89 -145.8,-86.31 -288.01,-154.29 -427.55,-204.38l-29.96 -10.73 0 -16.54 -592.12 -0.01 0 -0.9z"/>
   <path class="fil0" d="M3048.56 2683.42c-77.82,-38.01 -151.61,-79.6 -205.73,-117.17 -51.88,-35.78 -88.1,-65.75 -138.19,-114.49l-43.37 -42.49 -0.9 -939.17 -0.9 -939.18 -44.72 39.36c-24.6,21.47 -86.32,76.47 -137.3,121.2 -50.99,45.17 -110.92,97.94 -133.72,118.06l-41.14 36.23 -19.24 55.9c-10.73,30.86 -33.99,99.73 -52.32,152.95 -18.34,53.21 -52.32,153.39 -76.03,222.26 -163.68,478.11 -173.96,506.29 -174.41,534.91 0,2.68 0,5.36 0,8.49 0,56.35 15.66,144 38.91,220.04 48.3,157.42 134.62,317.53 251.78,466.45 33.1,42.49 138.64,151.17 146.25,151.17 3.13,0 4.47,-55.01 4.03,-196.34l0 -196.33 -17.89 -19.24c-55.9,-60.82 -99.29,-124.32 -136.85,-199.91 -37.12,-75.14 -67.98,-174.41 -75.59,-244.63 -0.45,-3.58 -0.9,-5.82 -1.34,-8.5 -1.79,-15.66 4.91,-32.65 105.54,-310.82 13.41,-37.11 32.64,-90.34 42.49,-118.06 54.11,-150.27 114.93,-317.53 116.28,-318.88 0.89,-0.89 1.34,370.75 1.34,825.58l0 811.72 593.02 0.01 0 0.88zm-538.91 -520.11c3.13,-0.9 8.94,8.05 21.02,25.05l13.86 19.67 -19.24 24.6 -19.23 24.6 0 -50.08c0.46,-29.08 0.46,-42.5 3.59,-43.84zm45.17 -455.28c2.23,-3.13 4.92,-5.36 5.81,-5.36 0.9,0 11.18,12.52 22.81,27.28 12.07,16.1 19.67,29.52 18.34,32.65 -2.69,7.16 -38.46,55.45 -41.15,55.45 -2.68,0 -38.01,-48.3 -41.14,-55.45 -1.35,-3.13 4.92,-15.21 14.76,-27.73 9.39,-11.63 18.78,-23.71 20.57,-26.84zm-39.36 -150.71c-1.78,-4.03 40.7,-62.61 45.17,-63.06 0.9,0 11.63,12.52 23.26,27.73 11.62,15.21 21.91,29.07 22.35,30.86 1.79,4.03 -41.59,63.06 -45.62,63.06 -3.12,-0.01 -41.58,-50.09 -45.16,-58.59zm46.07 347.49c1.79,0.45 13.41,14.76 26.39,32.2l23.25 30.86 0 59.93c0,32.65 -1.35,58.14 -3.13,55.91 -1.79,-2.24 -22.81,-30.87 -46.51,-64.4l-43.38 -60.83 20.13 -27.28c11.17,-15.21 21.47,-26.84 23.25,-26.39zm39.81 -31.75l-9.4 -12.97 8.5 -10.73c4.92,-5.81 8.94,-10.73 9.39,-11.18 0.45,0 0.9,10.73 0.9,23.71l0 24.15 -9.39 -12.98zm0 -200.81l-9.84 -11.62 8.49 -11.63c4.92,-6.26 9.39,-11.63 9.84,-11.63 0.45,0 1.35,10.73 1.35,23.71l0 23.7 -9.84 -12.53zm-0.45 -208.84l-9.84 -12.08 8.94 -11.63c4.92,-6.26 9.39,-11.62 9.84,-11.62 0.45,0 0.9,10.29 0.9,23.25l0 23.7 -9.84 -11.62zm-24.15 -219.15c-17.89,-21.02 -33.1,-40.7 -34,-43.38 -0.89,-2.68 1.35,-8.94 5.37,-14.31 6.71,-8.94 7.6,-8.94 13.86,-3.13 4.03,3.58 16.54,17.89 28.18,32.2 20.57,25.05 21.47,26.83 20.12,46.51l-1.34 20.57 -32.19 -38.46zm26.38 -89c-15.65,-14.31 -16.54,-20.12 -4.91,-38.46 5.81,-9.39 11.17,-16.99 11.62,-16.99 0.45,0 0.9,14.31 0.9,31.3l0 31.75 -7.61 -7.6zm-21.47 -100.62l-29.51 41.14 -7.16 -8.94c-4.03,-4.92 -5.82,-10.73 -4.47,-12.98 5.36,-8.49 68.43,-97.94 69.32,-98.39 0.45,0 0.9,8.5 0.9,18.79 0.44,17.45 -2.24,22.81 -29.08,60.38zm21.47 298.3c0,3.13 -40.24,55.9 -42.49,55.9 -1.34,0 -13.86,-15.21 -28.18,-33.99l-25.93 -33.55 0 -49.19c0,-27.28 0.89,-49.19 1.78,-49.19 0.9,0 8.5,7.6 16.99,16.55 21.48,22.81 77.83,91.24 77.83,93.47zm-87.21 -204.83c-3.58,5.37 -7.16,9.84 -7.6,9.84 -0.9,0 -1.34,-8.04 -1.34,-17.44 0,-18.78 3.13,-21.91 10.72,-9.84 3.58,6.26 3.58,9.39 -1.78,17.44zm-9.39 303.22l0 -29.07 11.17 13.42c6.27,7.59 11.18,14.3 11.18,15.65 0,0.9 -5.36,8.05 -11.62,15.21l-11.63 13.41 0.9 -28.62zm0 208.85l0 -29.07 11.17 13.41c6.27,7.6 11.18,14.31 11.18,15.66 0,0.9 -5.36,8.04 -11.62,15.2l-11.63 13.42 0.9 -28.62zm0 201.25l0 -29.07 11.17 13.41c6.27,7.6 11.18,14.31 11.18,15.66 0,0.89 -5.36,8.04 -11.62,15.2l-11.63 13.41 0.9 -28.61zm1.79 166.36c0.9,0.9 24.15,34 52.32,73.35 50.09,70.66 50.54,72 50.54,92.57 0,12.53 -1.35,19.68 -3.58,17.44 -1.79,-2.23 -25.49,-34.43 -52.32,-72l-48.75 -68.43 0 -22.35c0,-12.07 0.89,-21.46 1.79,-20.58zm102.86 293.83l0 20.57 -25.05 -33.99c-13.86,-18.79 -25.05,-35.33 -25.05,-36.23 0,-3.13 11.63,-19.67 13.41,-19.67 0.9,0 9.4,11.17 19.24,24.6 15.22,21.47 17.45,26.83 17.45,44.72zm-102.41 214.67l-0.9 -99.73c-0.89,-98.84 -0.89,-100.17 7.6,-110.91 4.92,-6.26 9.84,-11.18 11.63,-11.18 1.34,0 18.34,21.02 38.01,46.96 19.24,25.93 34.43,50.08 33.55,53.22 -0.9,3.13 -21.47,31.75 -45.63,63.94l-44.26 57.7zm328.71 85.42c12.52,7.6 27.73,16.99 33.54,20.12 5.82,3.58 10.73,7.6 10.73,8.95 0,1.78 -58.58,2.68 -130.59,2.68l-130.59 0 -25.93 -20.12c-14.31,-11.18 -25.94,-21.47 -25.94,-23.26 0,-1.78 55,-2.68 122.99,-2.68l122.98 0 22.81 14.31zm-202.6 -167.71c1.35,0.45 18.79,16.55 38.91,35.78 19.68,19.24 45.62,42.94 57.25,53.22l21.47 18.34 -99.73 0c-55,0 -99.29,-1.35 -98.84,-2.68 3.57,-8.95 78.71,-105.55 80.94,-104.66zm-25.93 -1641.76l0.89 39.36 0.9 39.36 -46.06 64.85c-25.49,35.78 -48.75,68.42 -52.32,72.45 -5.81,7.16 -6.26,4.92 -6.26,-29.07l0 -36.67 51.86 -75.14 50.99 -75.14zm-314.4 205.73l8.05 -23.7 12.97 12.52c7.16,7.16 12.97,14.76 12.97,16.99 0,3.58 -31.3,17.44 -39.36,17.44 -1.34,0.45 0.89,-10.29 5.37,-23.25zm-113.6 334.52c7.6,-21.47 17.44,-39.81 33.99,-60.83 83.64,-109.12 91.24,-118.06 102.41,-120.29 6.27,-1.35 12.53,-4.03 13.86,-6.27 1.35,-2.23 3.14,-2.68 4.47,-1.78 1.35,1.34 -4.91,11.18 -12.97,22.35 -8.5,11.18 -45.62,60.83 -82.29,110.47 -36.67,49.64 -67.53,89.45 -68.42,88.55 -1.33,-0.9 3.14,-15.21 8.95,-32.2zm-92.58 271.02c3.58,-9.39 7.6,-16.99 8.95,-16.54 1.34,0.45 17.44,20.12 35.78,43.38 35.33,45.17 35.33,45.17 23.7,72.89l-4.92 12.07 -34.88 -46.95 -34.88 -46.96 6.25 -17.89zm-43.82 127.91c8.05,-22.36 10.73,-32.2 14.31,-32.65 3.58,-0.45 7.6,6.71 16.99,19.68 9.84,13.41 23.7,32.19 30.86,41.14l12.53 16.54 -12.53 22.81c-6.71,12.52 -13.41,22.8 -14.76,22.8 -1.34,0 -14.31,-16.1 -28.61,-35.33l-26.39 -35.78 7.6 -19.21zm31.31 143.55c-3.13,8.95 -7.6,29.07 -10.73,45.17 -2.68,16.11 -5.81,29.52 -7.16,29.52 -3.13,0 -22.36,-81.4 -25.05,-104.2 -0.9,-9.4 -2.68,-26.84 -4.03,-38.47 -2.68,-26.38 0,-24.15 30.42,20.13l21.91 32.2 -5.36 15.65zm68.43 267.89c-2.24,0 -16.55,-25.05 -31.31,-55.45l-27.73 -55.45 0 -32.65c0,-35.78 10.29,-101.52 15.66,-98.39 1.78,0.9 8.49,15.65 14.76,32.2 6.26,16.54 15.2,47.4 19.23,68.42 8.94,45.16 15.2,141.32 9.39,141.32zm-29.53 -292.49c0,-4.91 25.49,-55.9 26.83,-54.56 0.45,0.44 5.37,21.02 10.73,45.17 5.37,24.6 12.53,52.77 15.66,63.51 3.13,10.73 5.36,19.67 4.91,20.12 -2.22,2.69 -58.13,-69.31 -58.13,-74.24zm183.82 325.59c4.91,6.26 17.44,21.91 27.73,34.88 10.29,12.97 24.6,29.51 31.75,37.56l13.41 14.31 0 93.03c0,60.38 -1.35,93.02 -4.03,93.02 -2.23,0 -18.34,-14.76 -36.23,-32.64l-32.63 -32.65 -1.79 -100.18c-0.89,-55 -3.13,-104.2 -4.46,-109.57 -2.7,-8.94 -2.26,-8.94 6.25,2.24zm-39.36 -11.18c7.16,28.18 8.94,47.85 10.29,105.99l1.78 71.55 -9.84 -14.3c-8.94,-12.98 -9.84,-17.45 -9.84,-54.12 0,-41.14 -6.26,-139.53 -9.84,-157.42 -4.92,-23.26 8.95,14.31 17.45,48.3zm-68.88 55.45c-1.78,0 -6.26,-5.81 -9.39,-12.52 -5.36,-10.29 -6.71,-27.73 -7.16,-95.26l-0.9 -82.74 6.71 28.62c3.58,15.66 8.5,52.77 10.73,82.74 4.04,66.19 4.04,79.16 0.01,79.16zm4.92 -622.53c-3.58,10.73 -7.6,19.23 -8.94,19.23 -2.69,0 -45.62,-56.35 -55.01,-72 -4.46,-7.16 -3.58,-9.84 5.82,-22.81 8.94,-11.62 11.62,-13.41 15.2,-8.94 2.24,3.13 14.31,18.79 26.84,35.33l22.35 29.96 -6.26 19.23zm72.9 -203.05c-16.1,44.73 -32.64,91.24 -37.11,103.31 -4.47,12.08 -8.95,22.36 -10.29,22.36 -3.58,0 -39.36,-48.75 -39.36,-53.67 0,-4.47 112.7,-155.64 114.48,-153.84 0.9,0.45 -11.62,37.57 -27.72,81.84zm70.66 -194.98c-4.03,11.18 -201.25,278.17 -205.27,278.17 -5.82,0 9.39,-24.15 46.95,-74.24 23.26,-30.86 68.43,-92.13 101.08,-135.95 32.64,-43.83 59.93,-79.61 60.37,-79.61 0.9,-0.45 -0.44,4.92 -3.13,11.63zm43.38 -129.7c-2.23,2.23 -108.23,45.62 -122.09,50.08l-8.5 2.69 6.71 -18.34c2.24,-5.82 3.58,-9.84 5.81,-12.97 5.82,-8.05 17,-12.53 56.8,-28.62 40.7,-16.11 42.94,-16.55 54.12,-4.47 4.92,5.36 8.05,10.29 7.15,11.63zm29.08 -70.66c-1.79,6.71 -5.37,12.52 -7.6,12.52 -2.23,0 -21.47,-21.02 -42.49,-46.51 -37.11,-44.72 -38.46,-46.95 -34.88,-59.03 1.78,-6.71 4.91,-12.52 6.71,-12.52 1.8,0 20.57,21.02 42.49,46.5 37.55,45.18 39.34,47.41 35.77,59.04zm23.7 -67.53c-2.68,3.13 -75.59,-84.97 -74.24,-89.45 1.35,-4.03 151.16,-137.3 152.95,-135.95 0.45,0.45 -12.08,38.01 -27.73,83.63 -33.09,94.36 -49.2,139.98 -50.98,141.77z"/>
   <path class="fil0" d="M1092.4 1395.42c-20.12,-59.48 -44.27,-130.14 -53.67,-156.53 -9.39,-26.38 -42.93,-125.67 -75.13,-220.48 -32.2,-94.36 -59.04,-172.18 -59.48,-172.63 -3.13,-2.23 -137.75,-119.86 -178.9,-156.53 -27.73,-24.6 -57.24,-50.98 -66.19,-58.13 -8.49,-7.6 -37.56,-32.65 -63.95,-55.9l-47.85 -42.04 -0.9 937.38 -0.9 937.37 -45.62 44.73c-88.99,87.21 -198.11,161 -342.13,230.31l592.59 0.01 0 -817.52 0 -834.08 9.85 25.05c11.17,29.07 241.5,674.42 259.39,726.74 4.91,13.86 4.91,23.25 1.35,55.9 -13.87,128.8 -78.27,253.58 -204.83,396.23l-31.3 35.33 0 193.65c0,106.44 1.34,193.66 3.13,193.66 5.36,0 86.76,-81.84 120.74,-121.65 85.87,-100.62 149.83,-198.57 207.96,-318.87 68.43,-141.77 108.68,-287.57 108.68,-393.56 0,-34.43 -0.45,-36.22 -48.76,-177.54 -25.49,-78.27 -63.96,-191.42 -84.08,-250.9zm58.59 325.59c2.68,5.81 7.59,20.12 11.17,31.3l6.71 20.12 -27.28 37.11 -27.28 37.12 -13.86 -27.28c-7.6,-15.21 -12.53,-29.52 -11.18,-32.2 1.35,-2.69 14.76,-21.02 29.97,-40.7l26.83 -35.78 4.92 10.31zm-247.76 -727.19l8.49 22.8c4.47,12.53 8.05,23.26 7.16,24.16 -1.78,1.78 -40.69,-12.53 -40.69,-14.76 0,-1.35 5.37,-8.95 12.52,-16.99l12.52 -15.21zm-307.25 138.19c0,-20.57 1.35,-36.23 3.13,-34 1.79,2.24 8.95,10.73 15.66,19.68l12.52 16.1 -10.73 12.98c-10.29,12.07 -15.2,18.78 -17.89,17.88 -2.69,-1.33 -2.69,-11.17 -2.69,-32.64zm19.69 1063.95l-19.24 26.83 0 -21.92c0,-20.57 1.35,-23.7 24.15,-55.9 13.41,-18.79 36.23,-50.98 51.44,-72l26.83 -38.02 1.35 20.13c0.89,16.54 -0.45,22.8 -9.4,36.22 -5.81,8.95 -20.57,29.97 -33.09,46.96 -12.53,16.55 -31.32,42.94 -42.04,57.7zm38.01 72.44l-8.5 12.08c-4.47,6.71 -17.44,24.15 -29.07,38.46l-20.57 26.38 -0.01 -17.89c0,-15.65 2.68,-22.35 20.13,-46.95l20.12 -28.62 8.94 8.49 8.96 8.05zm-1.8 -251.34c-22.8,32.65 -44.72,63.07 -48.75,68.43 -7.16,8.95 -7.16,8.05 -7.16,-51.43l0 -60.83 25.94 -34.43c14.31,-18.79 27.28,-34.44 28.18,-34.44 1.34,0 7.6,6.27 13.86,14.31 6.26,8.05 15.2,20.13 20.12,26.84l8.95 12.52 -41.14 59.03zm-54.1 -329.6c-0.9,0 -1.35,-13.41 -1.35,-29.96l0 -29.97 12.08 16.1 12.07 16.11 -10.29 13.41c-6.7,8.05 -12.08,14.31 -12.51,14.31zm10.28 158.32c6.26,7.16 11.18,14.31 11.18,15.66 0,1.34 -5.37,8.04 -11.63,15.65l-11.18 13.41 0 -29.06 0 -29.07 11.63 13.41zm66.19 -55.9l-22.36 29.52 -12.07 -13.86c-6.71,-7.6 -16.99,-21.02 -22.81,-29.07 -10.29,-14.76 -10.29,-15.21 -3.58,-25.94 7.16,-11.18 36.68,-47.4 38.46,-47.4 0.45,0 10.73,12.97 22.81,29.06l21.92 29.07 -22.37 28.62zm16.54 -119.86l-9.39 -11.18 8.49 -10.73c4.47,-5.81 8.95,-10.73 9.4,-10.73 0.45,0 0.9,9.85 0.9,21.92l0 22.36 -9.4 -11.64zm-16.09 -81.84c-16.99,21.92 -23.26,28.18 -26.84,25.05 -2.68,-2.23 -13.86,-16.1 -24.6,-30.86 -17.89,-23.7 -19.23,-27.28 -14.75,-33.99 21.02,-29.07 40.24,-54.12 42.04,-54.12 1.34,0 12.07,12.97 24.15,28.62 12.07,15.65 21.92,30.41 21.92,32.64 -0.01,2.25 -9.85,17.01 -21.92,32.66zm-64.85 -122.99c-5.81,7.6 -11.18,13.41 -12.07,13.41 -0.9,0 -1.79,-13.41 -1.79,-29.96l0 -29.97 12.08 16.11 12.07 16.1 -10.29 14.31zm-12.07 -180.23c-0.9,0 -1.79,-7.6 -1.79,-16.99 0,-15.65 2.68,-20.57 29.52,-54.56l29.51 -37.57 7.16 8.95c4.03,4.91 6.71,10.29 6.27,12.07 -1.36,4.02 -68.89,88.1 -70.67,88.1zm45.61 -211.09c-45.18,-63.06 -47.41,-66.64 -47.41,-84.97l0 -18.78 8.5 11.17c4.91,6.27 28.18,38.91 51.88,72.46 42.04,59.48 43.38,62.16 43.38,81.4 0,17.44 -0.9,19.23 -4.92,12.07 -1.79,-4.03 -25.05,-37.12 -51.43,-73.35zm-7.15 1540.69c-4.47,3.58 -17.89,14.31 -29.52,23.25l-21.47 16.55 -132.37 -0.45c-72.9,0 -131.04,-1.79 -129.25,-3.58 1.79,-1.79 17.45,-12.08 34.44,-22.81l30.86 -19.67 127.46 0c122.08,0 127.89,0.45 119.85,6.71zm-80.5 -53.22c-54.12,0 -98.4,-1.35 -98.4,-2.68 0,-1.79 7.6,-8.5 17,-15.66 9.39,-7.16 34.88,-29.96 56.8,-50.98 21.91,-21.02 41.14,-38.46 42.04,-38.46 1.34,0 20.12,23.25 41.59,51.88 21.47,28.62 39.36,52.77 39.36,54.12 0,0.88 -44.28,1.78 -98.39,1.78zm144 -127.91l-0.9 101.52 -44.28 -58.58c-24.6,-32.2 -44.27,-60.38 -44.27,-63.06 0.45,-6.26 71.56,-99.29 75.59,-99.29 1.78,0 5.81,4.03 8.94,8.95 4.92,7.59 5.81,24.6 4.92,110.46zm0.89 -226.74l0 43.37 -11.17 -13.41c-21.92,-25.93 -21.92,-27.73 -5.37,-51.88 8.05,-11.63 15.21,-21.47 16.11,-21.47 -0.01,0.01 0.43,19.23 0.43,43.39zm-5.81 -329.61c-9.39,-8.05 -10.73,-18.78 -3.13,-29.07 4.03,-5.36 7.6,-9.84 8.05,-9.84 0.45,0 0.89,9.84 0.89,21.47 0,18.79 -0.89,21.47 -5.81,17.44zm-1.79 -411.89c-4.47,-4.03 -7.6,-9.84 -7.6,-12.97 0,-4.92 10.29,-20.12 14.31,-20.12 0.89,0 1.34,8.94 1.34,20.12 -0.45,19.68 -0.45,19.68 -8.05,12.97zm7.6 -119.41l-23.7 31.75c-12.97,17.44 -24.6,31.75 -25.93,31.3 -4.03,-0.45 -40.7,-50.09 -40.7,-55.45 0,-4.47 84.97,-110.47 88.55,-110.47 0.9,0 1.78,23.26 1.78,51.44l0 51.43zm0 -352.41l0 38.01 -52.32 -73.34 -51.88 -73.34 0 -40.25 0 -40.24 10.73 15.21c5.81,8.49 29.52,42.48 52.32,75.58l41.14 60.38 0.01 37.99zm76.93 -44.72c-1.35,0 -4.47,-4.92 -6.27,-10.73 -13.41,-37.12 -66.19,-190.07 -68.42,-197.67l-2.68 -8.95 11.17 9.4c6.27,5.36 38.02,33.54 71.11,62.16 33.1,29.07 61.72,55.01 63.51,57.7 2.68,3.58 -6.71,16.99 -30.86,46.06 -19.68,23.69 -36.22,42.03 -37.56,42.03zm28.18 85.42l-4.47 -13.42c-2.68,-7.59 -3.13,-16.1 -1.35,-19.23 5.37,-8.95 72.46,-87.65 75.14,-87.65 1.35,0 4.03,5.81 6.26,12.52 3.58,11.63 2.24,14.31 -21.47,43.38 -13.86,16.99 -31.3,38.46 -39.36,47.4l-14.75 17zm39.34 34.44c2.69,0 25.05,8.04 50.09,17.89 42.04,16.54 46.06,19.23 51.44,31.75 3.13,7.59 5.36,15.65 4.46,18.33 -0.89,3.14 -21.92,-3.58 -63.06,-20.12 -33.99,-13.86 -62.16,-25.49 -63.06,-26.38 -1.77,-2.25 15.67,-21.47 20.13,-21.47zm41.6 100.17c14.31,6.27 25.48,18.34 71.55,77.37 48.31,61.72 55.9,73.79 66.64,103.31 6.71,18.34 11.63,33.99 11.18,34.43 -0.45,0.45 -14.31,-16.54 -30.41,-38.46 -95.71,-127.91 -123.88,-165.92 -129.69,-174.86l-6.27 -9.84 17 8.05zm-14.31 46.96c0.89,0 16.1,19.67 33.54,43.38 17.89,24.15 57.25,77.37 88.1,118.96 30.86,41.59 59.93,80.95 64.85,87.65 11.18,14.76 20.57,37.56 12.07,28.18 -3.13,-3.13 -46.51,-60.83 -96.15,-127.46 -90.79,-121.19 -110.91,-150.71 -102.41,-150.71zm116.73 333.18c-1.35,-1.78 -12.53,-32.64 -25.05,-68.87 -12.53,-36.23 -28.18,-80.5 -34.88,-98.39 -12.53,-35.78 -16.11,-45.62 -15.21,-46.06 0.45,0 1.78,1.35 3.58,3.58 2.68,3.13 29.07,37.56 58.58,76.47 29.52,38.91 54.12,72.9 55.01,75.59 2.69,6.25 -38.9,62.6 -42.03,57.68zm32.19 88.1c-1.34,0 -4.46,-6.26 -6.71,-14.31 -4.03,-13.41 -3.58,-15.2 9.84,-33.99 7.6,-10.73 20.13,-27.28 27.74,-36.68l13.41 -16.99 8.49 10.73c4.92,5.82 7.16,12.53 5.82,14.76 -32.65,46.07 -56.35,76.48 -58.59,76.48zm-108.23 582.29c-2.23,12.53 -3.58,59.93 -3.58,105.54l0 82.29 -34.43 34.43c-18.79,18.79 -36.68,34.43 -39.36,34.43 -3.58,0 -4.03,-21.02 -1.78,-95.26l2.68 -95.26 23.25 -25.49c12.53,-13.86 30.42,-34.43 39.36,-45.17 8.94,-11.18 16.54,-19.67 16.99,-19.23 0.45,0.47 -0.89,11.2 -3.13,23.72zm50.54 -54.12c-1.79,19.24 -3.58,67.98 -3.58,108.24l0 73.79 -11.63 13.41 -11.63 13.41 1.79 -75.58c1.34,-43.38 4.03,-85.42 7.16,-98.84 7.6,-32.65 18.78,-72.01 20.57,-70.66 0.45,0.9 -0.89,17.45 -2.68,36.23zm63.96 94.82l-7.6 13.41 -1.35 -58.14c-0.9,-55.9 2.68,-103.3 11.63,-141.77 2.23,-10.29 4.47,-18.33 4.47,-18.33 0,0 0.44,42.94 0.44,95.71 0,88.54 -0.44,96.59 -7.59,109.12zm19.67 -546.06c-3.58,-8.95 -4.92,-17.89 -3.58,-20.58 7.6,-12.52 64.85,-87.21 66.64,-87.21 1.35,0 4.47,6.26 6.71,14.31 1.35,4.47 2.24,7.6 2.68,10.73 0.45,8.94 -6.71,18.34 -35.77,57.25l-30.87 41.59 -5.81 -16.09zm14.31 193.65c0.9,-3.58 4.03,-23.26 6.71,-44.28l4.92 -38.01 10.73 22.8c7.59,15.66 9.39,24.6 7.16,28.62 -6.27,10.74 -31.75,37.13 -29.52,30.87zm22.37 253.57l-20.13 34.88 1.79 -79.16c1.78,-85.42 6.71,-113.15 32.2,-176.21l10.73 -26.83 4.91 19.23c2.68,10.73 6.71,36.68 8.5,57.7 7.17,78.27 2.69,99.73 -38,170.39zm95.26 -352.41c0.89,0.89 -0.45,24.15 -2.69,51.43 -4.46,50.99 -17.44,124.33 -23.25,130.14 -1.79,1.79 -4.03,-8.05 -5.81,-21.47 -1.35,-13.41 -5.82,-37.56 -10.3,-53.22 -4.02,-16.1 -7.59,-31.75 -7.59,-35.33 0.44,-6.71 46.95,-74.24 49.64,-71.55z"/>
  </g>
 </g>
</svg>
