<?xml version="1.0" encoding="UTF-8"?>
<!DOCTYPE svg PUBLIC "-//W3C//DTD SVG 1.1//EN" "http://www.w3.org/Graphics/SVG/1.1/DTD/svg11.dtd">
<!-- Creator: CorelDRAW 2020 (64-Bit) -->
<svg xmlns="http://www.w3.org/2000/svg" xml:space="preserve" width="84.6666mm" height="84.6666mm" version="1.1" style="shape-rendering:geometricPrecision; text-rendering:geometricPrecision; image-rendering:optimizeQuality; fill-rule:evenodd; clip-rule:evenodd"
viewBox="0 0 8466.66 8466.66"
 xmlns:xlink="http://www.w3.org/1999/xlink"
 xmlns:xodm="http://www.corel.com/coreldraw/odm/2003">
 <defs>
  <style type="text/css">
   <![CDATA[
    .fil0 {fill:#1A60AA}
   ]]>
  </style>
 </defs>
 <g id="Layer_x0020_1">
  <metadata id="CorelCorpID_0Corel-Layer"/>
  <path class="fil0" d="M2711.74 1546.09l1128.92 1141.15c-49.08,73.63 -294.5,294.5 -392.67,368.12 -98.16,-36.81 -1030.75,-1067.54 -1128.92,-1141.16l-392.67 404.93 1128.92 1141.16c-49.08,110.43 -294.5,257.68 -343.58,368.11 -98.17,-36.81 -1079.84,-1030.72 -1178.01,-1141.16l-1521.59 1546.09 1521.59 1546.09 1128.93 -1141.16 392.66 368.11 -1128.92 1141.17 392.67 368.11 1128.92 -1141.16 392.67 404.93c-245.42,257.68 -589,588.98 -883.5,846.67 -98.17,110.43 -196.34,184.05 -245.42,294.49l1521.59 1546.09 1521.59 -1546.09c-98.17,-110.44 -196.33,-184.06 -294.5,-294.49 -196.33,-220.87 -638.08,-625.8 -834.42,-846.67l392.67 -404.93 1128.92 1141.16 392.67 -368.11 -1128.92 -1141.17 343.58 -368.11 883.51 846.67c98.17,73.62 147.25,184.06 294.5,257.68l1521.59 -1509.28 -1521.59 -1546.09c-196.33,184.06 -392.67,368.12 -589.01,588.99 -98.16,73.62 -539.92,515.36 -589,552.17 -98.17,-110.43 -343.58,-294.49 -392.67,-368.11l1178.01 -1141.16c-49.08,-73.63 -343.58,-331.31 -392.67,-404.93 -98.16,73.62 -1030.76,1104.35 -1178.01,1141.16l-343.58 -368.12 1128.92 -1141.15c-245.41,-257.69 -490.83,-515.37 -736.25,-773.05 -147.25,-110.44 -736.26,-736.23 -785.34,-773.04l-1521.59 1546.09zm736.25 5374.49c147.25,110.44 638.09,699.42 785.34,773.04 98.17,-73.62 294.5,-294.49 392.67,-404.92 49.08,-73.63 343.58,-294.5 343.58,-368.12l-343.58 -368.12c-147.25,-147.24 -294.5,-257.68 -392.67,-404.92l-785.34 773.04zm0 -5374.49c49.09,73.62 294.5,294.49 392.67,368.11 98.17,73.62 294.51,331.3 392.67,368.12 49.08,0 736.25,-699.42 736.25,-736.23 -98.16,-147.25 -245.41,-257.69 -343.58,-404.93 -98.17,-73.62 -343.59,-331.31 -392.67,-368.12 -98.16,73.63 -638.09,625.8 -785.34,773.05zm-2699.6 2687.24c98.17,73.62 736.26,736.24 785.34,773.04l785.34 -773.04c-98.17,-73.62 -736.25,-736.23 -785.34,-773.04 -147.25,184.06 -687.17,662.61 -785.34,773.04zm5399.2 0l736.26 773.04c98.16,-36.8 736.25,-699.42 785.33,-773.04 -49.08,-110.43 -638.09,-625.79 -736.25,-773.04 -49.08,36.81 -736.25,699.42 -785.34,773.04zm-3092.27 0l1178.01 1141.16 1128.92 -1141.16c0,0 -1030.75,-1067.53 -1128.92,-1141.16l-1178.01 1141.16z"/>
 </g>
</svg>
