<?xml version="1.0" encoding="UTF-8"?>
<!DOCTYPE svg PUBLIC "-//W3C//DTD SVG 1.1//EN" "http://www.w3.org/Graphics/SVG/1.1/DTD/svg11.dtd">
<!-- Creator: CorelDRAW 2020 (64-Bit) -->
<svg xmlns="http://www.w3.org/2000/svg" xml:space="preserve" width="222.165mm" height="84.6666mm" version="1.1" style="shape-rendering:geometricPrecision; text-rendering:geometricPrecision; image-rendering:optimizeQuality; fill-rule:evenodd; clip-rule:evenodd"
viewBox="0 0 22216.52 8466.66"
 xmlns:xlink="http://www.w3.org/1999/xlink"
 xmlns:xodm="http://www.corel.com/coreldraw/odm/2003">
 <defs>
  <style type="text/css">
   <![CDATA[
    .fil0 {fill:#FEFEFE;fill-rule:nonzero}
    .fil1 {fill:#FFDD21;fill-rule:nonzero}
   ]]>
  </style>
 </defs>
 <g id="Layer_x0020_1">
  <metadata id="CorelCorpID_0Corel-Layer"/>
  <g id="_2284263811488">
   <g>
    <path class="fil0" d="M2805.54 995.03l240.15 0c58.21,0 107.24,-19.2 147.09,-57.61 39.85,-38.39 59.76,-84.41 59.76,-138.08 0,-53.67 -19.91,-99.68 -59.76,-138.07 -39.85,-38.4 -88.88,-57.59 -147.09,-57.59l-240.15 0 0 391.35zm0 -715.57l0 290.36 240.15 0c66.23,0 122.88,22.76 170,68.23 47.14,45.5 70.72,99.17 70.72,161.03 0,61.87 -23.48,115.53 -70.42,161.01 -46.95,45.5 -103.72,68.23 -170.3,68.23l-273.46 0 0 -782.71 452.48 0 0 33.85 -419.17 0z"/>
    <path class="fil0" d="M4034.68 245.61l0 782.7 -33.27 0 0 -748.86 -402.3 0 0 200.84c0,112.46 -5.07,207.17 -15.28,284.11 -10.17,76.98 -24.56,134.64 -43.1,173.03 -18.56,38.41 -38.31,64.95 -59.22,79.68 -20.94,14.76 -45.21,22.12 -72.86,22.12 -9.83,0 -19.93,-0.91 -30.31,-2.73 -10.35,-1.83 -18.11,-3.81 -23.19,-6l-7.64 -2.19 0 -33.28c18.55,7.27 37.11,10.91 55.68,10.91 22.9,0 43.21,-6.73 60.85,-20.21 17.65,-13.45 34.65,-38 51.04,-73.68 16.37,-35.64 28.82,-89.68 37.36,-162.09 8.55,-72.42 12.84,-162.29 12.84,-269.67l0 -234.68 469.4 0z"/>
    <path class="fil0" d="M4732.79 754.31l-195.4 -469.41 -195.39 469.41 390.79 0zm11.46 33.83l-413.71 0 -100.43 240.17 -33.86 0 324.23 -782.7 33.83 0 324.21 782.7 -33.84 0 -100.43 -240.17z"/>
    <polygon class="fil0" points="5040.63,1028.31 5040.63,245.61 5504.03,245.61 5504.03,279.45 5073.94,279.45 5073.94,1028.31 "/>
    <path class="fil0" d="M6209.49 898.69c70.05,-71.52 105.06,-158.65 105.06,-261.46 0,-102.8 -35.01,-190.03 -105.06,-261.7 -70.04,-71.69 -154.27,-107.54 -252.72,-107.54 -98.41,0 -182.65,35.85 -252.71,107.54 -70.03,71.67 -105.06,158.9 -105.06,261.7 0,102.81 35.03,189.94 105.06,261.46 70.06,71.5 154.3,107.25 252.71,107.25 98.45,0 182.68,-35.75 252.72,-107.25zm22.93 -546.08c76.97,78.58 115.44,173.38 115.44,284.35 0,110.99 -38.47,205.79 -115.44,284.36 -76.94,78.62 -168.74,117.91 -275.36,117.91 -106.63,0 -198.51,-39.29 -275.63,-117.91 -77.16,-78.57 -115.71,-173.37 -115.71,-284.36 0,-110.97 38.55,-205.77 115.71,-284.35 77.12,-78.61 169,-117.9 275.63,-117.9 106.62,0 198.42,39.29 275.36,117.9z"/>
    <path class="fil0" d="M6616.41 480.3c0,70.96 -4.9,137.21 -14.73,198.69 -9.83,61.49 -21.38,110.73 -34.65,147.66 -13.3,36.93 -26.83,68.74 -40.66,95.49 -13.85,26.75 -25.67,45.77 -35.5,57.06l-14.17 15.82 519.6 0 0 -715.57 -379.89 0 0 200.85zm-223.77 514.72l44.74 0c3.65,-2.91 8.84,-8 15.57,-15.27 6.71,-7.29 18.46,-25.03 35.21,-53.23 16.72,-28.22 31.48,-60.02 44.18,-95.53 12.76,-35.46 24.31,-84.5 34.69,-147.1 10.35,-62.56 15.55,-130.43 15.55,-203.59l0 -234.69 447.03 0 0 749.41 100.98 0 0 200.86 -33.86 0 0 -167.57 -670.81 0 0 167.57 -33.28 0 0 -200.86z"/>
    <polygon class="fil0" points="7298.13,245.61 7331.44,245.61 7331.44,1028.31 7298.13,1028.31 "/>
    <path class="fil0" d="M7814.2 75.86c20.18,20.04 45.47,30.04 75.87,30.04 30.36,0 55.68,-10 75.87,-30.04 20.17,-20.01 30.3,-45.31 30.3,-75.87l33.28 0c0,38.59 -13.36,71.52 -40.11,98.8 -26.74,27.3 -59.88,40.95 -99.34,40.95 -39.5,0 -72.7,-13.65 -99.62,-40.95 -26.91,-27.28 -40.39,-60.21 -40.39,-98.8l33.84 0c0,30.56 10.09,55.86 30.3,75.87zm-225.7 169.75l33.3 0 0 721.01 541.97 -721.01 27.86 0 0 782.7 -33.31 0 0 -721.01 -541.97 721.01 -27.85 0 0 -782.7z"/>
    <polygon class="fil0" points="8448.69,1028.31 8448.69,245.61 8481.99,245.61 8481.99,614.59 8985.24,614.59 8985.24,245.61 9018.52,245.61 9018.52,1028.31 8985.24,1028.31 8985.24,648.43 8481.99,648.43 8481.99,1028.31 "/>
    <polygon class="fil0" points="9275.61,245.61 9308.92,245.61 9308.92,966.62 9850.89,245.61 9878.74,245.61 9878.74,1028.31 9845.43,1028.31 9845.43,307.3 9303.46,1028.31 9275.61,1028.31 "/>
    <path class="fil0" d="M10361.51 75.86c20.18,20.04 45.47,30.04 75.87,30.04 30.36,0 55.68,-10 75.86,-30.04 20.19,-20.01 30.31,-45.31 30.31,-75.87l33.27 0c0,38.59 -13.35,71.52 -40.1,98.8 -26.74,27.3 -59.88,40.95 -99.34,40.95 -39.5,0 -72.7,-13.65 -99.62,-40.95 -26.91,-27.28 -40.39,-60.21 -40.39,-98.8l33.84 0c0,30.56 10.09,55.86 30.3,75.87zm-225.7 169.75l33.31 0 0 721.01 541.97 -721.01 27.85 0 0 782.7 -33.31 0 0 -721.01 -541.97 721.01 -27.85 0 0 -782.7z"/>
    <path class="fil0" d="M11230.17 995.03l262.51 0c61.13,0 109.09,-16.65 143.83,-49.95 34.73,-33.29 52.12,-78.16 52.12,-134.54 0,-53.5 -17.56,-96.7 -52.65,-129.65 -35.15,-32.93 -82.89,-49.38 -143.3,-49.38l-262.51 0 0 363.52zm246.14 -715.57l-246.14 0 0 318.74 246.14 0c55.31,0 97.98,-14 127.99,-42 30.02,-28.04 45.04,-66.24 45.04,-114.64 0,-47.66 -15.66,-86.59 -46.93,-116.81 -31.3,-30.18 -73.33,-45.29 -126.1,-45.29zm88.97 329.68l0 5.45c4.38,0.73 10.17,1.81 17.47,3.27 7.26,1.46 19.84,6.73 37.65,15.83 17.83,9.11 33.66,19.92 47.49,32.47 13.83,12.58 26.28,31.77 37.4,57.58 11.07,25.84 16.65,54.77 16.65,86.8 0,64.76 -20.86,117.25 -62.51,157.46 -41.65,40.21 -97.24,60.32 -166.75,60.32l-295.83 0 0 -782.71 279.46 0c61.14,0 110.81,18.47 149.03,55.4 38.2,36.95 57.28,83.8 57.28,140.55 0,26.2 -4.09,49.86 -12.28,70.97 -8.16,21.1 -17.99,37.48 -29.46,49.12 -11.46,11.64 -22.83,21.21 -34.13,28.64 -11.25,7.48 -20.91,12.66 -28.9,15.55l-12.57 3.3z"/>
    <polygon class="fil0" points="11962.11,995.03 12453.88,995.03 12453.88,1028.32 11928.8,1028.32 11928.8,245.61 12442.97,245.61 12442.97,279.46 11962.11,279.46 11962.11,603.68 12353.46,603.68 12353.46,636.96 11962.11,636.96 "/>
    <path class="fil0" d="M12649.28 245.61l0 234.68c0,70.25 20.74,126.02 62.22,167.32 41.48,41.31 97.16,61.96 167.02,61.96 41.82,0 82.3,-8 121.45,-24.04 39.08,-15.98 67.92,-31.82 86.51,-47.48l26.72 -23.46 0 -368.98 33.86 0 0 782.7 -33.86 0 0 -368.97c-2.16,2.19 -5.63,5.19 -10.36,9 -4.73,3.83 -15.11,10.57 -31.12,20.19 -16.01,9.66 -32.67,18.21 -49.94,25.67 -17.29,7.47 -38.94,14.18 -64.96,20.18 -26.02,6.01 -52.12,9.01 -78.3,9.01 -78.24,0 -141.56,-24.2 -189.95,-72.6 -48.39,-48.37 -72.6,-111.87 -72.6,-190.5l0 -234.68 33.31 0z"/>
    <polygon class="fil0" points="13404.12,245.61 13437.42,245.61 13437.42,1028.31 13404.12,1028.31 "/>
    <path class="fil0" d="M13962.49 279.45l-234.69 0 0 402.26 234.69 0c64.04,0 115.44,-18.82 154.18,-56.46 38.77,-37.67 58.13,-85.89 58.13,-144.66 0,-58.77 -19.36,-106.98 -58.13,-144.64 -38.74,-37.66 -90.14,-56.5 -154.18,-56.5zm-268 -33.84l268 0c72.4,0 131.54,22.2 177.4,66.59 45.85,44.39 68.77,100.52 68.77,168.39 0,67.89 -22.92,123.99 -68.77,168.39 -45.86,44.39 -105,66.59 -177.4,66.59l-234.69 0 0 312.74 -33.31 0 0 -782.7z"/>
    <polygon class="fil0" points="14683.49,715.57 14325.45,715.57 14325.45,681.71 14683.49,681.71 "/>
    <path class="fil0" d="M15303 754.31l-195.4 -469.41 -195.4 469.41 390.8 0zm11.45 33.83l-413.71 0 -100.43 240.17 -33.86 0 324.23 -782.7 33.84 0 324.2 782.7 -33.84 0 -100.43 -240.17z"/>
    <path class="fil0" d="M15783.86 771.22l251.61 -525.61 33.3 0 -301.86 632.05c-26.92,55.33 -55.22,96.08 -84.85,122.29 -29.66,26.18 -64.69,39.28 -105.09,39.28 -9.8,0 -19.92,-0.91 -30.28,-2.73 -10.38,-1.83 -18.11,-3.81 -23.18,-6l-8.21 -2.19 0 -33.28c18.56,7.27 39.12,10.91 61.67,10.91 66.97,0 119.57,-42.76 157.74,-128.28l32.2 -73.13 -301.83 -558.92 33.87 0 284.91 525.61z"/>
    <polygon class="fil0" points="16258.71,759.76 16722.64,245.62 16767.41,245.62 16476.48,569.82 16795.22,1028.31 16755.94,1028.31 16454.11,592.22 16258.71,804.54 16258.71,1028.31 16225.41,1028.31 16225.41,245.62 16258.71,245.62 "/>
    <polygon class="fil0" points="16945.89,1028.31 16945.89,245.61 16979.19,245.61 16979.19,995.02 17470.97,995.02 17470.97,245.61 17504.81,245.61 17504.81,995.02 17605.23,995.02 17605.23,1195.88 17571.4,1195.88 17571.4,1028.31 "/>
    <polygon class="fil0" points="17778.26,245.61 17811.56,245.61 17811.56,1028.31 17778.26,1028.31 "/>
    <path class="fil0" d="M18650.73 898.69c70.07,-71.52 105.06,-158.65 105.06,-261.46 0,-102.8 -34.99,-190.03 -105.06,-261.7 -70.03,-71.69 -154.26,-107.54 -252.71,-107.54 -98.41,0 -182.66,35.85 -252.7,107.54 -70.03,71.67 -105.07,158.9 -105.07,261.7 0,102.81 35.04,189.94 105.07,261.46 70.04,71.5 154.29,107.25 252.7,107.25 98.45,0 182.68,-35.75 252.71,-107.25zm22.93 -546.08c76.98,78.58 115.45,173.38 115.45,284.35 0,110.99 -38.47,205.79 -115.45,284.36 -76.95,78.62 -168.73,117.91 -275.35,117.91 -106.63,0 -198.51,-39.29 -275.64,-117.91 -77.14,-78.57 -115.7,-173.37 -115.7,-284.36 0,-110.97 38.56,-205.77 115.7,-284.35 77.13,-78.61 169.01,-117.9 275.64,-117.9 106.62,0 198.4,39.29 275.35,117.9z"/>
    <polygon class="fil0" points="18985.06,1028.31 18985.06,245.61 19018.36,245.61 19018.36,614.59 19521.6,614.59 19521.6,245.61 19554.89,245.61 19554.89,1028.31 19521.6,1028.31 19521.6,648.43 19018.36,648.43 19018.36,1028.31 "/>
    <polygon class="fil0" points="20217.49,636.08 20354.7,773.28 20492.06,635.9 20354.86,498.71 "/>
    <polygon class="fil0" points="1724.46,636.08 1861.66,773.28 1999.03,635.9 1861.83,498.71 "/>
   </g>
   <path class="fil1" d="M1163.94 2759.5l1872.05 0 0 2829.87 -170.47 0 0 -2631.74 -1577.57 0 0 2631.74 -166.61 0 0 -2829.87 42.6 0zm18891 267.34l-568.67 1461.33 1133.62 0c-33.8,-87 -67.29,-173.39 -100.57,-259.45 -52.97,-136.94 -114.33,-295.86 -184.1,-476.77 -68.75,-178.23 -129.37,-335.15 -181.81,-470.74l-98.47 -254.37zm1001.7 2532.44l-355.95 -872.99 -1295.04 0 -364.33 903.08 -189.58 0c379.81,-956.2 759.61,-1912.4 1139.36,-2868.62l131.9 0c378.5,956.19 756.91,1912.4 1135.34,2868.62l-189.43 0 -12.27 -30.09zm-4009.36 -2601.65l0 2631.74 -166.61 0 0 -2829.87 1589.07 0 0 198.13 -1422.46 0zm-1288.79 2092.55c121.85,-124.33 212.93,-259.73 273.23,-406.17 59.53,-144.58 89.3,-301.11 89.3,-469.56 0,-168.46 -29.77,-324.98 -89.3,-469.56 -60.3,-146.44 -151.38,-281.84 -273.23,-406.18 -122.74,-125.21 -258.66,-219.16 -407.74,-281.8 -149.4,-62.79 -312.55,-94.18 -489.44,-94.18 -173.01,0 -333.9,31.39 -482.67,94.17 -148.5,62.66 -285.33,156.52 -410.45,281.55 -121.92,125.69 -213.06,261.8 -273.42,408.39 -59.52,144.58 -89.28,300.44 -89.28,467.61 0,167.19 29.76,323.07 89.28,467.65 60.36,146.58 151.5,282.69 273.43,408.31 125.11,125.07 261.92,218.92 410.41,281.58 148.77,62.78 309.68,94.17 482.7,94.17 176.89,0 340.04,-31.39 489.44,-94.16 149.08,-62.65 285,-156.59 407.74,-281.82zm-2323.46 -875.73c0,-197.58 36.12,-382.94 108.37,-556.07 71.26,-170.79 177.8,-329.11 319.6,-474.94 137.06,-141.04 289.01,-246.8 455.82,-317.24 166.45,-70.29 347.29,-105.45 542.49,-105.45 197.64,0 380.35,35.15 548.12,105.44 168.27,70.5 320.92,176.26 457.96,317.25 140.44,144.47 246.02,302.22 316.71,473.23 71.6,173.21 107.4,359.14 107.4,557.78 0,198.66 -35.8,384.59 -107.41,557.79 -70.69,170.99 -176.27,328.73 -316.7,473.2 -137.02,141.01 -289.66,246.76 -457.92,317.25 -167.78,70.29 -350.51,105.43 -548.16,105.43 -195.23,0 -376.08,-35.14 -542.55,-105.44 -166.79,-70.43 -318.72,-176.18 -455.76,-317.24 -141.8,-145.8 -248.35,-304.11 -319.61,-474.9 -72.24,-173.11 -108.36,-358.48 -108.36,-556.09zm-2829.48 -1068.48l0 2483.4 -166.6 0 0 -2829.87 138.46 0 1090.21 1612.48 1097.84 -1612.48 138.51 0c0,943.29 0.05,1886.58 -0.01,2829.87l-166.6 0 0 -2486.77 -1020.22 1513.92 -91.13 0 -1020.46 -1510.55zm-2174.37 1169.46l0 1115.82 1430.21 0 0 198.12 -1596.82 0c0.05,-943.29 0,-1886.58 0,-2829.87l1589.08 0 0 198.13 -1422.47 0 0 1115.81 1391.45 0 0 201.99 -1391.45 0zm-2403 92.58l813.97 0c112.1,0 211.34,-17.89 297.74,-53.67 84.92,-35.18 157.4,-87.59 217.44,-157.22 60.12,-69.74 105.02,-145.55 134.68,-227.41 29.3,-80.87 43.95,-168.54 43.95,-263 0,-94.48 -14.65,-182.3 -43.95,-263.48 -29.72,-82.32 -74.67,-158.71 -134.85,-229.14 -60.18,-70.38 -132.61,-123.27 -217.27,-158.64 -86.07,-35.97 -185.31,-53.96 -297.74,-53.96l-813.97 0 0 1406.52zm-127.9 -1608.51l941.87 0c131.76,0 249.88,21.92 354.35,65.74 105.88,44.41 197.18,111.13 273.88,200.12 76.65,89.02 134.42,186.61 173.27,292.75 39.28,107.31 58.92,222.21 58.92,344.7 0,123.81 -19.65,239.56 -58.93,347.23 -38.79,106.28 -96.6,203.68 -173.43,292.19 -76.84,88.48 -168.08,154.71 -273.71,198.67 -104.5,43.49 -222.62,65.24 -354.35,65.24l-813.97 0 0 1023.23 -170.5 0c0,-943.29 0.05,-1886.58 0,-2829.87l42.6 0zm-2050.36 1515.93l0 1115.82 1430.21 0 0 198.12 -1596.82 0 0 -2829.87 1589.08 0 0 198.13 -1422.47 0 0 1115.81 1391.45 0 0 201.99 -1391.45 0z"/>
   <g>
    <polygon class="fil0" points="2.85,6993.52 982.16,6993.52 982.16,8445.92 936.53,8445.92 936.53,7037.1 46.43,7037.1 46.43,8445.92 2.85,8445.92 "/>
    <path class="fil0" d="M2492.65 8213.55c135.54,-138.31 203.35,-302.95 203.35,-493.81 0,-190.9 -67.81,-355.49 -203.35,-493.83 -135.56,-138.29 -300.15,-207.48 -493.82,-207.48 -189.51,0 -353.42,69.19 -491.72,207.48 -135.59,139.72 -203.36,304.33 -203.36,493.83 0,189.52 67.77,354.1 203.36,493.81 138.3,138.32 302.21,207.46 491.72,207.46 193.67,0 358.26,-69.14 493.82,-207.46zm-1234.53 -493.81c0,-200.56 73.3,-376.25 219.95,-527.03 142.43,-146.59 316.03,-219.92 520.76,-219.92 207.5,0 382.46,73.33 524.95,219.92 145.24,149.4 217.86,325.09 217.86,527.03 0,201.96 -72.62,377.6 -217.86,527 -142.49,146.64 -317.45,219.92 -524.95,219.92 -204.73,0 -378.33,-73.28 -520.76,-219.92 -146.65,-150.75 -219.95,-326.44 -219.95,-527z"/>
    <path class="fil0" d="M3928.42 6993.52l0 1452.4 -45.64 0 0 -634.9c-84.38,40.15 -176.04,62.61 -274.92,67.43 -98.92,4.88 -191.22,-6.22 -276.98,-33.19 -85.79,-26.98 -157.02,-76.06 -213.72,-147.32 -56.75,-71.21 -85.05,-158 -85.05,-260.38l0 -444.04 45.63 0 0 444.04c0,94.06 27.29,173.24 81.95,237.57 54.62,64.31 122.76,108.22 204.38,131.74 81.61,23.53 169.1,31.85 262.47,24.88 93.36,-6.91 178.77,-29.04 256.24,-66.38l0 -771.85 45.64 0z"/>
    <polygon class="fil0" points="4260.36,6993.52 4305.99,6993.52 4305.99,8354.63 5247.97,6993.52 5289.48,6993.52 5289.48,8445.92 5245.9,8445.92 5245.9,7076.52 4297.71,8445.92 4260.36,8445.92 "/>
    <polygon class="fil0" points="5656.74,6993.52 5656.74,7688.6 6546.84,7688.6 6546.84,6993.52 6592.47,6993.52 6592.47,8445.92 6546.84,8445.92 6546.84,7732.16 5656.74,7732.16 5656.74,8445.92 5613.16,8445.92 5613.16,6993.52 "/>
    <path class="fil0" d="M7436.92 7039.17l-342.36 879.74 682.63 0c-38.73,-99.59 -95.46,-246.2 -170.13,-439.88 -74.69,-193.63 -131.43,-340.27 -170.14,-439.86zm556.05 1406.76l-197.1 -483.46 -719.98 0 -195.04 483.46 -49.78 0 585.09 -1473.13 43.58 0 583.04 1473.13 -49.81 0z"/>
    <path class="fil0" d="M9594.73 7429.25l-49.81 0c-30.42,-71.9 -76.09,-139.72 -136.94,-203.33 -125.88,-132.81 -282.89,-199.2 -470.97,-199.2 -185.37,0 -342.35,66.39 -470.99,199.2 -125.9,130.03 -190.9,287.7 -195.04,473.06l1000.07 0 0 43.58 -1000.07 0c4.14,182.58 69.14,338.18 195.04,466.81 129.98,134.19 286.99,201.27 470.99,201.27 186.73,0 343.7,-67.08 470.97,-201.27 60.85,-60.84 106.52,-127.92 136.94,-201.25l49.81 0c-37.36,88.54 -89.21,166.71 -155.62,234.47 -138.33,142.47 -305.71,213.71 -502.1,213.71 -195.03,0 -362.44,-71.24 -502.12,-213.71 -139.73,-146.6 -209.56,-320.2 -209.56,-520.8 0,-204.7 69.83,-380.36 209.56,-527 139.68,-142.44 307.09,-213.71 502.12,-213.71 196.39,0 363.77,71.27 502.1,213.71 67.76,69.19 119.62,147.32 155.62,234.46z"/>
    <polygon class="fil0" points="10349.94,8445.92 10306.38,8445.92 10306.38,7039.16 9808.4,7039.16 9808.4,6993.52 10847.92,6993.52 10847.92,7039.16 10349.94,7039.16 "/>
    <path class="fil0" d="M11159.09 7692.74l0 709.59 599.63 0c105.11,0 187.43,-34.89 246.9,-104.76 59.48,-69.83 89.23,-152.5 89.23,-247.96 0,-99.59 -29.4,-183.94 -88.17,-253.12 -58.83,-69.15 -141.47,-103.75 -247.96,-103.75l-599.63 0zm0 -699.22l0 653.59 599.63 0c113.42,0 205.41,36.3 275.95,108.93 70.54,72.62 105.81,169.81 105.81,291.52 0,106.52 -33.88,199.53 -101.65,279.05 -67.81,79.57 -161.17,119.31 -280.11,119.31l-645.28 0 0 -1452.4 45.65 0z"/>
    <path class="fil0" d="M13748.5 7429.25l-49.81 0c-30.42,-71.9 -76.09,-139.72 -136.94,-203.33 -125.88,-132.81 -282.89,-199.2 -470.97,-199.2 -185.37,0 -342.35,66.39 -470.99,199.2 -130.04,134.16 -195.05,299.48 -195.05,495.87 0,192.29 65.01,354.81 195.05,487.58 129.99,134.19 286.99,201.27 470.99,201.27 186.73,0 343.7,-67.08 470.97,-201.27 60.85,-60.84 106.52,-127.92 136.94,-201.25l49.81 0c-37.36,88.54 -89.21,166.71 -155.62,234.47 -138.33,142.47 -305.71,213.71 -502.1,213.71 -195.03,0 -362.44,-71.24 -502.12,-213.71 -139.74,-146.6 -209.55,-320.2 -209.55,-520.8 0,-204.7 69.81,-380.36 209.55,-527 139.68,-142.44 307.09,-213.71 502.12,-213.71 196.39,0 363.77,71.27 502.1,213.71 67.75,69.19 119.63,147.32 155.62,234.46z"/>
    <path class="fil0" d="M14910.35 8445.92l0 -1406.76 -460.6 0c-124.49,0 -221.34,37.72 -290.49,113.11 -69.18,75.38 -103.73,164.94 -103.73,268.66 0,103.77 34.55,193.69 103.73,269.72 69.15,76.1 166,114.14 290.49,114.14l286.32 0 0 37.35 -666.03 603.78 -66.4 0 663.95 -599.63 -217.84 0c-138.36,0 -245.87,-41.82 -322.65,-125.52 -76.76,-83.67 -115.15,-183.62 -115.15,-299.84 0,-114.77 38.39,-214.75 115.15,-299.8 76.78,-85.07 184.29,-127.61 322.65,-127.61l504.18 0 0 1452.4 -43.58 0z"/>
    <path class="fil0" d="M16478.9 7690.66l0 2.09c109.25,22.14 195.05,65.36 257.31,129.69 62.23,64.33 93.36,146.26 93.36,245.85 0,112.04 -45.35,206.47 -135.93,283.24 -90.59,76.77 -216.8,115.13 -378.65,115.13 -142.47,0 -253.48,-31.11 -333.01,-93.37 -79.57,-62.24 -126.23,-143.82 -140.03,-244.83l41.49 -6.22c13.8,88.55 56.33,160.81 127.58,216.83 71.25,56.01 172.54,84.02 303.97,84.02 147.99,0 262.79,-34.56 344.44,-103.72 81.6,-69.17 122.41,-152.16 122.41,-249 0,-98.2 -40.48,-181.88 -121.37,-251.05 -80.92,-69.15 -196.08,-103.75 -345.48,-103.75l-101.68 0 0 -41.5 101.68 0c128.65,0 226.49,-31.43 293.6,-94.4 67.08,-62.93 100.62,-140.73 100.62,-233.43 0,-63.61 -17.29,-119.62 -51.87,-168.04 -34.6,-48.4 -78.17,-84.74 -130.71,-108.94 -52.58,-24.19 -110.31,-39.06 -173.25,-44.61 -62.97,-5.51 -122.76,-1.37 -179.48,12.45 -56.73,13.84 -107.2,39.77 -151.46,77.81 -44.29,38.06 -73.33,84.02 -87.14,137.96l-41.5 -8.29c15.19,-63.6 47.74,-117.21 97.51,-160.8 49.81,-43.56 106.15,-73.65 169.11,-90.26 62.94,-16.59 129.32,-21.78 199.18,-15.56 69.85,6.23 133.84,23.54 191.93,51.86 58.09,28.38 106.14,70.55 144.2,126.59 38.04,56.01 57.07,120 57.07,191.92 0,71.93 -20.77,141.1 -62.26,207.47 -41.51,66.4 -112.05,111.36 -211.64,134.86z"/>
    <polygon class="fil0" points="18217.58,8445.92 18174.04,8445.92 18174.04,7039.16 17676.05,7039.16 17676.05,6993.52 18715.57,6993.52 18715.57,7039.16 18217.58,7039.16 "/>
    <polygon class="fil0" points="19024.68,7742.55 19024.68,8402.34 19790.27,8402.34 19790.27,8445.92 18981.1,8445.92 18981.1,6993.53 19786.14,6993.53 19786.14,7037.11 19024.68,7037.11 19024.68,7696.89 19769.54,7696.89 19769.54,7742.55 "/>
    <path class="fil0" d="M20128.49 7692.74l0 709.59 599.63 0c105.11,0 187.43,-34.89 246.9,-104.76 59.48,-69.83 89.23,-152.5 89.23,-247.96 0,-99.59 -29.39,-183.94 -88.16,-253.12 -58.83,-69.15 -141.47,-103.75 -247.97,-103.75l-599.63 0zm881.81 -699.22l0 43.59 -881.81 0 0 610 599.63 0c113.42,0 205.41,36.3 275.95,108.93 70.54,72.62 105.82,169.81 105.82,291.52 0,106.52 -33.89,199.53 -101.66,279.05 -67.8,79.57 -161.16,119.31 -280.11,119.31l-645.27 0 0 -1452.4 927.45 0z"/>
    <polygon class="fil0" points="21448.08,7742.55 21448.08,8402.34 22213.67,8402.34 22213.67,8445.92 21404.5,8445.92 21404.5,6993.53 22209.53,6993.53 22209.53,7037.11 21448.08,7037.11 21448.08,7696.89 22192.94,7696.89 22192.94,7742.55 "/>
   </g>
  </g>
 </g>
</svg>
