<?xml version="1.0" encoding="UTF-8"?>
<!DOCTYPE svg PUBLIC "-//W3C//DTD SVG 1.1//EN" "http://www.w3.org/Graphics/SVG/1.1/DTD/svg11.dtd">
<!-- Creator: CorelDRAW 2020 (64-Bit) -->
<svg xmlns="http://www.w3.org/2000/svg" xml:space="preserve" width="84.6666mm" height="67.0558mm" version="1.1" style="shape-rendering:geometricPrecision; text-rendering:geometricPrecision; image-rendering:optimizeQuality; fill-rule:evenodd; clip-rule:evenodd"
viewBox="0 0 8466.66 6705.58"
 xmlns:xlink="http://www.w3.org/1999/xlink"
 xmlns:xodm="http://www.corel.com/coreldraw/odm/2003">
 <defs>
  <style type="text/css">
   <![CDATA[
    .fil0 {fill:#FEFEFE;fill-rule:nonzero}
   ]]>
  </style>
 </defs>
 <g id="Layer_x0020_1">
  <metadata id="CorelCorpID_0Corel-Layer"/>
  <g id="_2285201394800">
   <path class="fil0" d="M3172.44 4628.14c-84.09,8.85 -167.75,10.28 -250.07,2.18 -138.88,-13.65 -276.89,-37.11 -410.16,-80.18 -74.24,-24 -147.01,-52.54 -218.7,-84.2 -143.95,-63.56 -277.73,-144.1 -402.32,-239.1 -135.54,-103.36 -253.72,-225.03 -358.35,-359.83 -155.55,-200.44 -318.11,-394.86 -501.19,-571.09 -143.08,-137.71 -295.69,-263.8 -466.67,-365.78 -99,-59.05 -202.53,-109.53 -309.98,-151.95 -72.65,-28.7 -145.3,-57.21 -219.72,-80.92 -21.17,-6.74 -28.82,-21.97 -31.73,-41.53 -24.8,-166.95 82.87,-355.19 237.96,-423.61 89.69,-39.57 180.96,-39.03 273.66,-21.95 114.06,21 215.7,73.49 315.58,129.9 44.42,25.11 90.73,46.94 134.85,72.57 68.39,39.73 137.33,78.34 209.19,111.46 71.63,33.01 143.83,63.88 225.07,64.31 86.51,0.45 155.49,-35.01 212.07,-98.64 49.96,-56.21 85.7,-121.05 117.18,-188.68 32.13,-69.03 55.12,-141.3 78.8,-213.51 36.7,-111.87 60.72,-226.94 89.64,-340.77 27.43,-107.96 47.62,-217.58 71.52,-326.36 25.85,-117.63 50.93,-235.43 78.34,-352.76 26.12,-111.75 53.31,-223.22 83.19,-333.94 25.59,-94.76 55.21,-188.65 91.78,-279.8 28.08,-70 59.18,-139.88 105.32,-199.7 36.31,-47.06 77.07,-92.54 143.05,-102.38 99.04,-14.78 176.55,40.53 187.81,141.64 6.93,62.26 -2.78,123.71 -15.58,184.96 -22.7,108.61 -43.44,217.64 -64.49,326.59 -13.41,69.49 -27.39,138.91 -38.18,208.83 -5.35,34.74 -16.79,68.61 -21.17,102.03 -4.87,37.25 -8.44,75.32 -14.2,112.82 -23.26,151.67 -45.41,303.5 -64.07,455.81 -20.53,167.5 -37.15,335.38 -49.2,503.71 -15.33,214.21 -18.81,428.74 -11.27,643.26 2.7,76.52 3.26,153.63 17.91,229.36 0.98,5.04 0.85,8.63 -2.35,11.98 -5.35,5.59 -8.87,1 -13.41,-2.13 -32.66,-22.47 -67.05,-41.71 -103.52,-57.58 -135.67,-59 -276.95,-65.52 -395.92,66.68 -53.33,59.25 -93.11,130.04 -101.95,210.95 -6.25,57.19 -3.72,115.58 9,172.95 26.26,118.4 81.62,222.61 150.53,321 51.69,73.84 109.67,142.21 174.54,204.44 73.59,70.63 150.62,137.19 232.83,198.14 165.73,122.87 343.86,223.9 529.49,312.93 90.68,43.48 182.52,83.79 276.94,118.33 6.31,2.31 11.97,6.33 17.95,9.56z"/>
   <path class="fil0" d="M1198.24 1405.55c231.74,-8.93 403.12,187.58 404.18,389.97 1.25,236.69 -176.57,410.55 -401.74,411.7 -226.8,1.16 -373.31,-168.54 -395.19,-321.31 -19.5,-136.04 6.28,-263.34 109.68,-364.62 78.55,-76.93 171.69,-118.77 283.07,-115.74z"/>
   <path class="fil0" d="M4771.55 1313.48c-23.89,-55.71 -59.16,-75.65 -114.18,-63.33 -32.09,7.19 -51.76,30.42 -69.99,53.73 -67.92,86.79 -101.74,190.66 -139.45,291.82 -54.84,147.13 -99.07,298.28 -163.92,441.58 -31.25,69.08 -65.5,137.29 -125.63,187.7 -55.78,46.76 -131.45,42.71 -168.96,-11.93 -21.95,-32.01 -33.28,-68.46 -35.23,-108.45 -7.22,-148.69 18.81,-293.18 47.3,-437.41l30.84 -153.36c6.43,-30.82 13.07,-62.29 19.9,-95.28 -0.28,0.15 -0.54,0.25 -0.81,0.39l72.69 -361.51 0 0c27.25,-118.66 38.78,-252.87 32.26,-361.27 -2.25,-37.23 -10.2,-72.72 -27.29,-106.67 -37.57,-74.67 -126.04,-78.5 -183.7,-38.39 -59.29,41.26 -92.84,102.7 -126.47,163.96 -51.76,94.37 -88.88,195.05 -125.78,295.65 -24.8,67.58 -45.91,136.55 -67.38,205.3 -28.07,89.84 -55.23,180.07 -84.18,269.51 -28.07,86.72 -56.17,174.07 -93.35,257.72 -30.43,68.42 -55.34,140.07 -124.35,186.92 -19.05,12.93 -47.87,7.98 -62.51,-9.79 -34.59,-42.03 -53.41,-88.78 -58.41,-140.2 2.2,-7.64 2.95,-15.01 -4.23,-20.8 -0.97,-13 -1.93,-26.06 -2.88,-39.09 2.35,-56.74 3.34,-113.48 0.11,-170.28 0.98,-14.49 1.96,-29.04 2.93,-43.59 8.71,-16.84 5.77,-35.03 6.05,-52.88 0.95,-18.61 1.91,-37.26 2.87,-55.92 9.09,-8.11 10.66,-16.04 -0.53,-23.74 7.6,-7.9 6.4,-18.43 8.22,-28.06 8.13,-7.75 5.77,-17.44 5.01,-26.88 1.15,-38.15 10.8,-75.08 16.28,-112.58 14.95,-102.4 35.41,-203.71 55.56,-305.09 12.66,-63.72 27.48,-127.04 42.3,-190.31 19.47,-83.19 39.86,-166.15 59.94,-249.19 13.12,-54.35 26.4,-108.67 39.59,-163.01 7.26,-2.09 6.71,-5.85 2.25,-10.48 1.37,-10.5 2.76,-21.03 4.15,-31.57 8.91,-28.72 10.92,-57.44 0.07,-86.22 0.83,-18.11 -3.48,-35.61 -8.84,-52.55 -34.24,-108.49 -113.47,-139.02 -207.5,-87.89 -66.85,36.35 -113.29,96.63 -148.55,162.29 -55.87,104.07 -103.96,212.06 -143.9,323.5 -25.49,71.11 -53.73,141.22 -73.53,214.34 -13.12,48.5 -26.67,96.88 -42.31,144.62 -24.95,76.19 -43.14,153.99 -63.54,231.14 -19.74,74.57 -30.37,151.5 -46.69,227.01 -25.1,116.18 -45.19,233.23 -65.6,350.28 -22.8,130.79 -41.77,262.22 -56.94,394.12 -17.01,147.93 -34.5,296.07 -39.24,445.19 -6.33,7.05 -6.01,15.13 -3.73,23.59 -0.57,13.4 -3.39,26.87 0.44,40.29 -0.05,25.64 -14.06,50.03 -6.92,76.41 -0.29,7.32 -0.59,14.75 -0.89,22.15 0.08,10.72 0.15,21.42 0.21,32.2 -5.82,30.96 -2.03,62.3 -2.36,93.46 -0.83,81.04 -0.27,162.08 -0.27,244.05 15.01,-7.49 17.21,-8.13 31.73,-27.63 39.61,-53.15 84.35,-102.6 135.82,-144.41 91.86,-74.63 189.01,-127.56 298.93,-145.02 113.43,-18.04 211.47,14.29 292.97,97.21 46.67,47.49 66.78,107.82 83.41,168.51 21.31,77.76 12.39,157.62 -4.44,235.09 -14.65,67.43 -35.73,133.15 -60.3,197.66l-124.9 281.85c-11.81,25.44 -23.62,50.87 -35.96,76.06 -29.25,59.74 -59.03,120.29 -73.51,184.59 -18.51,82.18 -28.98,165.53 -14.33,251.84 20.66,121.72 79.06,214.8 185.11,276.12 107.44,62.15 220.82,57.83 335.5,21.58 40.89,-12.92 77.4,-33.84 114.76,-54.74 40.6,-22.7 78.29,-49.76 110.35,-80.77 50.69,-49.06 99.95,-100.41 139.23,-160.62 29.15,-44.67 60.47,-88.29 86.78,-134.5 64.09,-112.58 120.6,-229.69 177.23,-345.88 11.67,-23.93 30.44,-70.12 40.85,-94.63 11.66,-27.45 28.41,-52.87 37.54,-80.64 22.99,-69.99 54.76,-136.35 79.93,-205.35 9.8,-26.83 20.07,-53.46 30.76,-79.94 29.15,-72.15 50.22,-147.44 77.5,-220.36 19.04,-50.9 37.49,-102.61 52.35,-154.16 18.26,-63.33 39.76,-125.95 55.41,-190.28 21.07,-86.64 49.86,-171.38 71.57,-257.89 38.23,-152.32 73.56,-305.29 100.44,-460.22 24.93,-143.62 46.69,-287.47 49.31,-433.38 1.58,-88.37 3.09,-177.18 -32.97,-261.29z"/>
   <path class="fil0" d="M4806.67 4506.13c23.64,0 44.45,-5.92 62.42,-17.74 17.96,-11.83 32.21,-29.76 42.7,-53.87 10.55,-24.08 15.8,-55.39 15.8,-93.97 0,-58.7 -11.4,-100.97 -34.19,-126.8 -22.79,-25.86 -51.68,-38.78 -86.73,-38.78 -23.66,0 -44.7,5.71 -63.09,17.08 -18.4,11.39 -32.83,29.12 -43.37,53.21 -10.51,24.11 -15.76,55.85 -15.76,95.29 0,57.84 11.36,99.88 34.15,126.16 22.8,26.3 52.13,39.42 88.07,39.42zm-236.56 406.1c-36.81,0 -65.27,-10.08 -85.42,-30.22 -20.15,-20.18 -30.23,-49.51 -30.23,-88.06l0 -671.56c0,-37.66 9.85,-66.57 29.57,-86.74 19.71,-20.15 47.99,-30.23 84.79,-30.23 37.65,0 66.35,10.08 86.07,30.23 19.71,20.17 29.56,49.08 29.56,86.74l0 76.22 -14.47 -64.4c12.26,-39.4 37.89,-71.14 76.89,-95.26 38.99,-24.07 83.44,-36.13 133.38,-36.13 56.09,0 105.37,13.57 147.88,40.73 42.47,27.18 75.54,65.69 99.22,115.63 23.64,49.95 35.48,110.42 35.48,181.37 0,69.22 -11.84,129.24 -35.48,180.04 -23.68,50.84 -56.75,89.81 -99.22,116.96 -42.51,27.15 -91.79,40.76 -147.88,40.76 -48.19,0 -91.55,-11.39 -130.1,-34.18 -38.55,-22.76 -64.37,-52.55 -77.53,-89.35l15.76 0 0 239.17c0,38.55 -10.29,67.88 -30.88,88.06 -20.58,20.14 -49.71,30.22 -87.39,30.22z"/>
   <path class="fil0" d="M5408.53 4675.67c-36.79,0 -65.25,-10.97 -85.4,-32.87 -20.15,-21.86 -30.23,-53.4 -30.23,-94.59l0 -415.29c0,-41.18 10.08,-72.73 30.23,-94.63 20.15,-21.9 48.61,-32.86 85.4,-32.86 37.7,0 66.82,10.96 87.39,32.86 20.58,21.9 30.89,53.45 30.89,94.63l0 415.29c0,41.19 -10.07,72.73 -30.22,94.59 -20.15,21.9 -49.51,32.87 -88.06,32.87z"/>
   <path class="fil0" d="M5923.73 4489.05l190.56 0 0 -295.68 -144.58 0 0 61.76c0,42.05 -3.93,84.1 -11.82,126.18 -7.91,42.04 -19.3,77.98 -34.16,107.74zm-185.29 357.49c-31.55,0 -56.1,-8.8 -73.63,-26.3 -17.51,-17.54 -26.26,-42.94 -26.26,-76.24l0 -152.43c0,-69.19 34.58,-103.83 103.82,-103.83l86.73 0 -138 49.92c20.15,-29.75 36.36,-59.54 48.62,-89.34 12.29,-29.79 21.04,-64.84 26.29,-105.12 5.26,-40.3 7.9,-90.71 7.9,-151.16l0 -44.68c0,-42.91 11.16,-75.35 33.49,-97.24 22.37,-21.9 54.1,-32.87 95.3,-32.87l299.63 0c42.05,0 74.27,10.97 96.59,32.87 22.36,21.89 33.54,54.33 33.54,97.24l0 449.47 -109.1 -109.09 114.34 0c33.29,0 58.92,9 76.9,26.94 17.92,17.97 26.92,43.6 26.92,76.89l0 152.43c0,68.34 -32.84,102.54 -98.57,102.54 -32.44,0 -56.95,-8.8 -73.59,-26.3 -16.66,-17.54 -24.98,-42.94 -24.98,-76.24l0 -80.16 -408.7 0 0 80.16c0,68.34 -32.44,102.54 -97.24,102.54z"/>
   <path class="fil0" d="M6654.38 4675.67c-36.78,0 -65.5,-10.08 -86.07,-30.22 -20.58,-20.15 -30.89,-49.48 -30.89,-88.06l0 -435.01c0,-38.54 10.31,-67.68 30.89,-87.39 20.57,-19.69 49.29,-29.56 86.07,-29.56 37.7,0 66.59,9.87 86.75,29.56 20.15,19.71 30.25,48.85 30.25,87.39l0 122.25 206.31 0 0 -122.25c0,-38.54 10.07,-67.68 30.21,-87.39 20.15,-19.69 49.08,-29.56 86.74,-29.56 36.83,0 65.5,9.87 86.11,29.56 20.58,19.71 30.88,48.85 30.88,87.39l0 435.01c0,38.58 -10.3,67.91 -30.88,88.06 -20.61,20.14 -49.28,30.22 -86.11,30.22 -37.66,0 -66.59,-10.08 -86.74,-30.22 -20.14,-20.15 -30.21,-49.48 -30.21,-88.06l0 -132.72 -206.31 0 0 132.72c0,38.58 -9.88,67.91 -29.59,88.06 -19.69,20.14 -48.85,30.22 -87.41,30.22z"/>
   <path class="fil0" d="M7595.34 4678.31c-49.94,0 -93.96,-9.22 -132.08,-27.61 -38.12,-18.4 -67.91,-43.56 -89.35,-75.57 -21.49,-31.97 -32.2,-68.55 -32.2,-109.72 0,-47.31 12.24,-84.57 36.79,-111.72 24.51,-27.15 63.94,-46.63 118.29,-58.49 54.29,-11.83 126.57,-17.73 216.83,-17.73l72.27 0 0 110.37 -72.27 0c-34.18,0 -62.42,2.45 -84.78,7.23 -22.33,4.84 -38.74,12.3 -49.29,22.37 -10.49,10.08 -15.75,22.99 -15.75,38.75 0,20.18 7.24,36.83 21.67,49.93 14.46,13.15 35.27,19.72 62.42,19.72 21.9,0 41.42,-4.78 58.5,-14.42 17.07,-9.66 30.89,-23.02 41.38,-40.11 10.54,-17.08 15.79,-36.99 15.79,-59.78l0 -152.47c0,-31.54 -8.12,-53.87 -24.3,-67.01 -16.23,-13.15 -44.03,-19.73 -83.48,-19.73 -21.03,0 -44.68,2.45 -70.94,7.23 -26.29,4.83 -55.65,13.38 -88.05,25.64 -23.66,8.75 -43.84,10.07 -60.49,3.94 -16.64,-6.11 -29.56,-16.62 -38.74,-31.55 -9.21,-14.86 -13.61,-31.08 -13.15,-48.62 0.43,-17.5 6.12,-34.16 17.07,-49.94 10.95,-15.76 27.82,-28.01 50.61,-36.8 42.06,-15.75 80.82,-26.28 116.3,-31.54 35.48,-5.25 68.11,-7.86 97.9,-7.86 71.84,0 131.2,10.3 178.1,30.88 46.83,20.58 81.9,52.12 105.13,94.6 23.2,42.51 34.82,97.05 34.82,163.63l0 265.46c0,38.58 -9.18,67.91 -27.59,88.06 -18.39,20.14 -45.15,30.22 -80.15,30.22 -35.93,0 -63.31,-10.08 -82.15,-30.22 -18.87,-20.15 -28.27,-49.48 -28.27,-88.06l0 -34.15 7.89 18.4c-4.39,28.03 -14.47,52.12 -30.23,72.27 -15.78,20.18 -36.35,35.92 -61.75,47.29 -25.44,11.4 -54.34,17.11 -86.75,17.11z"/>
   <path class="fil0" d="M3032.45 5490.58c46.43,0 85.85,-10.93 118.28,-32.83 32.41,-21.9 57.38,-53.44 74.91,-94.62 17.51,-41.2 26.28,-90.71 26.28,-148.51 0,-86.74 -19.29,-154.19 -57.81,-202.41 -38.57,-48.15 -92.45,-72.27 -161.66,-72.27 -45.56,0 -84.77,10.74 -117.61,32.2 -32.87,21.48 -58.05,52.55 -75.58,93.31 -17.54,40.73 -26.27,90.47 -26.27,149.17 0,86.73 19.26,154.41 57.82,203.04 38.54,48.61 92.42,72.92 161.64,72.92zm0 202.41c-93.75,0 -176.1,-19.92 -247.07,-59.81 -70.97,-39.84 -125.94,-95.7 -164.93,-167.57 -39,-71.8 -58.47,-155.51 -58.47,-250.99 0,-71.84 11.16,-137.1 33.5,-195.84 22.33,-58.66 54.31,-109.06 95.94,-151.11 41.61,-42.04 91.33,-74.24 149.17,-96.61 57.81,-22.33 121.76,-33.49 191.86,-33.49 93.74,0 175.87,19.71 246.41,59.12 70.52,39.43 125.53,94.85 164.93,166.24 39.44,71.45 59.16,155.31 59.16,251.69 0,71.84 -11.2,137.1 -33.53,195.79 -22.33,58.73 -54.34,109.3 -95.94,151.81 -41.61,42.51 -91.33,74.92 -149.15,97.24 -57.82,22.33 -121.8,33.53 -191.88,33.53z"/>
   <path class="fil0" d="M3969.46 5520.81c27.16,0 49.51,-5.69 67.05,-17.07 17.51,-11.38 30.89,-28.02 40.07,-49.96 9.22,-21.87 13.81,-49.04 13.81,-81.47 0,-49.06 -10.32,-86.27 -30.88,-111.72 -20.61,-25.4 -50.61,-38.07 -90.05,-38.07 -26.26,0 -48.62,5.67 -67.02,17.07 -18.39,11.39 -32.2,28.04 -41.38,49.94 -9.22,21.9 -13.81,48.63 -13.81,80.16 0,49.95 10.51,87.63 31.55,113.03 21.03,25.4 51.25,38.09 90.66,38.09zm9.22 172.18c-74.48,0 -139.32,-14.27 -194.52,-42.71 -55.19,-28.48 -97.7,-71.17 -127.46,-128.15 -29.79,-56.95 -44.69,-128.32 -44.69,-214.21l0 -90.7c0,-88.45 14.67,-162.93 44.04,-223.4 29.33,-60.45 72.69,-108.84 130.1,-145.2 57.38,-36.37 128.55,-62.86 213.53,-79.5l143.25 -30.26c31.55,-6.98 58.27,-4.36 80.17,7.89 21.89,12.3 35.93,33.75 42.08,64.41 6.11,30.69 1.29,55.85 -14.47,75.57 -15.75,19.68 -39.87,32.63 -72.27,38.75l-160.36 32.86c-40.29,7.88 -74.24,20.61 -101.83,38.12 -27.61,17.54 -48.62,40.3 -63.08,68.33 -14.48,28.05 -21.67,60.91 -21.67,98.57l0 93.31 -30.25 0c6.99,-36.79 20.57,-70.99 40.75,-102.5 20.15,-31.53 47.5,-56.75 82.15,-75.57 34.58,-18.82 77.28,-28.27 128.11,-28.27 51.7,0 98.11,12.48 139.33,37.45 41.16,24.97 73.78,60.45 97.9,106.46 24.07,46 36.14,101.44 36.14,166.25 0,68.32 -14.48,127.28 -43.37,176.76 -28.9,49.52 -69.47,87.83 -121.59,114.98 -52.12,27.15 -112.8,40.76 -181.99,40.76z"/>
   <path class="fil0" d="M4782.92 5520.81c23.68,0 44.7,-5.92 63.09,-17.74 18.4,-11.83 32.63,-29.76 42.71,-53.87 10.07,-24.08 15.12,-55.39 15.12,-93.97 0,-58.7 -11.39,-100.97 -34.17,-126.81 -22.8,-25.86 -51.7,-38.77 -86.75,-38.77 -23.64,0 -44.66,5.71 -63.09,17.08 -18.39,11.38 -32.82,29.12 -43.35,53.2 -10.52,24.12 -15.77,55.86 -15.77,95.3 0,57.84 11.37,99.88 34.19,126.16 22.75,26.3 52.08,39.42 88.02,39.42zm0 172.18c-71.84,0 -134.49,-13.61 -187.91,-40.76 -53.47,-27.15 -95.09,-66.12 -124.85,-116.96 -29.79,-50.8 -44.68,-110.82 -44.68,-180.04 0,-52.55 8.32,-99.66 24.96,-141.27 16.62,-41.62 40.73,-77.09 72.27,-106.46 31.54,-29.33 69.2,-51.69 113.03,-67.02 43.8,-15.33 92.86,-22.99 147.18,-22.99 71.85,0 134.5,13.58 187.95,40.73 53.43,27.18 94.83,65.93 124.18,116.3 29.33,50.41 44.03,110.62 44.03,180.71 0,51.71 -8.36,98.55 -24.96,140.6 -16.66,42.08 -40.54,77.79 -71.65,107.12 -31.08,29.36 -68.77,51.73 -112.99,67.02 -44.27,15.32 -93.11,23.02 -146.56,23.02z"/>
   <path class="fil0" d="M5811.5 5690.35c-36.79,0 -65.29,-10.08 -85.44,-30.22 -20.14,-20.15 -30.23,-49.48 -30.23,-88.06l0 -361.41 -135.36 0 0 69.65c0,50.83 -4.15,97.91 -12.48,141.27 -8.31,43.37 -20.38,81.71 -36.12,115.01 -15.8,33.3 -36.15,61.99 -61.12,86.08 -24.96,24.11 -54.53,43.17 -88.72,57.17 -26.29,10.51 -50.17,13.35 -71.61,8.52 -21.5,-4.82 -39.24,-14.62 -53.24,-29.56 -14,-14.89 -22.98,-32.4 -26.92,-52.54 -3.97,-20.15 -1.55,-40.11 7.2,-59.83 8.76,-19.71 24.97,-36.99 48.62,-51.88 16.65,-10.54 30.26,-23.02 40.77,-37.46 10.49,-14.47 18.82,-31.11 24.97,-49.94 6.1,-18.84 10.27,-39.44 12.48,-61.76 2.19,-22.37 3.27,-46.68 3.27,-72.97l0 -110.39c0,-42.9 11.19,-75.34 33.53,-97.24 22.32,-21.89 54.53,-32.86 96.57,-32.86l321.98 0c42.07,0 74.29,10.97 96.62,32.86 22.31,21.9 33.48,54.34 33.48,97.24l0 410.04c0,38.58 -10.3,67.91 -30.88,88.06 -20.57,20.14 -49.71,30.22 -87.37,30.22z"/>
   <path class="fil0" d="M6424.44 5520.81c23.69,0 44.69,-5.92 63.09,-17.74 18.4,-11.83 32.63,-29.76 42.71,-53.87 10.07,-24.08 15.12,-55.39 15.12,-93.97 0,-58.7 -11.39,-100.97 -34.17,-126.81 -22.8,-25.86 -51.7,-38.77 -86.75,-38.77 -23.66,0 -44.66,5.71 -63.09,17.08 -18.38,11.38 -32.82,29.12 -43.35,53.2 -10.52,24.12 -15.77,55.86 -15.77,95.3 0,57.84 11.37,99.88 34.19,126.16 22.75,26.3 52.09,39.42 88.02,39.42zm0 172.18c-71.84,0 -134.5,-13.61 -187.91,-40.76 -53.47,-27.15 -95.08,-66.12 -124.84,-116.96 -29.8,-50.8 -44.69,-110.82 -44.69,-180.04 0,-52.55 8.31,-99.66 24.97,-141.27 16.61,-41.62 40.71,-77.09 72.26,-106.46 31.56,-29.33 69.2,-51.69 113.03,-67.02 43.8,-15.33 92.84,-22.99 147.18,-22.99 71.84,0 134.5,13.58 187.94,40.73 53.45,27.18 94.83,65.93 124.19,116.3 29.33,50.41 44.04,110.62 44.04,180.71 0,51.71 -8.37,98.55 -24.98,140.6 -16.65,42.08 -40.53,77.79 -71.63,107.12 -31.09,29.36 -68.78,51.73 -113,67.02 -44.27,15.32 -93.11,23.02 -146.56,23.02z"/>
   <path class="fil0" d="M7026.35 5690.35c-36.8,0 -65.5,-10.08 -86.08,-30.22 -20.57,-20.15 -30.89,-49.48 -30.89,-88.06l0 -435.01c0,-38.54 10.32,-67.68 30.89,-87.39 20.58,-19.69 49.28,-29.56 86.08,-29.56 37.69,0 66.58,9.87 86.74,29.56 20.14,19.71 30.26,48.85 30.26,87.39l0 122.25 206.29 0 0 -122.25c0,-38.54 10.07,-67.68 30.22,-87.39 20.15,-19.69 49.09,-29.56 86.74,-29.56 36.83,0 65.5,9.87 86.11,29.56 20.58,19.71 30.88,48.85 30.88,87.39l0 435.01c0,38.58 -10.3,67.91 -30.88,88.06 -20.61,20.14 -49.28,30.22 -86.11,30.22 -37.65,0 -66.59,-10.08 -86.74,-30.22 -20.15,-20.15 -30.22,-49.48 -30.22,-88.06l0 -132.72 -206.29 0 0 132.72c0,38.58 -9.89,67.91 -29.61,88.06 -19.69,20.14 -48.85,30.22 -87.39,30.22z"/>
   <path class="fil0" d="M7975.19 5531.34l97.24 0c31.55,0 56.06,-6.77 73.6,-20.38 17.5,-13.57 26.29,-33.95 26.29,-61.1 0,-27.16 -8.55,-46.67 -25.63,-58.5 -17.07,-11.83 -41.86,-17.73 -74.26,-17.73l-97.24 0 0 157.71zm-120.92 147.19c-36.8,0 -64.83,-9.66 -84.09,-28.91 -19.28,-19.26 -28.94,-47.33 -28.94,-84.13l0 -428.43c0,-38.54 10.3,-67.68 30.89,-87.39 20.58,-19.69 49.28,-29.56 86.07,-29.56 37.68,0 66.59,9.87 86.74,29.56 20.15,19.71 30.25,48.85 30.25,87.39l0 89.37 140.61 0c89.34,0 156.61,18.41 201.72,55.2 45.11,36.8 67.68,92 67.68,165.58 0,45.59 -11.4,85.65 -34.16,120.27 -22.8,34.61 -54.33,61.76 -94.63,81.48 -40.29,19.71 -87.17,29.57 -140.61,29.57l-261.53 0z"/>
   <path class="fil0" d="M5408.93 3662.34c79.46,-3.06 138.23,64.33 138.61,133.74 0.43,81.17 -60.56,140.78 -137.78,141.18 -77.77,0.4 -128.02,-57.8 -135.54,-110.19 -6.67,-46.65 2.17,-90.31 37.63,-125.03 26.93,-26.39 58.88,-40.73 97.08,-39.7z"/>
   <path class="fil0" d="M2548.78 6264.73l-138.99 0 0 215.57 138.99 0c70.94,0 112,-39.62 112,-107.42 0,-68.52 -41.06,-108.15 -112,-108.15zm5.21 267.37l-200.94 0 0 -542.3 331.68 0 0 51.79 -274.94 0 0 171.36 144.2 0c99.34,0 163.59,64 163.59,159.93 0,95.21 -64.25,159.22 -163.59,159.22z"/>
   <path class="fil0" d="M3049.14 6532.09l0 -327.51 -130 0 0 129.49c0,156.9 -49.29,198.02 -116.58,198.02l-24.63 0 0 -47.19 11.96 0c32.89,0 77.66,-10.67 77.66,-166.84l0 -160.68 235.42 0 0 374.71 -53.83 0z"/>
   <path class="fil0" d="M3445.68 6359.18l-102.33 0c-55.31,0 -82.98,22.09 -82.98,66.31 0,43.4 26.18,63.93 85.21,63.93 30.64,0 57.56,-3.03 81.43,-25.12 12.72,-12.21 18.67,-33.48 18.67,-64.75l0 -40.37zm0 172.92l0 -35.79c-29.15,29.7 -56.8,40.38 -106.05,40.38 -50.86,0 -78.51,-9.18 -103.88,-34.3 -18.67,-18.3 -27.6,-46.45 -27.6,-76.16 0,-66.3 45.53,-108.16 127.75,-108.16l109.78 0 0 -35.78c0,-54.08 -26.17,-82.31 -94.15,-82.31 -46.26,0 -70.19,12.22 -92.65,43.42l-36.59 -34.24c32.13,-43.41 69.46,-56.37 129.99,-56.37 99.35,0 147.23,44.16 147.23,124.91l0 254.4 -53.83 0z"/>
   <polygon class="fil0" points="3686.87,6204.57 3686.87,6532.09 3633.1,6532.09 3633.1,6157.38 3866.16,6157.38 3866.16,6204.57 "/>
   <path class="fil0" d="M4131.97 6228.95c-17.86,-18.29 -41.06,-27.42 -67.23,-27.42 -26.11,0 -48.5,9.13 -66.48,27.42 -26.92,27.4 -29.89,73.11 -29.89,115.79 0,41.85 2.23,87.56 29.89,115.78 17.98,18.24 40.37,27.42 66.48,27.42 26.17,0 49.37,-9.18 67.23,-27.42 26.91,-28.22 29.15,-73.93 29.15,-115.78 0,-42.68 -2.24,-88.39 -29.15,-115.79zm38.14 265.06c-25.37,26.66 -60.52,42.67 -105.37,42.67 -44.77,0 -79.87,-16.01 -105.3,-42.67 -37.33,-38.83 -44.84,-91.41 -44.84,-149.27 0,-57.93 7.51,-111.2 44.84,-149.28 25.43,-26.67 60.53,-42.67 105.3,-42.67 44.85,0 80,16 105.37,42.67 37.4,38.08 44.84,91.35 44.84,149.28 0,57.86 -7.44,110.44 -44.84,149.27z"/>
   <path class="fil0" d="M4530.13 6204.57l-125.52 0 0 70.83c-0.75,99.04 -18,153.86 -41.87,209.49l167.39 0 0 -280.32zm56 439.46l0 -111.94 -273.43 0 0 111.94 -51.55 0 0 -159.14 43.36 0c27.66,-62.51 48.49,-119.63 48.49,-255.95l0 -71.56 230.9 0 0 327.51 54.58 0 0 159.14 -52.35 0z"/>
   <path class="fil0" d="M4730.14 6157.39l53.82 0 0 374.7 -53.82 0 0 -374.7zm-2.98 -168.4l60.53 0 0 61.71 -60.53 0 0 -61.71z"/>
   <path class="fil0" d="M5067.83 6091.83c-62.02,0 -104.63,-27.42 -109.09,-95.94l47.82 0c2.96,38.07 24.61,57.11 61.27,57.11 36.58,0 58.23,-19.04 61.21,-57.11l47.82 0c-4.47,68.52 -47.07,95.94 -109.03,95.94zm94.08 440.26l0 -290.19 -188.97 290.19 -53.09 0 0 -374.7 53.09 0 0 288.62 188.97 -288.62 53.83 0 0 374.7 -53.83 0z"/>
   <polygon class="fil0" points="5580.9,6532.09 5580.9,6362.23 5403.09,6362.23 5403.09,6532.09 5350,6532.09 5350,6157.38 5403.09,6157.38 5403.09,6315.03 5580.9,6315.03 5580.9,6157.38 5634.67,6157.38 5634.67,6532.09 "/>
   <polygon class="fil0" points="6011.81,6532.09 6011.81,6241.9 5822.83,6532.09 5769.74,6532.09 5769.74,6157.38 5822.83,6157.38 5822.83,6446.02 6011.81,6157.38 6065.63,6157.38 6065.63,6532.09 "/>
   <path class="fil0" d="M6348.63 6091.83c-62.03,0 -104.63,-27.42 -109.1,-95.94l47.83 0c2.96,38.07 24.6,57.11 61.27,57.11 36.58,0 58.23,-19.04 61.21,-57.11l47.8 0c-4.46,68.52 -47.07,95.94 -109.01,95.94zm94.06 440.26l0 -290.19 -188.96 290.19 -53.08 0 0 -374.7 53.08 0 0 288.62 188.96 -288.62 53.85 0 0 374.7 -53.85 0z"/>
   <path class="fil0" d="M7034.16 6201.53l0 286.41c87.4,-2.31 132.23,-57.13 132.23,-143.2 0,-81.5 -37.33,-140.16 -132.23,-143.21zm-53.82 0c-94.08,3.05 -132.23,61.71 -132.23,143.21 0,86.07 44.85,140.89 132.23,143.2l0 -286.41zm53.82 335.15l0 162.98 -53.82 0 0 -162.98c-115.79,-6.15 -186,-69.34 -186,-192.69 0,-122.68 69.46,-185.12 186,-191.2l0 -162.98 53.82 0 0 162.98c116.54,6.08 186.07,68.52 186.07,191.2 0,123.35 -70.28,186.54 -186.07,192.69z"/>
   <path class="fil0" d="M7530.06 6228.95c-17.92,-18.29 -41.11,-27.42 -67.29,-27.42 -26.11,0 -48.56,9.13 -66.48,27.42 -26.85,27.4 -29.88,73.11 -29.88,115.79 0,41.85 2.28,87.56 29.88,115.78 17.92,18.24 40.37,27.42 66.48,27.42 26.18,0 49.37,-9.18 67.29,-27.42 26.86,-28.22 29.09,-73.93 29.09,-115.78 0,-42.68 -2.23,-88.39 -29.09,-115.79zm38.09 265.06c-25.42,26.66 -60.53,42.67 -105.38,42.67 -44.77,0 -79.94,-16.01 -105.3,-42.67 -37.39,-38.83 -44.85,-91.41 -44.85,-149.27 0,-57.93 7.46,-111.2 44.85,-149.28 25.36,-26.67 60.53,-42.67 105.3,-42.67 44.85,0 79.96,16 105.38,42.67 37.33,38.08 44.83,91.35 44.83,149.28 0,57.86 -7.5,110.44 -44.83,149.27z"/>
   <polygon class="fil0" points="7958.74,6532.09 7958.74,6362.23 7780.93,6362.23 7780.93,6532.09 7727.83,6532.09 7727.83,6157.38 7780.93,6157.38 7780.93,6315.03 7958.74,6315.03 7958.74,6157.38 8012.5,6157.38 8012.5,6532.09 "/>
   <path class="fil0" d="M8358.32 6204.57l-125.54 0 0 70.83c-0.73,99.04 -17.92,153.86 -41.85,209.49l167.39 0 0 -280.32zm56 439.46l0 -111.94 -273.45 0 0 111.94 -51.52 0 0 -159.14 43.35 0c27.6,-62.51 48.55,-119.63 48.55,-255.95l0 -71.56 230.84 0 0 327.51 54.58 0 0 159.14 -52.35 0z"/>
  </g>
 </g>
</svg>
